<?xml version="1.0" encoding="UTF-8"?>
<svg width="617px" height="429px" viewBox="0 0 617 429" version="1.1" xmlns="http://www.w3.org/2000/svg" xmlns:xlink="http://www.w3.org/1999/xlink">
    <!-- Generator: Sketch 63.1 (92452) - https://sketch.com -->
    <title>Group</title>
    <desc>Created with Sketch.</desc>
    <defs>
        <path d="M23.1488895,56.4941888 L20.6052995,56.4941888 C20.8594795,54.0669488 20.9901495,51.6056989 20.9901495,49.117599 C20.9901495,29.9789194 13.5204797,13.0168797 2.00719994,2.46303995 C1.43260995,1.93677996 0.87412996,1.39798997 0.329969972,0.844879982 L23.1488895,0.844879982 L23.1488895,56.4941888 L23.1488895,56.4941888 Z" id="path-1"></path>
    </defs>
    <g id="Page-1" stroke="none" stroke-width="1" fill="none" fill-rule="evenodd">
        <g id="home" transform="translate(-257.000000, -1112.000000)">
            <g id="Group" transform="translate(257.000000, 1112.000000)">
                <path d="M573.625178,120.687167 L356.118702,120.687167 C351.869243,120.687167 348.425283,124.131127 348.425283,128.378797 L348.425283,383.989002 C348.425283,388.236672 351.869243,391.680632 356.118702,391.680632 L573.625178,391.680632 C577.872848,391.680632 581.316808,388.236672 581.316808,383.989002 L581.316808,128.378797 C581.316808,124.131127 577.872848,120.687167 573.625178,120.687167" id="Fill-23" fill="#080808"></path>
                <polygon id="Fill-24" fill="#FFFFFF" points="370.864722 367.957762 558.266978 367.957762 558.266978 155.173307 370.864722 155.173307"></polygon>
                <path d="M382.612492,142.720277 L373.275852,142.720277 C372.171422,142.720277 371.274632,141.825277 371.274632,140.720847 L371.274632,134.851437 C371.274632,133.747007 372.171422,132.852007 373.275852,132.852007 L382.612492,132.852007 C383.716922,132.852007 384.611922,133.747007 384.611922,134.851437 L384.611922,140.720847 C384.611922,141.825277 383.716922,142.720277 382.612492,142.720277" id="Fill-25" fill="#B0AFCC"></path>
                <path d="M401.951651,142.720277 L392.615012,142.720277 C391.508792,142.720277 390.613792,141.825277 390.613792,140.720847 L390.613792,134.851437 C390.613792,133.747007 391.508792,132.852007 392.615012,132.852007 L401.951651,132.852007 C403.056081,132.852007 403.952871,133.747007 403.952871,134.851437 L403.952871,140.720847 C403.952871,141.825277 403.056081,142.720277 401.951651,142.720277" id="Fill-26" fill="#B0AFCC"></path>
                <path d="M421.290811,142.720277 L411.954171,142.720277 C410.849741,142.720277 409.952951,141.825277 409.952951,140.720847 L409.952951,134.851437 C409.952951,133.747007 410.849741,132.852007 411.954171,132.852007 L421.290811,132.852007 C422.395241,132.852007 423.290241,133.747007 423.290241,134.851437 L423.290241,140.720847 C423.290241,141.825277 422.395241,142.720277 421.290811,142.720277" id="Fill-27" fill="#B0AFCC"></path>
                <polygon id="Path" fill="#C3EDFF" points="394.911582 338.005693 534.221909 338.005693 534.221909 270.386654 394.911582 270.386654"></polygon>
                <polygon id="Fill-30" fill="#C3EDFF" points="429.188291 181.432606 533.871069 181.432606 533.871069 169.998086 429.188291 169.998086"></polygon>
                <polygon id="Fill-31" fill="#C3EDFF" points="429.188291 201.947796 533.871069 201.947796 533.871069 190.513276 429.188291 190.513276"></polygon>
                <polygon id="Fill-32" fill="#C3EDFF" points="429.188291 222.464775 533.871069 222.464775 533.871069 211.028466 429.188291 211.028466"></polygon>
                <polygon id="Fill-33" fill="#C3EDFF" points="429.188291 242.979965 497.188291 242.979965 497.188291 231.543655 429.188291 231.543655"></polygon>
                <path d="M407.733351,181.432606 L400.979681,181.432606 C397.822122,181.432606 395.262422,178.872906 395.262422,175.715346 C395.262422,172.557786 397.822122,169.998086 400.979681,169.998086 L407.733351,169.998086 C410.892701,169.998086 413.450611,172.557786 413.450611,175.715346 C413.450611,178.872906 410.892701,181.432606 407.733351,181.432606" id="Fill-34" fill="#B0AFCC"></path>
                <path d="M407.733351,201.947796 L400.979681,201.947796 C397.822122,201.947796 395.262422,199.388096 395.262422,196.230536 C395.262422,193.072976 397.822122,190.513276 400.979681,190.513276 L407.733351,190.513276 C410.892701,190.513276 413.450611,193.072976 413.450611,196.230536 C413.450611,199.388096 410.892701,201.947796 407.733351,201.947796" id="Fill-35" fill="#B0AFCC"></path>
                <path d="M407.733351,222.464775 L400.979681,222.464775 C397.822122,222.464775 395.262422,219.903285 395.262422,216.745725 C395.262422,213.589955 397.822122,211.028466 400.979681,211.028466 L407.733351,211.028466 C410.892701,211.028466 413.450611,213.589955 413.450611,216.745725 C413.450611,219.903285 410.892701,222.464775 407.733351,222.464775" id="Fill-36" fill="#B0AFCC"></path>
                <path d="M407.733351,242.979965 L400.979681,242.979965 C397.822122,242.979965 395.262422,240.418475 395.262422,237.260915 C395.262422,234.105145 397.822122,231.543655 400.979681,231.543655 L407.733351,231.543655 C410.892701,231.543655 413.450611,234.105145 413.450611,237.260915 C413.450611,240.418475 410.892701,242.979965 407.733351,242.979965" id="Fill-37" fill="#B0AFCC"></path>
                <path d="M232.889735,352.245142 L232.889735,209.342286 C232.889735,205.092826 229.445775,201.648866 225.198105,201.648866 L7.69162984,201.648866 C3.44395993,201.648866 0,205.092826 0,209.342286 L0,352.245142 C0,358.429592 5.01199989,363.441592 11.1982398,363.441592 L221.691495,363.441592 C227.875945,363.441592 232.889735,358.429592 232.889735,352.245142" id="Fill-38" fill="#080808"></path>
                <polygon id="Fill-39" fill="#FFFFFE" points="22.4394395 347.165123 209.839906 347.165123 209.839906 236.135005 22.4394395 236.135005"></polygon>
                <g id="coding" transform="translate(22.000000, 236.000000)" fill-rule="nonzero">
                    <polygon id="Path" fill="#FFFFFF" points="0 0 0 111 148 111 148 0"></polygon>
                    <g id="Group" transform="translate(16.800000, 57.680000)" fill="#424948">
                        <polygon id="Path" points="67.6482799 17.92 54.8799999 28.8399999 49.2522799 33.7119999 43.7077199 27.3279999 54.7117199 17.92 43.7077199 8.51199998 49.2522799 2.128 54.8799999 6.99999999"></polygon>
                        <polygon id="Path" points="18.54832 33.7069599 0.12824 17.92 18.54832 2.13304 24.0116799 8.50695998 13.03176 17.92 24.0116799 27.3330399"></polygon>
                        <polygon id="Path" transform="translate(33.848190, 17.905822) rotate(-75.991557) translate(-33.848190, -17.905822) " points="16.5358119 13.7090471 51.1605686 13.7090471 51.1605686 22.1025967 16.5358119 22.1025967"></polygon>
                    </g>
                    <polygon id="Path" fill="#C3EDFF" points="50.6799999 25.1999999 59.0799999 25.1999999 59.0799999 33.5999999 50.6799999 33.5999999"></polygon>
                    <polygon id="Path" fill="#C3EDFF" points="67.4799999 25.1999999 75.8799998 25.1999999 75.8799998 33.5999999 67.4799999 33.5999999"></polygon>
                    <polygon id="Path" fill="#F13624" points="101.08 41.9999999 109.48 41.9999999 109.48 50.3999999 101.08 50.3999999"></polygon>
                    <polygon id="Path" fill="#F13624" points="117.88 41.9999999 126.28 41.9999999 126.28 50.3999999 117.88 50.3999999"></polygon>
                    <polygon id="Path" fill="#00C8C8" points="101.08 75.5999998 109.48 75.5999998 109.48 83.9999998 101.08 83.9999998"></polygon>
                    <polygon id="Path" fill="#00C8C8" points="117.88 75.5999998 126.28 75.5999998 126.28 83.9999998 117.88 83.9999998"></polygon>
                    <polygon id="Path" fill="#C3EDFF" points="84.2799998 25.1999999 126.28 25.1999999 126.28 33.5999999 84.2799998 33.5999999"></polygon>
                    <polygon id="Path" fill="#F0C300" points="92.6799998 58.7999999 101.08 58.7999999 101.08 67.1999999 92.6799998 67.1999999"></polygon>
                    <polygon id="Path" fill="#F0C300" points="109.48 58.7999999 126.28 58.7999999 126.28 67.1999999 109.48 67.1999999"></polygon>
                    <polygon id="Path" fill="#C3EDFF" points="17.08 25.1999999 42.2799999 25.1999999 42.2799999 33.5999999 17.08 33.5999999"></polygon>
                    <polygon id="Path" fill="#F13624" points="50.6799999 41.9999999 92.6799998 41.9999999 92.6799998 50.3999999 50.6799999 50.3999999"></polygon>
                    <polygon id="Path" fill="#F13624" points="25.4799999 41.9999999 42.2799999 41.9999999 42.2799999 50.3999999 25.4799999 50.3999999"></polygon>
                </g>
                <path d="M34.1854193,223.681975 L24.8487795,223.681975 C23.7443495,223.681975 22.8475595,222.786975 22.8475595,221.682545 L22.8475595,215.814925 C22.8475595,214.708705 23.7443495,213.813705 24.8487795,213.813705 L34.1854193,213.813705 C35.2898492,213.813705 36.1866392,214.708705 36.1866392,215.814925 L36.1866392,221.682545 C36.1866392,222.786975 35.2898492,223.681975 34.1854193,223.681975" id="Fill-40" fill="#F0C300"></path>
                <path d="M53.5245789,223.681975 L44.1879391,223.681975 C43.0835091,223.681975 42.1885091,222.786975 42.1885091,221.682545 L42.1885091,215.814925 C42.1885091,214.708705 43.0835091,213.813705 44.1879391,213.813705 L53.5245789,213.813705 C54.6290088,213.813705 55.5257988,214.708705 55.5257988,215.814925 L55.5257988,221.682545 C55.5257988,222.786975 54.6290088,223.681975 53.5245789,223.681975" id="Fill-41" fill="#1DCBA4"></path>
                <path d="M72.8637384,223.681975 L63.5288886,223.681975 C62.4226687,223.681975 61.5276687,222.786975 61.5276687,221.682545 L61.5276687,215.814925 C61.5276687,214.708705 62.4226687,213.813705 63.5288886,213.813705 L72.8637384,213.813705 C73.9699584,213.813705 74.8649584,214.708705 74.8649584,215.814925 L74.8649584,221.682545 C74.8649584,222.786975 73.9699584,223.681975 72.8637384,223.681975" id="Fill-42" fill="#5194FA"></path>
                <polygon id="Fill-43" fill="#F9FBFF" points="88.4689581 220.723105 209.839906 220.723105 209.839906 215.788075 88.4689581 215.788075"></polygon>
                <path d="M416.262701,391.680632 L207.818996,391.680632 C197.748456,391.680632 189.586056,383.516442 189.586056,373.445902 L189.586056,18.2329396 C189.586056,8.16239983 197.748456,2.84217094e-14 207.818996,2.84217094e-14 L416.262701,2.84217094e-14 C426.333241,2.84217094e-14 434.495641,8.16239983 434.495641,18.2329396 L434.495641,373.445902 C434.495641,383.516442 426.333241,391.680632 416.262701,391.680632" id="Fill-52" fill="#080808"></path>
                <path d="M402.782211,391.680632 L187.488176,391.680632 C177.222526,391.680632 168.899026,383.357132 168.899026,373.091482 L168.899026,18.5891496 C168.899026,8.32349982 177.222526,2.84217094e-14 187.488176,2.84217094e-14 L402.782211,2.84217094e-14 C413.049651,2.84217094e-14 421.373151,8.32349982 421.373151,18.5891496 L421.373151,373.091482 C421.373151,383.357132 413.049651,391.680632 402.782211,391.680632" id="Fill-53" fill="#080808"></path>
                <path d="M389.520102,372.658302 L200.166746,372.658302 C193.080136,372.658302 187.336026,366.914192 187.336026,359.829372 L187.336026,32.7158293 C187.336026,25.6310095 193.080136,19.8868996 200.166746,19.8868996 L389.520102,19.8868996 C396.606712,19.8868996 402.350821,25.6310095 402.350821,32.7158293 L402.350821,359.829372 C402.350821,366.914192 396.606712,372.658302 389.520102,372.658302" id="Fill-54" fill="#FFFFFF"></path>
                <path d="M329.918473,33.7200193 L257.563095,33.7200193 C251.246185,33.7200193 246.124995,28.5988294 246.124995,22.2837095 L246.124995,14.6994797 L341.358363,14.6994797 L341.358363,22.2837095 C341.358363,28.5988294 336.237173,33.7200193 329.918473,33.7200193" id="Fill-55" fill="#080808"></path>
                <rect id="Rectangle" stroke="#515151" stroke-width="1.5" x="193.75" y="211.75" width="85.5" height="51.5" rx="8"></rect>
                <rect id="Rectangle-Copy" stroke="#515151" stroke-width="1.5" x="300.75" y="211.75" width="92.5" height="51.5" rx="8"></rect>
                <path d="M385.607162,294.342224 L204.665016,294.342224 C200.374386,294.342224 196.894626,297.820194 196.894626,302.110824 L196.894626,342.221143 C196.894626,346.511773 200.374386,349.991533 204.665016,349.991533 L385.607162,349.991533 C389.897792,349.991533 393.375762,346.511773 393.375762,342.221143 L393.375762,302.110824 C393.375762,297.820194 389.897792,294.342224 385.607162,294.342224 M385.607162,295.820764 C389.074392,295.820764 391.895432,298.641804 391.895432,302.110824 L391.895432,342.221143 C391.895432,345.688373 389.074392,348.511203 385.607162,348.511203 L204.665016,348.511203 C201.197786,348.511203 198.374956,345.688373 198.374956,342.221143 L198.374956,302.110824 C198.374956,298.641804 201.197786,295.820764 204.665016,295.820764 L385.607162,295.820764" id="Fill-59" fill="#FFFFFE"></path>
                <path d="M367.171952,286.135074 C365.115242,283.893994 368.090222,280.507314 370.639182,282.454834 C397.571522,303.043414 421.385681,309.485623 438.859661,279.868284 C440.164571,277.582454 442.987401,272.373554 443.674761,269.837124 C444.958191,265.111524 449.83057,262.317334 454.55617,263.598974 C459.69347,264.991594 462.46618,270.571024 460.44348,275.523954 C449.95587,301.201504 413.790711,336.897683 367.171952,286.135074" id="Fill-63" fill="#EA8F84"></path>
                <path d="M385.607162,54.5949988 L204.665016,54.5949988 C200.374386,54.5949988 196.894626,58.0747588 196.894626,62.3653887 L196.894626,102.475708 C196.894626,106.766338 200.374386,110.244308 204.665016,110.244308 L385.607162,110.244308 C389.897792,110.244308 393.375762,106.766338 393.375762,102.475708 L393.375762,62.3653887 C393.375762,58.0747588 389.897792,54.5949988 385.607162,54.5949988 Z M385.607162,56.0771188 C389.074392,56.0771188 391.895432,58.8981587 391.895432,62.3653887 L391.895432,102.475708 C391.895432,105.942938 389.074392,108.765768 385.607162,108.765768 L204.665016,108.765768 C201.197786,108.765768 198.374956,105.942938 198.374956,102.475708 L198.374956,62.3653887 C198.374956,58.8981587 201.197786,56.0771188 204.665016,56.0771188 L385.607162,56.0771188 L385.607162,56.0771188 Z" id="Fill-72" fill="#515151"></path>
                <path d="M385.607162,134.511337 L204.665016,134.511337 C200.374386,134.511337 196.894626,137.989307 196.894626,142.281727 L196.894626,182.390256 C196.894626,186.680886 200.374386,190.160646 204.665016,190.160646 L385.607162,190.160646 C389.897792,190.160646 393.375762,186.680886 393.375762,182.390256 L393.375762,142.281727 C393.375762,137.989307 389.897792,134.511337 385.607162,134.511337 Z M385.607162,135.991667 C389.074392,135.991667 391.895432,138.812707 391.895432,142.281727 L391.895432,182.390256 C391.895432,185.857486 389.074392,188.680316 385.607162,188.680316 L204.665016,188.680316 C201.197786,188.680316 198.374956,185.857486 198.374956,182.390256 L198.374956,142.281727 C198.374956,138.812707 201.197786,135.991667 204.665016,135.991667 L385.607162,135.991667 L385.607162,135.991667 Z" id="Fill-73" fill="#515151"></path>
                <g id="Group-66" transform="translate(145.750137, 108.175068)">
                    <mask id="mask-2" fill="white">
                        <use xlink:href="#path-1"></use>
                    </mask>
                    <g id="Clip-65"></g>
                </g>
                <path d="M297.061234,161.708597 L116.119088,161.708597 C111.828458,161.708597 108.350488,158.228837 108.350488,153.938207 L108.350488,113.829678 C108.350488,109.539048 111.828458,106.059288 116.119088,106.059288 L297.061234,106.059288 C301.351864,106.059288 304.831624,109.539048 304.831624,113.829678 L304.831624,153.938207 C304.831624,158.228837 301.351864,161.708597 297.061234,161.708597" id="Fill-71" fill="#F13624"></path>
                <path d="M148.641597,151.358817 L124.449747,151.358817 C122.709867,151.358817 121.299347,149.948297 121.299347,148.208417 L121.299347,119.559467 C121.299347,117.819587 122.709867,116.409068 124.449747,116.409068 L148.641597,116.409068 C150.381477,116.409068 151.791997,117.819587 151.791997,119.559467 L151.791997,148.208417 C151.791997,149.948297 150.381477,151.358817 148.641597,151.358817" id="Fill-75" fill="#FFFFFF"></path>
                <polygon id="Fill-76" fill="#FFFFFF" points="165.002196 120.687167 245.061735 120.687167 245.061735 116.409068 165.002196 116.409068"></polygon>
                <polygon id="Fill-77" fill="#FFFFFF" points="165.002196 135.397387 288.159564 135.397387 288.159564 131.119287 165.002196 131.119287"></polygon>
                <polygon id="Fill-78" fill="#FFFFFF" points="165.002196 150.107607 288.159564 150.107607 288.159564 145.831297 165.002196 145.831297"></polygon>
                <path d="M418.118931,333.552173 L402.350821,333.552173 L402.350821,310.244583 C406.331781,311.352593 410.169541,311.859163 413.844411,311.859163 C415.294311,311.859163 416.719151,311.782193 418.118931,311.630043 L418.118931,333.552173" id="Fill-80" fill="#6D6BA1"></path>
                <path d="M402.350821,333.552173 L393.375762,333.552173 L393.375762,306.800623 C396.443822,308.298853 399.433121,309.431923 402.350821,310.244583 L402.350821,333.552173 M375.427432,294.342224 L221.832905,294.342224 C222.622295,290.889314 225.713625,288.313504 229.406395,288.313504 L369.216132,288.313504 C371.310432,290.495514 373.377882,292.498524 375.427432,294.342224" id="Fill-81" fill="#8582B1"></path>
                <path d="M393.375762,333.552173 L391.895432,333.552173 L391.895432,306.054193 C392.391262,306.311953 392.885302,306.560763 393.375762,306.800623 L393.375762,333.552173 M377.106452,295.820764 L221.641375,295.820764 C221.657485,295.314194 221.723715,294.820154 221.832905,294.342224 L375.427432,294.342224 C375.989492,294.847004 376.549762,295.341044 377.106452,295.820764" id="Fill-82" fill="#D6D5D0"></path>
                <path d="M409.605691,300.016524 C407.237521,300.016524 404.817441,299.742654 402.350821,299.216394 L402.350821,288.313504 L410.348541,288.313504 C414.639171,288.313504 418.118931,291.791474 418.118931,296.083894 L418.118931,298.720564 C415.362331,299.599454 412.523391,300.016524 409.605691,300.016524" id="Fill-85" fill="#6D6BA1"></path>
                <path d="M402.350821,299.216394 C394.909792,297.634034 387.030212,293.776584 378.814112,288.313504 L402.350821,288.313504 L402.350821,299.216394" id="Fill-86" fill="#8582B1"></path>
                <path d="M413.844411,311.859163 C410.169541,311.859163 406.331781,311.352593 402.350821,310.244583 C399.433121,309.431923 396.443822,308.298853 393.375762,306.800623 C392.885302,306.560763 392.391262,306.311953 391.895432,306.054193 C387.128662,303.564304 382.191842,300.199104 377.106452,295.820764 C376.549762,295.341044 375.989492,294.847004 375.427432,294.342224 C373.377882,292.498524 371.310432,290.495514 369.216132,288.313504 L378.814112,288.313504 C387.030212,293.776584 394.909792,297.634034 402.350821,299.216394 C404.817441,299.742654 407.237521,300.016524 409.605691,300.016524 C412.523391,300.016524 415.362331,299.599454 418.118931,298.720564 L418.118931,311.630043 C416.719151,311.782193 415.294311,311.859163 413.844411,311.859163" id="Fill-87" fill="#C7796F"></path>
                <path d="M410.348541,341.000363 L229.406395,341.000363 C225.115765,341.000363 221.637795,337.524183 221.637795,333.231763 L221.637795,293.121444 C221.637795,288.832604 225.115765,285.352844 229.406395,285.352844 L410.348541,285.352844 C414.639171,285.352844 418.118931,288.832604 418.118931,293.121444 L418.118931,333.231763 C418.118931,337.524183 414.639171,341.000363 410.348541,341.000363" id="Fill-88" fill="#F9D94F"></path>
                <path d="M261.928904,329.213173 L237.735265,329.213173 C235.997175,329.213173 234.586655,327.802653 234.586655,326.062773 L234.586655,297.412034 C234.586655,295.672154 235.997175,294.261634 237.735265,294.261634 L261.928904,294.261634 C263.668784,294.261634 265.079304,295.672154 265.079304,297.412034 L265.079304,326.062773 C265.079304,327.802653 263.668784,329.213173 261.928904,329.213173" id="Fill-89" fill="#FFFFFF"></path>
                <polygon id="Fill-90" fill="#FFFFFF" points="301.534444 299.978934 381.592192 299.978934 381.592192 295.702624 301.534444 295.702624"></polygon>
                <polygon id="Fill-91" fill="#FFFFFF" points="279.984634 314.690943 403.142001 314.690943 403.142001 310.412843 279.984634 310.412843"></polygon>
                <polygon id="Fill-92" fill="#FFFFFF" points="279.984634 329.401163 403.142001 329.401163 403.142001 325.123063 279.984634 325.123063"></polygon>
                <path d="M174.834666,343.024853 C175.142546,348.813713 178.676006,380.761632 181.135466,401.335891 C182.377726,411.746531 182.553146,419.244841 183.514376,418.969181 C185.993526,418.254971 193.731696,350.757653 193.266296,342.040353 C192.800896,333.324843 188.297256,326.479883 183.208286,326.750173 C178.117526,327.024043 174.369266,334.309343 174.834666,343.024853" id="Fill-93" fill="#EA8F84"></path>
                <path d="M187.513236,402.540561 C186.625396,402.585311 181.468406,403.208231 180.516126,403.403341 C177.428376,382.734212 173.767826,348.117403 174.091816,342.040353 C174.127616,341.387003 174.184896,340.742603 174.263656,340.110733 C175.355556,331.436393 175.412836,322.654653 173.438466,314.137833 C168.952726,294.775404 165.478336,273.769754 165.102436,268.034594 C164.356006,256.648405 170.921726,246.950185 179.766116,246.370225 C188.610506,245.792055 195.895806,253.644785 197.308116,264.964744 C200.721646,292.289094 187.563356,402.087691 187.513236,402.540561" id="Fill-94" fill="#196997"></path>
                <path d="M196.090916,314.871733 L196.135666,314.909323 C197.689386,293.692454 198.487726,274.405204 197.308116,264.964744 C195.895806,253.644785 188.610506,245.792055 179.766116,246.370225 C170.921726,246.950185 164.356006,256.648405 165.102436,268.034594 C165.193726,269.414684 165.465806,271.689774 165.886456,274.607474 C179.030426,279.753724 188.426136,291.823694 191.007316,306.088203 C191.626656,309.519633 193.409496,312.643183 196.090916,314.871733" id="Fill-95" fill="#24568C"></path>
                <path d="M180.421256,402.612161 C180.421256,402.612161 180.949306,417.474531 179.730316,420.306311 C178.511326,423.138091 178.214186,426.340401 182.096696,426.311952 C185.904026,426.288491 195.043766,426.279541 196.361206,426.238371 C198.808136,426.161401 200.974036,425.880371 200.923916,424.260421 C200.875586,422.638681 189.569946,422.139271 187.411206,420.506791 C185.250676,418.872521 186.841986,403.403341 186.841986,403.403341 L180.421256,402.612161" id="Fill-96" fill="#EA8F84"></path>
                <path d="M195.274676,422.441781 C193.121306,423.220431 190.828316,423.667931 188.451196,423.667931 C185.188026,423.667931 182.082376,422.855271 179.300716,421.455491 C178.509536,423.936431 178.735076,426.336821 182.096696,426.311761 C185.904026,426.288491 195.043766,426.279541 196.361206,426.238371 C198.808136,426.161401 200.974036,425.880371 200.923916,424.260421 C200.902436,423.476401 198.249656,422.955511 195.274676,422.441781" id="Fill-97" fill="#8F3A27"></path>
                <path d="M194.653546,345.072613 C194.963216,350.859683 198.494886,382.809392 200.952556,403.383651 C202.198396,413.792501 202.372026,421.292601 203.333256,421.015151 C205.812406,420.302731 213.550575,352.803622 213.085175,344.088113 C212.619775,335.372603 208.116136,328.527643 203.027166,328.797933 C197.936406,329.070013 194.188146,336.357103 194.653546,345.072613" id="Fill-98" fill="#EA8F84"></path>
                <path d="M207.332116,404.588321 C206.442486,404.631281 201.285496,405.255991 200.335006,405.449311 C197.247256,384.780182 193.586706,350.163373 193.910696,344.088113 C193.946496,343.434763 194.003776,342.788573 194.084326,342.158493 C195.172646,333.482363 195.231716,324.702413 193.257346,316.183803 C188.771606,296.823164 185.297216,275.815724 184.921316,270.080564 C184.174886,258.696164 190.740606,248.997945 199.584996,248.417985 C208.429386,247.838025 215.714685,255.690755 217.128785,267.010714 C220.540525,294.336854 207.384026,404.135451 207.332116,404.588321" id="Fill-99" fill="#1A86B5"></path>
                <path d="M200.240136,404.659921 C200.240136,404.659921 200.768186,419.522291 199.549196,422.354071 C198.330206,425.185851 197.873756,428.531361 201.915576,428.359521 C205.719326,428.200211 213.097705,427.953191 214.411565,427.813571 C217.692635,427.468101 221.487435,427.586241 221.439105,425.964501 C221.388985,424.344551 209.388826,424.187031 207.228296,422.554551 C205.069556,420.920281 206.660866,405.449311 206.660866,405.449311 L200.240136,404.659921" id="Fill-100" fill="#EA8F84"></path>
                <path d="M214.053565,424.119011 C211.909145,424.890501 209.625106,425.332631 207.256936,425.332631 C204.375036,425.332631 201.609486,424.707921 199.083796,423.598121 C198.296196,426.077271 198.457296,428.506301 201.915576,428.359521 C205.719326,428.200211 213.097705,427.953191 214.411565,427.813571 C217.692635,427.468101 221.487435,427.586241 221.439105,425.964501 C221.412255,425.065921 217.714115,424.616631 214.053565,424.119011" id="Fill-101" fill="#BC4D2C"></path>
                <path d="M196.914316,174.772017 C194.274066,174.772017 191.422596,173.452786 187.491756,170.019566 C185.236356,168.046986 183.564496,164.610186 183.564496,162.286767 L183.564496,149.445307 L203.338626,149.445307 C203.338626,149.445307 204.822536,156.263417 203.381586,163.031407 C202.302216,168.107846 198.987136,174.773806 196.914316,174.772017" id="Fill-102" fill="#F1B4A7"></path>
                <path d="M127.546447,171.517796 C127.437257,170.207516 128.411017,169.058336 129.721297,168.949146 C130.897327,168.850696 131.944477,169.625766 132.223717,170.733776 L132.232667,170.765996 C134.176607,178.396766 136.378307,185.941616 139.204717,193.024646 C144.984627,207.724126 150.039587,209.825586 151.987107,211.125126 C152.235917,211.196725 153.207887,211.497445 153.463857,211.477755 C159.075507,212.770135 168.873966,200.531906 170.579836,191.050276 C170.581626,190.547286 171.800616,187.241156 171.664576,187.634956 C173.114476,183.474996 177.662866,181.278666 181.821036,182.728566 C207.047506,191.522836 136.480337,279.145124 127.546447,171.517796" id="Fill-103" fill="#F1B4A7"></path>
                <path d="M169.724216,262.652064 C176.950446,270.945134 218.673555,274.405204 218.673555,274.405204 C221.754145,270.832364 207.403716,230.038265 207.403716,230.038265 C207.403716,230.038265 214.316695,200.596346 214.007025,189.963746 C213.878145,185.576456 210.287406,182.094906 205.898326,182.094906 L179.420646,182.094906 C175.339446,182.094906 171.942026,185.209506 171.607296,189.278176 C170.912776,197.694756 181.908746,229.116415 181.908746,229.116415 C181.908746,229.116415 163.475327,255.481325 169.724216,262.652064" id="Fill-104" fill="#F1B4A7"></path>
                <path d="M207.403716,230.038265 C207.403716,230.038265 214.288055,199.737146 213.987335,189.283546 C213.870985,185.270366 210.586336,182.094906 206.573156,182.094906 L202.645896,182.094906 C201.151246,185.563926 197.982946,188.241766 193.056866,188.241766 C188.137946,188.241766 184.969646,185.563926 183.471416,182.094906 L179.785806,182.094906 C183.791826,190.672586 182.350876,201.987176 175.459376,208.590486 C178.387816,218.938475 181.908746,229.116415 181.908746,229.116415 C181.908746,229.116415 162.447867,258.510004 165.285016,262.870444 C171.285096,272.090734 218.673555,274.405204 218.673555,274.405204 C221.754145,269.910514 207.403716,230.038265 207.403716,230.038265" id="Fill-105" fill="#E9844D"></path>
                <polyline id="Fill-106" fill="#F1B4A7" points="188.764446 183.917126 200.775346 182.656966 196.975176 169.512996 189.204786 170.474226 188.764446 183.917126"></polyline>
                <path d="M189.204786,170.474226 L196.975176,169.512996 L198.160156,173.615676 C196.422066,175.577516 194.188146,179.812656 191.359946,179.812656 C190.463156,179.812656 189.646916,179.558476 188.911226,179.093076 L189.204786,170.474226" id="Fill-107" fill="#EA8F84"></path>
                <path d="M186.913586,143.266227 L193.574176,142.843787 C195.478736,142.723857 197.293796,142.106307 198.856466,141.084217 C201.120816,139.600307 204.119066,139.854487 205.862526,141.927307 C207.745606,144.166597 208.696096,147.266877 204.487806,150.463817 C202.397086,152.051547 199.099906,150.649977 197.016346,151.482327 L196.629706,151.480537 L190.719126,151.858227 C188.651676,151.990687 187.337816,153.807537 187.337816,155.878567 C187.337816,157.135147 186.458926,158.747937 186.458926,158.747937 L183.696956,155.337987 L181.108616,153.240107 C180.546556,152.785447 180.201086,152.117777 180.154546,151.396407 L180.127696,150.975757 C179.873516,146.973317 182.911146,143.522197 186.913586,143.266227" id="Fill-108" fill="#924288"></path>
                <path d="M261.033904,160.981857 C261.033904,160.981857 257.795795,167.148406 259.349514,168.761196 C260.905024,170.373986 262.243944,171.170536 264.674764,168.995686 C267.107374,166.822626 269.407524,162.680567 270.288204,159.920387 C271.170674,157.160207 270.696324,151.911927 270.273884,151.383877 C268.738064,149.459627 267.665854,154.625567 267.025034,157.102927 C266.382424,159.578497 265.412244,162.311827 264.307814,161.667427 C263.203384,161.021237 264.789324,156.370817 263.767234,155.212687 C262.746934,154.054557 261.033904,160.981857 261.033904,160.981857" id="Fill-109" fill="#F1B4A7"></path>
                <path d="M129.647907,161.112527 C129.647907,161.112527 132.715967,167.364996 131.119287,168.933036 C129.520817,170.502866 128.160417,171.263616 125.790457,169.024326 C123.418707,166.783246 121.233117,162.580327 120.427617,159.796877 C119.620327,157.015217 120.239667,151.781257 120.674637,151.263947 C122.264157,149.382657 123.193167,154.577237 123.767757,157.070707 C124.340557,159.562387 125.235557,162.322567 126.357887,161.706807 C127.480217,161.092837 126.023157,156.399457 127.073887,155.269967 C128.126407,154.140477 129.647907,161.112527 129.647907,161.112527" id="Fill-110" fill="#F1B4A7"></path>
                <path d="M226.476165,206.249166 C233.485805,214.254045 238.839695,210.043966 244.936435,201.228216 C247.508665,196.835556 250.709185,193.146366 259.285074,168.993896 L259.295814,168.961676 C260.242724,166.298156 264.238004,167.236116 263.915804,170.032096 C255.488485,243.561715 215.575065,231.992945 203.666196,199.053366 C202.826686,196.615386 202.037296,194.213206 201.958536,190.448836 C201.863666,185.866436 205.500946,182.075216 210.083346,181.980346 C214.665745,181.885476 218.458755,185.522756 218.551835,190.105156 C218.618065,193.219756 221.643165,200.906016 226.476165,206.249166" id="Fill-111" fill="#F1B4A7"></path>
                <path d="M215.535685,192.621896 C213.097705,190.765666 211.989695,187.744146 212.165115,184.751266 C212.533855,178.402136 208.731896,172.760056 203.854146,168.272526 C200.471046,165.161506 198.860046,160.571947 199.384516,156.007447 L200.061136,150.107607 L180.113376,150.107607 C180.113376,155.008627 177.843656,159.667997 173.884176,162.555267 C169.430656,165.802326 165.728936,170.479596 163.496807,176.232656 C158.055207,190.266256 163.350027,205.474096 175.298276,211.003406 C172.149666,224.276255 178.024446,237.658295 189.664816,242.172675 C202.534916,247.163195 217.538695,239.425025 223.177195,224.886645 C227.938595,212.609035 224.480315,199.429266 215.535685,192.621896" id="Fill-112" fill="#924288"></path>
                <path d="M461.53896,402.773261 C457.8086,402.393781 455.54604,398.486212 457.0568,395.052992 C463.33254,380.777742 468.41256,364.979202 469.52952,359.005972 C471.80282,346.848293 464.09866,335.207923 452.32404,333.006223 C440.549421,330.806313 436.724191,339.197833 434.452681,351.355513 C432.682371,360.821032 427.951401,396.925332 431.488441,413.511471 C431.475911,413.697631 434.211031,427.000911 447.56622,427.000911 C456.58603,427.000911 534.386589,424.188821 534.499488,417.191711 C534.590649,411.674931 486.36984,405.297161 461.53896,402.773261" id="Fill-113" fill="#3C4946"></path>
                <path d="M459.57354,389.090502 C464.65535,376.607042 468.5665,364.155802 469.52952,359.005972 C471.80282,346.848293 464.09866,335.207923 452.32404,333.006223 C440.549421,330.806313 436.724191,339.197833 434.452681,351.355513 C434.395401,351.661603 434.334541,351.998122 434.271891,352.356122 C454.96966,364.814522 457.57769,386.224712 459.57354,389.090502" id="Fill-114" fill="#373F3D"></path>
                <path d="M599.644617,421.756211 C595.114127,418.680991 589.901647,416.728101 584.579978,415.467941 C584.325798,415.408871 584.055508,415.453621 583.837128,415.593241 C583.004778,416.132031 582.365748,416.640391 582.065028,416.889201 C581.932568,416.996601 581.780418,417.064621 581.615738,417.095051 C574.319698,418.364161 565.989038,417.551501 557.413148,416.087281 C556.591538,415.945871 555.999048,416.848031 556.460868,417.540761 L561.386948,424.929881 C561.558788,425.191221 561.850558,425.346951 562.162018,425.352321 C564.881028,425.384541 578.087648,425.556381 585.895628,425.923331 C592.148097,426.218681 597.582537,426.163191 602.098707,425.951971 C602.925687,425.914381 603.315907,424.910191 602.728787,424.323071 C601.799777,423.390481 600.781267,422.525911 599.644617,421.756211" id="Fill-115" fill="#F1B4A7"></path>
                <path d="M598.382667,418.220961 L590.798437,414.143341 C587.488727,412.437471 582.670048,416.371891 581.970158,416.967961 C582.140208,416.962591 582.303098,416.941111 582.473148,416.941111 C589.182067,416.941111 595.271647,420.293781 599.121937,425.380961 C599.528267,425.919751 600.151187,426.268801 600.827807,426.299231 C607.735417,426.612481 612.734887,426.707351 615.428837,426.737881 C616.918117,426.753891 617.603687,424.822481 616.395437,423.952541 C612.373307,421.058111 600.996067,419.805111 598.382667,418.220961" id="Fill-116" fill="#3C4946"></path>
                <path d="M497.798989,402.404521 C493.572799,402.001771 490.48147,398.260672 490.87169,394.032692 C492.42183,377.271132 492.13901,358.886042 491.08649,352.653262 C489.02978,340.457993 477.78679,332.186403 465.97279,334.180463 C454.16058,336.172733 453.46606,345.371543 455.52456,357.566812 C457.11587,366.996532 464.08613,403.702271 472.62622,418.951281 L472.77121,419.212621 C475.23425,423.528311 477.82259,426.050421 480.45031,425.606501 L480.46821,425.601131 C482.61084,426.451381 565.494998,425.402441 565.494998,425.402441 C565.494998,425.402441 565.729488,419.128491 566.083908,416.894571 C549.918418,409.917151 515.439439,404.079961 497.798989,402.404521" id="Fill-117" fill="#516263"></path>
                <path d="M432.120297,285.283034 C434.275471,282.415454 442.654461,271.219004 444.009491,268.346054 L444.075721,268.202854 C444.184911,267.973734 444.304841,267.746404 444.435511,267.524444 C446.90392,263.307204 452.32404,261.891314 456.54128,264.359724 C460.75852,266.828134 462.17441,272.248254 459.706,276.465494 C457.38974,280.421394 455.1773,283.639814 452.66056,287.021124 C450.96006,289.251464 449.1629,291.406624 447.31204,293.527774 C446.07336,292.077874 432.104201,285.304514 432.120297,285.283034" id="Fill-118" fill="#62C0C6"></path>
                <path d="M471.08682,309.752333 C472.92336,310.112123 474.76169,310.473703 476.60002,310.833493 C483.05297,312.100813 489.06021,307.153253 489.06379,300.576794 C489.06558,289.704334 489.1873,279.814584 489.29291,273.204114 C489.36809,268.530424 485.71291,264.655074 481.04459,264.445644 L452.87536,263.172954 C448.53282,262.976054 444.768451,266.126454 444.217131,270.436774 C443.458171,276.352724 443.098381,285.320624 442.373431,295.122664 C441.985001,300.369154 445.522041,305.135923 450.68082,306.163383 C457.44702,307.511253 464.3242,308.429523 471.08682,309.752333" id="Fill-119" fill="#F1B4A7"></path>
                <path d="M452.60686,263.160424 L457.18389,263.366274 C458.61231,267.128854 461.854,270.132474 467.08617,270.366964 C472.32729,270.603244 475.82674,267.905714 477.58452,264.288124 L481.76059,264.476074 C486.03153,264.669394 489.37525,268.204644 489.30544,272.479164 C489.12286,283.616544 488.87763,305.084013 489.27859,324.521623 C489.64196,342.115533 495.582969,357.112152 492.09068,361.748252 C492.09068,361.748252 445.131821,364.533492 433.518301,352.069722 C435.784441,340.457993 437.141261,325.497173 439.126371,310.072743 C441.104321,294.721704 443.112701,279.059204 444.249351,270.179014 C444.782771,266.017264 448.41647,262.972474 452.60686,263.160424" id="Fill-120" fill="#37B4BD"></path>
                <path d="M465.72398,255.309485 L466.26098,255.373925 C470.35471,255.873335 474.07612,252.957425 474.57374,248.863695 L475.90371,237.908895 L467.95432,236.944085 L465.72398,255.309485" id="Fill-121" fill="#1A4D79"></path>
                <path d="M464.19353,266.763694 L474.742,264.519034 L466.84452,250.431735 L457.53831,254.425225 L460.01925,264.168194 C460.49002,266.015474 462.33193,267.157494 464.19353,266.763694" id="Fill-122" fill="#F1B4A7"></path>
                <path d="M457.53831,254.425225 L466.84452,250.431735 L470.0164,256.089925 C468.56113,259.152614 466.79261,262.548244 463.28063,263.566754 C462.16546,263.888954 460.91425,263.801244 459.83309,263.487994 L457.53831,254.425225" id="Fill-123" fill="#EA8F84"></path>
                <path d="M458.15407,260.695594 L458.15407,260.695594 C464.88626,261.513624 471.00627,256.718215 471.82251,249.987815 L473.4711,236.408875 L452.5639,233.870655 C452.5639,233.870655 451.27689,244.471035 451.93203,251.810035 C452.42428,257.314285 454.72264,260.280314 458.15407,260.695594" id="Fill-124" fill="#F1B4A7"></path>
                <polyline id="Fill-125" fill="#1A4D79" points="470.02356 241.274095 473.95261 241.752025 473.73602 243.533075 469.80876 243.056935 470.02356 241.274095"></polyline>
                <path d="M468.58798,246.989565 C468.26578,249.636975 469.27534,251.938915 470.8398,252.130445 C472.40426,252.318395 474.55047,249.055225 474.87267,246.407815 C475.19308,243.756825 473.56776,242.723995 472.0033,242.536045 C470.43884,242.344515 468.91018,244.338575 468.58798,246.989565" id="Fill-126" fill="#F1B4A7"></path>
                <path d="M450.43559,239.278245 C450.15098,237.529415 450.26554,235.737625 450.76853,234.035335 C450.76853,234.035335 451.42009,227.963655 453.93683,227.099085 C456.23161,226.311485 459.75433,228.105065 462.04553,228.903405 C463.72097,229.488735 469.09992,229.759025 469.09992,229.759025 C473.34043,230.270965 476.36195,234.124835 475.84822,238.365345 L475.64774,240.010355 L471.78671,242.786645 L470.40483,245.856495 L470.12738,245.822485 C468.7813,245.661385 467.80754,244.476405 467.88451,243.142855 C468.0116,240.941155 466.72459,238.927405 464.53363,238.660695 L458.27042,237.901735 C454.45772,237.438125 452.22917,239.246025 451.8837,242.095705 L451.78525,244.531895 L450.43559,239.278245" id="Fill-127" fill="#1A4D79"></path>
                <path d="M492.49522,275.046024 C487.12343,309.011273 451.96962,347.086363 391.353062,343.644193 C389.953282,343.563643 388.882862,342.364343 388.963412,340.964563 C389.033222,339.727673 389.981922,338.750333 391.163322,338.592813 C432.204441,333.079613 466.89822,312.929583 475.00334,272.527494 C476.174,266.688514 481.00342,264.105544 485.51422,265.011284 C490.16822,265.945664 493.223749,270.399184 492.49522,275.046024" id="Fill-128" fill="#F1B4A7"></path>
                <path d="M468.98178,288.501454 C473.02002,279.605154 474.36968,274.066894 474.40548,273.929064 C474.40548,273.929064 474.78675,272.667114 474.89057,272.237514 C475.73724,268.738064 477.64001,266.616914 477.64001,266.616914 C477.64001,266.616914 481.4903,262.460534 488.87047,265.951034 C494.764939,268.736274 493.227329,275.781714 493.227329,275.781714 C493.037589,276.762634 493.785809,284.289584 484.45275,298.308864 C484.45275,298.308864 468.41435,289.749084 468.98178,288.501454" id="Fill-129" fill="#62C0C6"></path>
                <path d="M384.871472,337.033723 C384.871472,337.033723 392.282072,336.707943 393.132322,338.936493 C393.980782,341.165043 394.141882,342.817213 390.944942,344.175823 C387.748002,345.532643 382.712732,345.870953 379.653622,345.468203 C376.592722,345.069033 371.750772,342.231883 371.433942,341.583903 C370.275812,339.233633 375.740682,340.540333 378.418522,341.046903 C381.096362,341.551683 384.169792,341.855983 384.049862,340.497373 C383.926352,339.140553 378.726402,338.560593 378.074842,337.049833 C377.419702,335.542653 384.871472,337.033723 384.871472,337.033723" id="Fill-130" fill="#F1B4A7"></path>
            </g>
        </g>
    </g>
</svg>