<svg xmlns="http://www.w3.org/2000/svg" xmlns:xlink="http://www.w3.org/1999/xlink" width="426" height="618" viewBox="0 0 426 618">
    <defs>
        <path id="prefix__a" d="M37.23.016c-2.067.01-2.547 2.932-.516 3.574.136.033.255.063.398.07 2.412.207 4.514.564 6.868 1.129 2.15.537 3.24-2.571 1.12-3.465-.08-.029-.152-.054-.233-.075C42.326.64 39.958.22 37.35.018l-.097-.002h-.023zm-11.164.989c-2.39.547-5.218 1.804-7.33 3.05-1.838 1.122-.585 3.959 1.525 3.293.12-.044.233-.092.345-.16 1.976-1.168 4.058-2.018 6.268-2.629 2.068-.62 1.56-3.577-.484-3.578-.104 0-.212.008-.324.024zm27.372 7.082c.16.14.281.233.48.327 1.704.816 3.34 1.678 4.978 2.618l-.005-.003 1.309.762c1.609.983 3.635-.992 2.322-2.742-.154-.178-.283-.287-.486-.411L60.7 7.86l.01.006c-1.702-.978-3.464-1.928-5.245-2.757-.267-.126-.533-.183-.786-.183-1.459 0-2.528 1.875-1.241 3.161zm-43.034 3.405c-.11.095-.197.186-.285.3-1.547 2.045-2.861 4.257-3.94 6.582-.882 1.861 1.637 3.573 3.049 1.944.11-.136.188-.255.265-.416.99-2.108 2.137-4.06 3.543-5.917.993-1.299-.116-2.934-1.466-2.934-.384 0-.787.132-1.166.44zm58.77 5.396c.154.176.283.286.486.41l6.307 3.672c1.608.982 3.634-.992 2.322-2.743-.154-.177-.283-.286-.486-.41l-6.307-3.672c-.296-.181-.608-.262-.91-.262-1.332 0-2.482 1.577-1.412 3.005zm15.766 9.178c.154.178.283.287.486.412l6.307 3.672c1.609.983 3.635-.993 2.323-2.743-.154-.177-.283-.287-.486-.411l-6.308-3.672c-.296-.181-.607-.262-.909-.262-1.333 0-2.483 1.577-1.413 3.004zM2.837 28.851c-.043.12-.079.218-.102.343-.483 2.437-.81 4.984-.975 7.462-.069 1.438 1.378 2.38 2.66 1.738.558-.294.95-.868.98-1.498.165-2.337.46-4.704.916-7.003.25-1.313-.792-2.166-1.833-2.166-.659 0-1.317.341-1.646 1.124zm97.87 6.395c.154.178.283.287.486.412l6.307 3.671c1.609.983 3.635-.992 2.322-2.742-.154-.177-.282-.287-.486-.41l-6.307-3.673c-.296-.181-.607-.262-.909-.262-1.333 0-2.484 1.577-1.413 3.004zm15.767 9.18c.154.178.283.287.486.411l6.307 3.672c1.609.983 3.635-.992 2.322-2.742-.153-.177-.283-.287-.486-.411l-6.307-3.672c-.296-.182-.608-.262-.909-.262-1.333 0-2.483 1.577-1.413 3.004zM1.592 47.283c-.03.147-.051.268-.051.423l-.048 7.298c0 2.13 3.043 2.55 3.597.447.029-.148.051-.269.051-.423l.048-7.298c0-1.173-.923-1.828-1.844-1.828-.753 0-1.504.436-1.753 1.381zm130.65 6.323c.153.178.282.287.486.411l6.307 3.672c1.608.983 3.635-.993 2.322-2.742-.154-.177-.283-.287-.486-.411l-6.307-3.672c-.297-.181-.608-.262-.91-.262-1.333 0-2.483 1.577-1.412 3.004zM1.473 65.528c-.03.147-.051.268-.051.423l-.048 7.298c0 2.13 3.043 2.55 3.597.446.029-.147.051-.268.051-.423l.048-7.298c0-1.173-.922-1.827-1.844-1.827-.752 0-1.504.436-1.753 1.381zm-.119 18.244c-.029.148-.051.269-.051.424l-.047 7.298c0 2.13 3.042 2.55 3.596.446.03-.148.052-.268.052-.423l.047-7.298c0-1.173-.923-1.827-1.844-1.827-.753 0-1.504.435-1.753 1.38zm-.118 18.245c-.03.147-.052.268-.052.423l-.047 7.298c0 2.13 3.043 2.55 3.597.446.03-.147.051-.268.051-.423l.047-7.297c0-1.174-.922-1.828-1.844-1.828-.752 0-1.503.436-1.752 1.381zm-.118 18.245c-.03.147-.052.268-.052.423l-.047 7.297c0 2.131 3.043 2.55 3.597.447.03-.147.051-.268.051-.423l.048-7.298c0-1.173-.923-1.827-1.845-1.827-.752 0-1.504.435-1.752 1.38zM1 138.506c-.03.148-.052.268-.052.423l-.047 7.298c0 2.131 3.043 2.55 3.597.447.029-.148.052-.269.052-.424l.047-7.297c0-1.173-.923-1.828-1.845-1.828-.752 0-1.503.436-1.752 1.381zm-.118 18.245c-.03.147-.052.268-.052.423l-.047 7.298c0 2.13 3.043 2.55 3.597.446.03-.147.052-.268.052-.423l.047-7.297c0-1.174-.923-1.828-1.845-1.828-.752 0-1.503.436-1.752 1.381zm-.118 18.245c-.03.147-.051.268-.051.422l-.047 7.298c0 2.131 3.042 2.55 3.596.447.03-.147.052-.268.052-.423l.047-7.298c0-1.173-.923-1.828-1.845-1.828-.752 0-1.503.436-1.752 1.382zM.646 193.24c-.029.147-.052.268-.052.422l-.047 7.298c0 2.13 3.043 2.55 3.597.446.03-.147.052-.268.052-.422l.047-7.298c0-1.173-.923-1.827-1.845-1.828-.752 0-1.503.436-1.752 1.382zm-.118 18.243c-.029.147-.051.268-.051.423l-.048 7.298c0 2.13 3.044 2.55 3.597.446.03-.147.052-.268.052-.423l.047-7.297c0-1.174-.923-1.828-1.844-1.828-.752 0-1.504.436-1.753 1.381zm-.117 18.244c-.03.147-.052.267-.052.423l-.047 7.297c0 2.13 3.043 2.55 3.596.446.03-.147.052-.268.052-.423l.047-7.297c0-1.173-.923-1.827-1.844-1.827-.753 0-1.504.435-1.752 1.38zm-.187 18.757c.107 2.472.308 4.937.582 7.396.268 1.976 2.95 2.206 3.56.323.064-.247.1-.48.066-.733-.268-2.373-.46-4.766-.564-7.152-.028-.91-.787-1.685-1.695-1.737-.04-.002-.08-.004-.12-.004-1.045 0-1.863.847-1.829 1.907zm3.552 16.22c-1.098.104-1.834 1.1-1.628 2.183.49 2.425 1.074 4.829 1.726 7.214.574 1.91 3.259 1.72 3.568-.235.025-.254.024-.49-.05-.734-.633-2.303-1.196-4.636-1.67-6.977-.16-.837-.934-1.46-1.776-1.46-.056 0-.113.003-.17.009zm3.42 19.26c0 .274.028.446.118.702.869 2.316 1.809 4.588 2.8 6.853 1.036 2.187 4.268.734 3.333-1.484-.98-2.163-1.885-4.433-2.72-6.658-.277-.79-.979-1.171-1.685-1.171-.89 0-1.788.606-1.846 1.757zm7.808 17.51c1.178 2.168 2.407 4.297 3.694 6.402.448.734 1.37 1.058 2.178.76 1.086-.4 1.534-1.683.93-2.672-1.257-2.045-2.454-4.13-3.6-6.239-.314-.567-.875-.916-1.518-.947l-.099-.003c-1.357 0-2.252 1.497-1.585 2.699zm9.578 15.035c.072.228.144.382.284.583 1.451 1.991 2.966 3.95 4.53 5.855.528.652 1.464.851 2.22.473 1.052-.525 1.34-1.878.596-2.794-1.521-1.842-2.994-3.758-4.4-5.688-.368-.522-.899-.75-1.427-.75-1.085 0-2.16.96-1.803 2.321zm12.386 12.001c-.832.676-.927 1.936-.158 2.704 1.763 1.797 3.574 3.394 5.378 5.118.73.64 1.816.604 2.503-.084.737-.737.696-1.965-.09-2.652-1.783-1.59-3.517-3.238-5.192-4.943-.357-.358-.833-.544-1.309-.544-.4 0-.799.13-1.132.401z"/>
        <path id="prefix__c" d="M40.371 2.858c-4.017 3.395-6.547 13.603-6.573 18.276-.008 1.33-.01 2.037-.009 2.386l.03.042c.01-.116.02-.183.031.045l-.031-.045-.006.076c-.013.175-.022.35-.024-.118-3.296-4.672-6.281-7.96-11.367-10.773-5.117-2.831-11.538-2.92-15.53.457-3.982 3.37-6.477 9.694-6.556 18.2-.079 8.506 2.276 17.63 6.181 25.459 3.913 7.847 9.377 14.42 15.472 17.87 11.18 6.323 22.427 12.683 33.727 19.08 11.338 6.418 22.764 12.88 34.211 19.359 6.267 3.546 11.966 3.223 16.077-.204 4.124-3.437 6.679-9.965 6.659-18.732-.02-8.767-2.608-18.1-6.73-26.097-4.112-7.977-10.741-15.162-16.004-18.072-5.23-2.893-8.283-2.924-11.667-1.919-.005.465-.013.275-.025.085l-.005-.076-.032.01c.013-.223.024-.14.032-.01l.03-.009c.004-.348.007-1.06.008-2.41.006-4.728-2.498-17.81-6.532-25.664-4.024-7.835-9.568-14.354-15.69-17.701C53.193.813 50.467.075 47.964.075c-2.869 0-5.447.97-7.594 2.783"/>
        <path id="prefix__e" d="M9.958 1.917C7.34 3.438 4.716 5.053 2.066 6.657-13.783 16.245 74.51 67.378 77.87 69.663l75.66 35.417c-5.984 23.784 19.657 33.947 26.321 45.593l-7.927 195.181c1.574 37.192-8.006 168.014 17.808 179.03l7.525-4.524c4.742-2.756 7.708-8.612 7.733-16.931l.63-367.731c.045-16.474-11.546-37.076-26.323-45.59L28.744 3.754C25.254 1.741 20.961.142 16.791.142c-2.375 0-4.71.52-6.833 1.775"/>
        <path id="prefix__h" d="M8.196 2.008C3.619 4.83.794 10.622.772 18.777l-.63 367.731c-.048 16.744 11.733 37.168 26.322 45.592l150.55 86.351c14.572 8.414 26.448 1.646 26.495-15.097l.628-367.731c.047-16.746-11.75-37.179-26.32-45.592L27.263 3.679C23.008 1.221 18.984.057 15.418.057c-2.703 0-5.144.67-7.222 1.951"/>
        <path id="prefix__k" d="M.428.01l111.496 59.701c10.014 5.784 15.044 23.25 15.013 34.762l-.431 57.774c-.034 11.51-8.196 16.162-18.213 10.379L.005 99.572.428.011z"/>
        <path id="prefix__n" d="M.79 12.574L.37 68.31C.34 79.413 8.152 92.957 17.826 98.542l120.05 69.898c9.664 5.58 17.539 1.092 17.57-10.012l.416-55.735c.032-11.105-7.792-24.653-17.453-30.233L18.356 2.562C15.534.932 12.866.161 10.502.161 4.762.16.811 4.709.789 12.574"/>
        <path id="prefix__q" d="M20.89 2.981L61.849 26.23l.79 72.272-7.858 2.503L20.277 81.42C9.103 74.968.08 59.323.115 46.498l.483-31.952C.634 1.719 9.718-3.471 20.89 2.981z"/>
        <path id="prefix__s" d="M.445 12.598L.027 40.262c-.031 11.102 7.78 24.646 17.455 30.232l38.346 21.767c9.664 5.579 17.539 1.091 17.57-10.012l.416-27.663c.032-11.104-7.792-24.653-17.454-30.233L18.012 2.587C15.19.957 12.522.185 10.158.185 4.418.185.467 4.734.445 12.598"/>
        <path id="prefix__u" d="M22.258 3.478c13.1 7.574 24.542 25.461 25.544 39.936 1.004 14.484-8.811 20.074-21.912 12.5C12.78 48.334 1.348 30.461.345 15.977"/>
        <path id="prefix__v" d="M17.357 2.322l119.701 68.632.01 110.046-7.907 4.45-112.304-64.176C7.726 116.002.352 103.22.382 92.74l.394-80.968C.806 1.291 8.228-2.95 17.357 2.322z"/>
        <path id="prefix__y" d="M7.312.524C5.538 1.09 1.415 2.231.416 4.086c-.926 1.716 1.167 3.888 1.16 6.557l-.354 72.054c-.026 9.38 6.574 20.825 14.749 25.545l139.819 80.696c1.718.992.865 3.033 2.402 3.298 2.186.378 6.647-1.376 8.232-2.336 2.594-1.57 4.198-4.825 4.211-9.422l.352-72.054c.026-9.382-6.584-20.83-14.747-25.545L16.418 2.183C14.034.806 11.78.154 9.782.154c-.876 0-1.703.126-2.47.37"/>
        <path id="prefix__B" d="M.027 16.89C-.014 31.911 10.536 50.196 23.61 57.745c13.061 7.54 23.69 1.483 23.733-13.54.043-15.009-10.517-33.301-23.58-40.842C19.947 1.161 16.34.118 13.145.118 5.391.117.06 6.26.027 16.889"/>
        <path id="prefix__E" d="M.194.36l27.291 15.426C37.998 21.858 46.511 36.6 46.477 48.683l-.453 54.29c-.034 12.082-8.603 16.965-19.118 10.894L.194 98.768V.36z"/>
        <path id="prefix__H" d="M.516 12.553L.097 59.868C.067 70.97 7.88 84.514 17.553 90.1l51.122 28.897c9.663 5.58 17.538 1.092 17.57-10.012l.415-47.313c.032-11.105-7.792-24.654-17.453-30.233L18.083 2.542C15.262.912 12.593.14 10.23.14 4.49.14.538 4.688.516 12.553"/>
        <path id="prefix__J" d="M7.583 1.213c40.697 23.342 81.31 47.505 122.01 70.85 3.836 2.216 6.943 7.595 6.93 12.005l-.245 74.079c-.013 4.409-3.14 6.19-6.978 3.975-40.698-23.344-81.317-47.51-122.01-70.85C3.45 89.055.347 83.678.36 79.269L.607 5.19C.619.78 3.742-1.005 7.583 1.213z"/>
        <path id="prefix__M" d="M5.022.459L.352 2.794 3.04 67.226c-.012 4.167 2.92 9.25 6.55 11.345 38.456 22.058 76.565 47.823 115.028 69.884 1.21-.61 4.616-2.078 5.48-2.855.865-.777 1.387-2.087 1.392-3.828L131.3 79.35c.012-4.166-2.924-9.25-6.549-11.345C86.286 45.943 47.905 23.108 9.444 1.05 8.385.437 7.384.147 6.496.147c-.538 0-1.034.106-1.474.312"/>
        <path id="prefix__P" d="M.268 4.697l.188 62.419c-.012 4.167 2.92 9.25 6.55 11.346 38.457 22.057 76.844 44.895 115.307 66.956 3.625 2.094 6.581.41 6.593-3.756l-.188-62.42c.011-4.168-2.924-9.251-6.55-11.346C83.704 45.834 45.322 22.999 6.861.939 5.802.328 4.801.04 3.914.04 1.76.038.277 1.745.268 4.696"/>
        <path id="prefix__S" d="M.102 2.157l.078 36.74c-.005 1.726 1.21 3.833 2.714 4.701 36.62 21.006 73.224 39.208 109.846 60.212 1.502.867 2.728.17 2.732-1.557l-.078-33.933c.004-1.727-1.213-3.833-2.715-4.702C76.059 42.614 39.456 21.604 2.834.6 2.395.347 1.98.227 1.612.227.72.227.105.934.102 2.157"/>
        <path id="prefix__V" d="M1.192 3.815c1.418.788 3.073-.494 2.66-2.064C3.69 1.264 3.454.898 2.989.64L2.05.107C1.995.102 1.939.1 1.885.1-.04.1-.364 3.262 1.192 3.815m8.664 4.281c.163.488.4.854.863 1.111l6.351 3.596c1.418.787 3.073-.495 2.66-2.065-.162-.487-.399-.854-.862-1.11l-6.351-3.596c-.297-.164-.604-.239-.9-.239-1.12 0-2.087 1.062-1.76 2.303m15.877 8.988c.162.487.399.853.863 1.11l6.35 3.595c1.419.788 3.075-.494 2.661-2.064-.162-.488-.399-.854-.862-1.111l-6.352-3.595c-.296-.165-.603-.239-.899-.239-1.12 0-2.087 1.062-1.76 2.304m15.877 8.986c.162.488.399.854.863 1.112l6.351 3.594c1.418.788 3.073-.495 2.66-2.064-.162-.488-.398-.854-.862-1.112l-6.351-3.594c-.297-.165-.604-.24-.9-.24-1.12 0-2.087 1.063-1.76 2.304m15.877 8.987c.163.487.399.853.862 1.11l6.352 3.595c1.418.788 3.073-.495 2.66-2.064-.162-.488-.398-.854-.862-1.112l-6.352-3.594c-.296-.164-.603-.239-.899-.239-1.12 0-2.087 1.062-1.76 2.304m15.877 8.986c.162.487.399.853.862 1.111l6.351 3.594c1.417.788 3.073-.494 2.66-2.064-.162-.487-.398-.854-.862-1.112l-6.35-3.594c-.297-.164-.604-.239-.9-.239-1.12 0-2.088 1.062-1.761 2.304m16.557 10.111c1.94 1.298 3.706 2.805 5.387 4.42 1.406 1.405 3.85-.233 2.884-2.165-.1-.179-.195-.307-.336-.448-1.82-1.758-3.779-3.416-5.884-4.825-.278-.195-.572-.277-.898-.31-.036-.003-.073-.004-.108-.004-1.796 0-2.538 2.278-1.045 3.332M101.97 66.59c1.314 2.115 2.5 3.968 3.63 6.212.255.538.837.936 1.42.994 1.462.154 2.468-1.309 1.842-2.63-1.14-2.252-2.384-4.399-3.79-6.496-.408-.577-.948-.817-1.476-.817-1.24 0-2.41 1.325-1.626 2.737m7.34 15.529c0 .203.01.34.058.535.591 2.268 1.015 4.525 1.21 6.863.206 2.158 3.302 2.259 3.629.085.013-.128.02-.251.008-.381-.222-2.566-.668-5.002-1.317-7.494-.228-.91-.988-1.35-1.752-1.35-.886 0-1.776.595-1.836 1.742m1.371 17.757c-.029.147-.052.267-.052.423l-.054 7.297c0 2.135 3.043 2.55 3.596.45.029-.147.052-.267.052-.423l.055-7.297c0-1.176-.923-1.83-1.845-1.83-.752 0-1.503.436-1.752 1.38m-.136 18.244c-.03.147-.052.268-.052.423l-.055 7.298c0 2.134 3.044 2.55 3.596.45.03-.148.052-.268.052-.423l.055-7.298c0-1.175-.923-1.83-1.844-1.83-.753 0-1.504.436-1.752 1.38m-.136 18.245c-.03.147-.052.267-.052.423l-.055 7.297c0 2.135 3.044 2.55 3.597.45.029-.148.052-.268.052-.423l.054-7.297c0-1.176-.923-1.83-1.844-1.83-.752 0-1.504.436-1.752 1.38m-.136 18.243c-.029.148-.052.267-.052.423l-.054 7.297c0 2.135 3.043 2.55 3.596.45.029-.147.052-.267.052-.423l.054-7.297c0-1.175-.922-1.829-1.844-1.829-.752 0-1.504.436-1.752 1.38m-51.071 11.8l6.306 3.672c1.608.983 3.635-.992 2.322-2.742-.154-.178-.283-.287-.486-.411l-7.42-4.378c-.148-.065-.293-.095-.43-.095-1.364 0-2.152 2.933-.292 3.954m50.55 5.986c-.08.16-.123.28-.166.452-.487 2.175-1.263 4.104-2.618 5.885-1.333 1.742.989 4.033 2.757 2.383l.122-.14c1.684-2.186 2.7-4.648 3.3-7.328.299-1.254-.733-2.226-1.807-2.226-.586 0-1.184.288-1.587.974m-35.271 2.783c.154.177.283.287.486.41l6.307 3.673c1.609.983 3.635-.992 2.322-2.742-.153-.178-.283-.287-.486-.412l-6.307-3.671c-.297-.181-.608-.262-.91-.262-1.333 0-2.483 1.577-1.412 3.004m16.177 9.197c.144.108.27.183.436.253 2.514 1.005 5.078 1.615 7.795 1.615 2.114 0 2.534-3.07.415-3.6-.145-.03-.271-.048-.423-.048-2.236 0-4.34-.523-6.41-1.346-.239-.1-.476-.146-.704-.146-1.503 0-2.585 1.993-1.109 3.272"/>
        <path id="prefix__X" d="M2.587.02c13.1 7.574 24.542 25.46 25.543 39.936 1.3 18.75-15.475 19.153-27.696 8.937l.018-4.597L.292 1.11"/>
        <path id="prefix__aa" d="M11.032.915L9.74 5.846c-.209.786-.953.994-1.874.484L2.244 3.213C.224 2.096-.413 4.485 1.326 6.7l4.815 6.13c.777.99 1.162 2.2.952 3.003l-1.315 4.9c-.358 1.354.912 3.407 2.216 4.128.41.226.822.322 1.19.221l4.271-1.123c.345-.096.766-.004 1.199.235.432.238.875.625 1.264 1.127l4.808 6.143c.413.532.845.904 1.255 1.13 1.301.72 2.357-.045 1.761-1.918l-2.172-6.84c-.36-1.114-.128-1.985.564-2.165l4.282-1.098c1.546-.4.494-3.723-1.535-4.843l-5.631-3.106c-.9-.497-1.738-1.578-2.085-2.67L15.002 3.11C14.611 1.879 13.734.887 12.897.424c-.33-.182-.653-.282-.939-.282-.438 0-.786.236-.926.773"/>
        <path id="prefix__ad" d="M20.52 1.373c-.484 1.023-.949 2.055-1.455 3.068L16.98 8.61c-.444-2.044-2.075-2.825-3.33-1.796-.38.312-.763.768-1.016 1.363-.2-.557-1.778-1.814-3.913 1.22-1.331-.145-2.033.419-2.595 1.495-.336.645-.627 1.417-.894 2.185-.38 1.09-.63 2.015-.623 2.962.014 2.011.1 4.19.043 6.593-.062 2.606-3.018 5.906-4.624 7.808l9.677 3.068c1.478-1.858 2.277-3.2 3.766-4.71 1.519-1.539 3.438-1.722 4.887-2.91.81-.665 1.278-1.545 2.654-3.495 1.14-1.616 1.764-3.363 2.852-5.13 1.06-1.83.996-1.426 1.103-3.48.083-1.585.597-3.15.726-4.111-1.987-.991-3.554 1.464-3.54 3.854-1.139.64-1.885 2.21-2.143 2.91-1.58-2.065-.64-2.93 0-5.584 1.004-1.845 1.721-3.467 2.276-5.327.31-.817.617-1.664.949-2.579.45-1.487-.126-2.542-.575-2.835-.096-.063-.23-.101-.39-.101-.465 0-1.149.326-1.75 1.363"/>
        <path id="prefix__ag" d="M54.658 3.52c-.49.756-1.823 1.306-2.39 2.024-6.805 8.618-10.618 19.248-15.487 27.733C29.378 40.91 16.11 58.12 11.18 63.235c-2.056 2.133-4.845 4.818-6.854 8.05-3.63 5.838-5.689 12.974-3.207 18.393 7.665 16.732 44.487-36.525 51.237-45.23 4.951-10.824 9.761-19.14 13.115-30.929.373-1.311-.453-4.114-.022-5.425.37-1.125.744-2.256 1.126-3.392C63.888 1.986 59.97.344 56.78.287c-.703 1.056-1.41 2.135-2.122 3.233"/>
        <path id="prefix__ai" d="M.27 4.026c.492 3.834.915 6.13.502 9.989-.35 3.275.9 5.369 4.458 6.052 4.1.786 11.447-3.167 10.765-7.507-.601-3.83.299-8.584.525-12.259L.27 4.026z"/>
        <path id="prefix__al" d="M14.128.613C10.906 13.26 6.203 16.666 2.552 25.643c-3.177 7.809-3.833 16.636 2.14 27.931 1.629 15.167 6.084 31.677 4.455 46.822-1.587 14.734-5.625 21.023-6.465 35.632-.548 9.546 2.749 44.242 4.17 54.718 4.44 5.25 14.91 2.116 15.178-4.13.13-6.222 4.73-35.93 5.37-44.87.612-8.53 1.34-19.35 2.397-26.697 1.087-7.545 5.258-15.663 8.43-28.884 5.5-22.926.757-39.255-1.523-58.785C34.966 12.51 30.084.393 17.242.393c-.99 0-2.028.072-3.114.22"/>
        <path id="prefix__ao" d="M.391 3.413c.2 1.723.7 3.753.86 4.933 4.442 5.25 15.999 2.48 16.268-3.768.018-.905.245-2.588.388-4.364C11.583 8.536 4.253 6.325.391 3.414"/>
        <path id="prefix__ar" d="M.104 19.6L13.275 32.28c.74-7.158 6.601-20.896 7.988-24.825L7.123.182C4.723 9.202 5.567 15.564.103 19.6"/>
        <path id="prefix__au" d="M31.286 3.09c-.899 1.995-1.888 3.99-3.027 2.175L6.714 12.481c-8.534 13.955-11.63 34.061 8.63 46.359 4.294 13.274 9.04 26.92 10.702 40.937-3.492 6.727-7.88 10.839-13.287 24.158-2.646 6.516-6.346 23.328-9.055 41.44 4.41-2.172 12.54 3.031 13.083 8.19 6.005-11.994 31.958-62.241 32.718-69.437.101-.508.493-4.17.5-4.731.202-3.102.521-6.335.701-8.434 2.044-23.76.483-41.793-4.762-60.674-2.542-9.155-9.04-24.585-12.36-29.743-.153-.238-.308-.343-.464-.343-.579 0-1.183 1.444-1.834 2.887"/>
        <path id="prefix__ax" d="M.509.752C.118 3.095.465 3.762.104 6.174c4.41-2.171 12.54 3.032 13.083 8.192 1.051-2.1 1.914-2.944 3.007-5.109C16.103 4.804 7.814.334 2.764.335 1.898.335 1.127.466.51.752"/>
        <path id="prefix__aA" d="M.256 18.206c.197 25.876 8.766 28.474 9.852 55.566.086 2.137 1.232 5.319 2.633 8.417.07 1.607.104 4.196.165 5.666 3.662 11.575 47.86 15.257 48.298 2.661-.675-1.64-.828-3.203-1.363-4.963 4.063-13.136-5.275-17.038 2.223-33.36 5.157-11.226 6.564-17.937 4.135-23.477C60.849 16.519 27.258 1.558 14.265.089c-.446-.05-.882-.075-1.309-.075C4.795.014.186 9.007.256 18.206"/>
        <path id="prefix__aB" d="M17.488.734c-.59.688-.108 6.283-.482 7.112-1.445 1.666-2.135 2.35-3.947 4.335-1.123.64-1.863 1.308-2.407 1.455-.625.169-.97-.267-.99-.816-.025-.614.37-1.7.692-3.3-.006-2.654-.66-4.157-2.078-4.018-.73.072-1.15.46-1.332 1.241-.144.62-.106 1.476-.207 2.561-.313.777-.325 1.227-.43 2.054-.523 1.264-.823 2.24-.996 3.118-.325 1.645-.203 2.943-.252 5.13-.029 1.267.175 1.922.447 3.155-1.283 2.51-3.303 4.053-5.189 6.125l6.11 4.66c2.578-1.7 4.591-3.486 6.81-4.963 1.803-.712 2.436-1.116 2.975-1.679 1.414-1.475 5.581-5.858 5.82-7.58.265-1.913-.244-6.335-.678-8.764C20.436 5.406 18.648.036 17.84.035c-.162 0-.285.218-.352.7"/>
        <path id="prefix__aE" d="M70.61 3.091c-.453.556-1.933 1.392-2.514 1.805-5.056 3.59-13.252 14.258-19.498 23.16-11.2-5.018-28.618-15.31-37.03-16.608-5.409-.835-8.957 3.631-10.564 8.056-2.506 6.902 2.334 13.047 8.64 16.374 8.944 4.72 28.386 8.108 34.407 9.622 7.154 1.798 10.869 2.77 13.635.99 1.725-1.108 2.62-3.285 5.168-6.998 4.408-6.421 13.863-20.82 15.579-27.051.213-.773.081-2.28.44-2.967.526-1.005 1.045-1.978 1.555-2.91C80.487 4.701 75.91.757 72.75.318c-.69.952-1.407 1.874-2.141 2.773"/>
        <path id="prefix__aG" d="M.357 2.44c1.608 4.738 5.762 8.107 7.839 11.194.552.82.983 2.53 1.088 4.241-.598 3.341-1.867 6.543-3.71 10.647-.994 4.216 14.398 8.768 19.672 6.477l.11-1.021c1.361-6.29 2.697-11.634 3.638-16.052 2.451 1.045 8.47 1.35 9.003.51C25.38 8.36 11.103.326 4.228.326 2.261.326.9.984.358 2.44"/>
        <path id="prefix__aJ" d="M23.95 11.64c-5.633 9.069-2.574 20.47-10.76 27.316C2.897 47.566-2.902 63.07 1.78 71.866c4.245 7.972 14.6 12.66 11.413 17.707-2.634 4.17-8.832 8.353-1.458 15.088 3.796 3.467 13.069 12.77 31.997 7.95 18.45-4.697 37.81-20.633 22.266-38.059-16.358-18.338-6.789-22.393 2.594-36.814 4.96-7.625 9.395-22.693 5.146-28.298-4.488-5.92-8.049-5.568-11.76-5.217-2.315.22-4.69.439-7.386-.867-4.24-2.053-8.238-2.99-11.922-2.99-7.941 0-14.423 4.354-18.72 11.274"/>
        <path id="prefix__aM" d="M9.435 4.892c8.319-6.778 18.602-5.498 27.26.345 10.197 7.374 1.582 26.155-10.146 34.457-10.487 7.424-23.647 5.215-25.145-.8"/>
        <path id="prefix__aP" d="M8.925.274c29.478 2.082 3.27 38.462-6.895 49.896L.216 40.554"/>
        <linearGradient id="prefix__f" x1="52.112%" x2="45.828%" y1="30.42%" y2="85.739%">
            <stop offset="0%" stop-color="#D1E8FF"/>
            <stop offset="100%" stop-color="#EAEFFF"/>
        </linearGradient>
        <linearGradient id="prefix__i" x1="46.167%" x2="59.604%" y1="57.448%" y2="31.341%">
            <stop offset="0%" stop-color="#6C69FD"/>
            <stop offset="100%" stop-color="#3EB0F7"/>
        </linearGradient>
        <linearGradient id="prefix__l" x1="56.439%" x2="31.421%" y1="76.66%" y2="-4.863%">
            <stop offset="0%" stop-color="#965BF2"/>
            <stop offset="100%" stop-color="#FF8ADC"/>
        </linearGradient>
        <linearGradient id="prefix__o" x1="60.502%" x2="36.71%" y1="36.871%" y2="66.613%">
            <stop offset="0%" stop-color="#1B8EF4"/>
            <stop offset="100%" stop-color="#00CFDD"/>
        </linearGradient>
        <linearGradient id="prefix__w" x1="44.98%" x2="54.403%" y1="7.241%" y2="77.643%">
            <stop offset="0%" stop-color="#FD90DA"/>
            <stop offset="100%" stop-color="#8E6CFD"/>
        </linearGradient>
        <linearGradient id="prefix__z" x1="52.081%" x2="45.41%" y1="29.422%" y2="88.148%">
            <stop offset="0%" stop-color="#D1E8FF"/>
            <stop offset="100%" stop-color="#EAEFFF"/>
        </linearGradient>
        <linearGradient id="prefix__C" x1="45.404%" x2="61.023%" y1="57.239%" y2="32.631%">
            <stop offset="0%" stop-color="#6C69FD"/>
            <stop offset="100%" stop-color="#3EB0F7"/>
        </linearGradient>
        <linearGradient id="prefix__F" x1="51.01%" x2="37.442%" y1="67.831%" y2="-26.292%">
            <stop offset="0%" stop-color="#965BF2"/>
            <stop offset="100%" stop-color="#FF8ADC"/>
        </linearGradient>
        <linearGradient id="prefix__K" x1="55.475%" x2="-79.292%" y1="53.749%" y2="-38.512%">
            <stop offset="0%" stop-color="#6C69FD"/>
            <stop offset="100%" stop-color="#3EB0F7"/>
        </linearGradient>
        <linearGradient id="prefix__N" x1="52.431%" x2="49.68%" y1="98.419%" y2="19.994%">
            <stop offset="0%" stop-color="#D1E8FF"/>
            <stop offset="100%" stop-color="#EAEFFF"/>
        </linearGradient>
        <linearGradient id="prefix__Q" x1="54.415%" x2="45.201%" y1="35.507%" y2="65.754%">
            <stop offset="0%" stop-color="#D1E8FF"/>
            <stop offset="100%" stop-color="#EAEFFF"/>
        </linearGradient>
        <linearGradient id="prefix__T" x1="51.949%" x2="42.547%" y1="46.277%" y2="64.238%">
            <stop offset="0%" stop-color="#1B8EF4"/>
            <stop offset="100%" stop-color="#00CFDD"/>
        </linearGradient>
        <linearGradient id="prefix__Y" x1="46.428%" x2="53.452%" y1="77.072%" y2="5.592%">
            <stop offset="0%" stop-color="#965BF2"/>
            <stop offset="100%" stop-color="#FF8ADC"/>
        </linearGradient>
        <linearGradient id="prefix__ab" x1="45.978%" x2="64.561%" y1="19.919%" y2="92.436%">
            <stop offset="0%" stop-color="#6C69FD"/>
            <stop offset="100%" stop-color="#3EB0F7"/>
        </linearGradient>
        <linearGradient id="prefix__ae" x1="32.438%" x2="59.399%" y1="85.373%" y2="35.079%">
            <stop offset="0%" stop-color="#FF8A77"/>
            <stop offset="100%" stop-color="#FFA799"/>
        </linearGradient>
        <linearGradient id="prefix__aj" x1=".001%" x2="100.002%" y1="49.999%" y2="49.999%">
            <stop offset="0%" stop-color="#FF8A77"/>
            <stop offset="100%" stop-color="#FFA799"/>
        </linearGradient>
        <linearGradient id="prefix__am" x1="51.244%" x2="47.577%" y1="22.243%" y2="78.181%">
            <stop offset="0%" stop-color="#3D4695"/>
            <stop offset="100%" stop-color="#262F88"/>
        </linearGradient>
        <linearGradient id="prefix__ap" x1="94.81%" x2="15.712%" y1="38.506%" y2="59.182%">
            <stop offset="0%" stop-color="#3D4695"/>
            <stop offset="100%" stop-color="#262F88"/>
        </linearGradient>
        <linearGradient id="prefix__as" x1="0%" x2="100%" y1="50%" y2="50%">
            <stop offset="0%" stop-color="#FF8A77"/>
            <stop offset="100%" stop-color="#FFA799"/>
        </linearGradient>
        <linearGradient id="prefix__av" x1="51.196%" x2="45.627%" y1="27.72%" y2="69.547%">
            <stop offset="0%" stop-color="#3D4695"/>
            <stop offset="100%" stop-color="#262F88"/>
        </linearGradient>
        <linearGradient id="prefix__ay" x1="71.938%" x2="45.93%" y1="25.169%" y2="47.655%">
            <stop offset="0%" stop-color="#3D4695"/>
            <stop offset="100%" stop-color="#262F88"/>
        </linearGradient>
        <linearGradient id="prefix__aC" x1="41.023%" x2="62.353%" y1="70.514%" y2="27.174%">
            <stop offset="0%" stop-color="#FF8A77"/>
            <stop offset="100%" stop-color="#FFA799"/>
        </linearGradient>
        <linearGradient id="prefix__aH" x1="50.47%" x2="61.08%" y1="46.795%" y2="76.282%">
            <stop offset="0%" stop-color="#FF8A77"/>
            <stop offset="100%" stop-color="#FFA799"/>
        </linearGradient>
        <linearGradient id="prefix__aK" x1="60.199%" x2="45.477%" y1="13.2%" y2="81.919%">
            <stop offset="0%" stop-color="#592C67"/>
            <stop offset="100%" stop-color="#21033C"/>
        </linearGradient>
        <linearGradient id="prefix__aN" x1="61.031%" x2="47.939%" y1="-90.683%" y2="72.75%">
            <stop offset="0%" stop-color="#8A4691"/>
            <stop offset="100%"/>
        </linearGradient>
        <linearGradient id="prefix__aQ" x1="55.228%" x2="49.688%" y1="-83.522%" y2="60.875%">
            <stop offset="0%" stop-color="#8A4691"/>
            <stop offset="100%"/>
        </linearGradient>
    </defs>
    <g fill="none" fill-rule="evenodd">
        <g transform="translate(48.4 .384)">
            <mask id="prefix__b" fill="#fff">
                <use xlink:href="#prefix__a"/>
            </mask>
            <path fill="#D8D8D8" d="M37.23.016c-2.067.01-2.547 2.932-.516 3.574.136.033.255.063.398.07 2.412.207 4.514.564 6.868 1.129 2.15.537 3.24-2.571 1.12-3.465-.08-.029-.152-.054-.233-.075C42.326.64 39.958.22 37.35.018l-.097-.002h-.023zm-11.164.989c-2.39.547-5.218 1.804-7.33 3.05-1.838 1.122-.585 3.959 1.525 3.293.12-.044.233-.092.345-.16 1.976-1.168 4.058-2.018 6.268-2.629 2.068-.62 1.56-3.577-.484-3.578-.104 0-.212.008-.324.024zm27.372 7.082c.16.14.281.233.48.327 1.704.816 3.34 1.678 4.978 2.618l-.005-.003 1.309.762c1.609.983 3.635-.992 2.322-2.742-.154-.178-.283-.287-.486-.411L60.7 7.86l.01.006c-1.702-.978-3.464-1.928-5.245-2.757-.267-.126-.533-.183-.786-.183-1.459 0-2.528 1.875-1.241 3.161zm-43.034 3.405c-.11.095-.197.186-.285.3-1.547 2.045-2.861 4.257-3.94 6.582-.882 1.861 1.637 3.573 3.049 1.944.11-.136.188-.255.265-.416.99-2.108 2.137-4.06 3.543-5.917.993-1.299-.116-2.934-1.466-2.934-.384 0-.787.132-1.166.44zm58.77 5.396c.154.176.283.286.486.41l6.307 3.672c1.608.982 3.634-.992 2.322-2.743-.154-.177-.283-.286-.486-.41l-6.307-3.672c-.296-.181-.608-.262-.91-.262-1.332 0-2.482 1.577-1.412 3.005zm15.766 9.178c.154.178.283.287.486.412l6.307 3.672c1.609.983 3.635-.993 2.323-2.743-.154-.177-.283-.287-.486-.411l-6.308-3.672c-.296-.181-.607-.262-.909-.262-1.333 0-2.483 1.577-1.413 3.004zM2.837 28.851c-.043.12-.079.218-.102.343-.483 2.437-.81 4.984-.975 7.462-.069 1.438 1.378 2.38 2.66 1.738.558-.294.95-.868.98-1.498.165-2.337.46-4.704.916-7.003.25-1.313-.792-2.166-1.833-2.166-.659 0-1.317.341-1.646 1.124zm97.87 6.395c.154.178.283.287.486.412l6.307 3.671c1.609.983 3.635-.992 2.322-2.742-.154-.177-.282-.287-.486-.41l-6.307-3.673c-.296-.181-.607-.262-.909-.262-1.333 0-2.484 1.577-1.413 3.004zm15.767 9.18c.154.178.283.287.486.411l6.307 3.672c1.609.983 3.635-.992 2.322-2.742-.153-.177-.283-.287-.486-.411l-6.307-3.672c-.296-.182-.608-.262-.909-.262-1.333 0-2.483 1.577-1.413 3.004zM1.592 47.283c-.03.147-.051.268-.051.423l-.048 7.298c0 2.13 3.043 2.55 3.597.447.029-.148.051-.269.051-.423l.048-7.298c0-1.173-.923-1.828-1.844-1.828-.753 0-1.504.436-1.753 1.381zm130.65 6.323c.153.178.282.287.486.411l6.307 3.672c1.608.983 3.635-.993 2.322-2.742-.154-.177-.283-.287-.486-.411l-6.307-3.672c-.297-.181-.608-.262-.91-.262-1.333 0-2.483 1.577-1.412 3.004zM1.473 65.528c-.03.147-.051.268-.051.423l-.048 7.298c0 2.13 3.043 2.55 3.597.446.029-.147.051-.268.051-.423l.048-7.298c0-1.173-.922-1.827-1.844-1.827-.752 0-1.504.436-1.753 1.381zm-.119 18.244c-.029.148-.051.269-.051.424l-.047 7.298c0 2.13 3.042 2.55 3.596.446.03-.148.052-.268.052-.423l.047-7.298c0-1.173-.923-1.827-1.844-1.827-.753 0-1.504.435-1.753 1.38zm-.118 18.245c-.03.147-.052.268-.052.423l-.047 7.298c0 2.13 3.043 2.55 3.597.446.03-.147.051-.268.051-.423l.047-7.297c0-1.174-.922-1.828-1.844-1.828-.752 0-1.503.436-1.752 1.381zm-.118 18.245c-.03.147-.052.268-.052.423l-.047 7.297c0 2.131 3.043 2.55 3.597.447.03-.147.051-.268.051-.423l.048-7.298c0-1.173-.923-1.827-1.845-1.827-.752 0-1.504.435-1.752 1.38zM1 138.506c-.03.148-.052.268-.052.423l-.047 7.298c0 2.131 3.043 2.55 3.597.447.029-.148.052-.269.052-.424l.047-7.297c0-1.173-.923-1.828-1.845-1.828-.752 0-1.503.436-1.752 1.381zm-.118 18.245c-.03.147-.052.268-.052.423l-.047 7.298c0 2.13 3.043 2.55 3.597.446.03-.147.052-.268.052-.423l.047-7.297c0-1.174-.923-1.828-1.845-1.828-.752 0-1.503.436-1.752 1.381zm-.118 18.245c-.03.147-.051.268-.051.422l-.047 7.298c0 2.131 3.042 2.55 3.596.447.03-.147.052-.268.052-.423l.047-7.298c0-1.173-.923-1.828-1.845-1.828-.752 0-1.503.436-1.752 1.382zM.646 193.24c-.029.147-.052.268-.052.422l-.047 7.298c0 2.13 3.043 2.55 3.597.446.03-.147.052-.268.052-.422l.047-7.298c0-1.173-.923-1.827-1.845-1.828-.752 0-1.503.436-1.752 1.382zm-.118 18.243c-.029.147-.051.268-.051.423l-.048 7.298c0 2.13 3.044 2.55 3.597.446.03-.147.052-.268.052-.423l.047-7.297c0-1.174-.923-1.828-1.844-1.828-.752 0-1.504.436-1.753 1.381zm-.117 18.244c-.03.147-.052.267-.052.423l-.047 7.297c0 2.13 3.043 2.55 3.596.446.03-.147.052-.268.052-.423l.047-7.297c0-1.173-.923-1.827-1.844-1.827-.753 0-1.504.435-1.752 1.38zm-.187 18.757c.107 2.472.308 4.937.582 7.396.268 1.976 2.95 2.206 3.56.323.064-.247.1-.48.066-.733-.268-2.373-.46-4.766-.564-7.152-.028-.91-.787-1.685-1.695-1.737-.04-.002-.08-.004-.12-.004-1.045 0-1.863.847-1.829 1.907zm3.552 16.22c-1.098.104-1.834 1.1-1.628 2.183.49 2.425 1.074 4.829 1.726 7.214.574 1.91 3.259 1.72 3.568-.235.025-.254.024-.49-.05-.734-.633-2.303-1.196-4.636-1.67-6.977-.16-.837-.934-1.46-1.776-1.46-.056 0-.113.003-.17.009zm3.42 19.26c0 .274.028.446.118.702.869 2.316 1.809 4.588 2.8 6.853 1.036 2.187 4.268.734 3.333-1.484-.98-2.163-1.885-4.433-2.72-6.658-.277-.79-.979-1.171-1.685-1.171-.89 0-1.788.606-1.846 1.757zm7.808 17.51c1.178 2.168 2.407 4.297 3.694 6.402.448.734 1.37 1.058 2.178.76 1.086-.4 1.534-1.683.93-2.672-1.257-2.045-2.454-4.13-3.6-6.239-.314-.567-.875-.916-1.518-.947l-.099-.003c-1.357 0-2.252 1.497-1.585 2.699zm9.578 15.035c.072.228.144.382.284.583 1.451 1.991 2.966 3.95 4.53 5.855.528.652 1.464.851 2.22.473 1.052-.525 1.34-1.878.596-2.794-1.521-1.842-2.994-3.758-4.4-5.688-.368-.522-.899-.75-1.427-.75-1.085 0-2.16.96-1.803 2.321zm12.386 12.001c-.832.676-.927 1.936-.158 2.704 1.763 1.797 3.574 3.394 5.378 5.118.73.64 1.816.604 2.503-.084.737-.737.696-1.965-.09-2.652-1.783-1.59-3.517-3.238-5.192-4.943-.357-.358-.833-.544-1.309-.544-.4 0-.799.13-1.132.401z" mask="url(#prefix__b)"/>
        </g>
        <path fill="#D0E7FF" d="M223.542 32.16c5.117 2.83 8.108 6.14 11.429 10.86-.04-.825-.08 2.2-.054-2.474.027-4.672-2.654-12.22 1.001-16.002 1.449-1.499 8.505-4.253 10.2-4.688 3.253-.836 7.024-.272 11.05 1.93 6.123 3.347 11.666 9.866 15.69 17.7 4.033 7.855 6.538 20.937 6.533 25.666-.007 4.727-.025 1.633-.07 2.427 3.407-1.023 6.466-1.01 11.728 1.9 5.262 2.911 11.892 10.095 16.004 18.073 4.122 7.996 6.71 17.368 6.73 26.096.016 6.815-1.539 12.228-4.183 15.974-2.665 3.778-7.816 6.007-11.466 7.218-10.467 3.636-30.65-17.587-41.298-23.615-11.3-6.396-22.547-12.756-33.727-19.08-6.095-3.449-11.558-10.022-15.472-17.87-3.904-7.827-6.26-16.953-6.181-25.459.047-4.97-3.587-12.428 1.116-15.999 7.31-5.549 15.116-5.895 20.97-2.657"/>
        <g transform="translate(195.2 21.984)">
            <mask id="prefix__d" fill="#fff">
                <use xlink:href="#prefix__c"/>
            </mask>
            <path fill="#1DCBA4" d="M40.371 2.858c-4.017 3.395-6.547 13.603-6.573 18.276-.008 1.33-.01 2.037-.009 2.386l.03.042c.01-.116.02-.183.031.045l-.031-.045-.006.076c-.013.175-.022.35-.024-.118-3.296-4.672-6.281-7.96-11.367-10.773-5.117-2.831-11.538-2.92-15.53.457-3.982 3.37-6.477 9.694-6.556 18.2-.079 8.506 2.276 17.63 6.181 25.459 3.913 7.847 9.377 14.42 15.472 17.87 11.18 6.323 22.427 12.683 33.727 19.08 11.338 6.418 22.764 12.88 34.211 19.359 6.267 3.546 11.966 3.223 16.077-.204 4.124-3.437 6.679-9.965 6.659-18.732-.02-8.767-2.608-18.1-6.73-26.097-4.112-7.977-10.741-15.162-16.004-18.072-5.23-2.893-8.283-2.924-11.667-1.919-.005.465-.013.275-.025.085l-.005-.076-.032.01c.013-.223.024-.14.032-.01l.03-.009c.004-.348.007-1.06.008-2.41.006-4.728-2.498-17.81-6.532-25.664-4.024-7.835-9.568-14.354-15.69-17.701C53.193.813 50.467.075 47.964.075c-2.869 0-5.447.97-7.594 2.783" mask="url(#prefix__d)"/>
        </g>
        <g fill="#FFF">
            <path d="M93.437 27.297L82.949 21.245 99.444 49.814 116.045 40.353 105.561 34.297 105.59 7.397 93.467 0.397z" transform="translate(136 49.584)"/>
            <path d="M129.782 38.952L140.272 45.003 123.776 16.434 107.174 25.896 117.659 31.951 117.63 58.851 129.753 65.852z" transform="translate(136 49.584)"/>
            <path d="M218.148 542.846L47.244 445.235c-6.342-2.898-15.662-5.632-21.884-1.842L9.443 453.09c-3.203 1.95-13.733 8.425-6.689 12.255 20.72 11.267 153.11 88.62 174.151 100.066 3.979 2.164 9.801 2.946 15.911 2.439 6.084-.506 12.4-2.152 17.234-5.132l6.358-3.922c4.494-2.772 6.984-5.8 7.223-8.704.234-2.839-1.59-5.47-5.483-7.247" opacity=".183" transform="translate(136 49.584)"/>
        </g>
        <g transform="translate(147.6 75.984)">
            <mask id="prefix__g" fill="#fff">
                <use xlink:href="#prefix__e"/>
            </mask>
            <path fill="url(#prefix__f)" d="M9.958 1.917C7.34 3.438 4.716 5.053 2.066 6.657-13.783 16.245 74.51 67.378 77.87 69.663l75.66 35.417c-5.984 23.784 19.657 33.947 26.321 45.593l-7.927 195.181c1.574 37.192-8.006 168.014 17.808 179.03l7.525-4.524c4.742-2.756 7.708-8.612 7.733-16.931l.63-367.731c.045-16.474-11.546-37.076-26.323-45.59L28.744 3.754C25.254 1.741 20.961.142 16.791.142c-2.375 0-4.71.52-6.833 1.775" mask="url(#prefix__g)"/>
        </g>
        <path fill="#FFF" d="M141.972 99.561c.022-8.155 2.847-13.947 7.424-16.769 4.82-2.972 11.585-2.65 19.068 1.671l150.552 86.352c14.57 8.414 26.368 28.846 26.32 45.592l-.627 367.73c-.047 16.744-11.923 23.512-26.496 15.098l-150.55-86.352c-14.588-8.423-26.369-28.847-26.322-45.591l.63-367.731z"/>
        <g transform="translate(141.2 80.784)">
            <mask id="prefix__j" fill="#fff">
                <use xlink:href="#prefix__h"/>
            </mask>
            <path fill="url(#prefix__i)" d="M8.196 2.008C3.619 4.83.794 10.622.772 18.777l-.63 367.731c-.048 16.744 11.733 37.168 26.322 45.592l150.55 86.351c14.572 8.414 26.448 1.646 26.495-15.097l.628-367.731c.047-16.746-11.75-37.179-26.32-45.592L27.263 3.679C23.008 1.221 18.984.057 15.418.057c-2.703 0-5.144.67-7.222 1.951" mask="url(#prefix__j)"/>
        </g>
        <g>
            <path fill="#485AF4" d="M216.316 79.906c3.946 2.278 7.154.448 7.166-4.084.014-4.535-3.174-10.055-7.12-12.333-3.944-2.278-7.154-.45-7.166 4.084-.013 4.533 3.175 10.055 7.12 12.333M102.006 6.214c.003-1.235.877-1.72 1.953-1.081 15.645 8.84 41.284 23.27 56.928 32.11 1.075.64 1.945 2.16 1.942 3.395v2.444c-.004 1.235-.88 1.72-1.955 1.08-15.644-8.839-41.283-23.27-56.928-32.11-1.076-.639-1.945-2.16-1.941-3.394V6.214z" transform="translate(108 121.584)"/>
            <g transform="translate(108 121.584) translate(34 19.6)">
                <mask id="prefix__m" fill="#fff">
                    <use xlink:href="#prefix__k"/>
                </mask>
                <path fill="url(#prefix__l)" d="M.428.01l111.496 59.701c10.014 5.784 15.044 23.25 15.013 34.762l-.431 57.774c-.034 11.51-8.196 16.162-18.213 10.379L.005 99.572.428.011z" mask="url(#prefix__m)"/>
            </g>
            <path fill="#F2F4FF" d="M.786 12.53c.01-3.874-1.36-6.274.3-8.392C2.143 2.792 5.818 1.16 7.373.622 10.38-.42 14.2.119 18.353 2.517l120.053 69.897c9.662 5.58 17.485 19.129 17.454 30.233l-.417 55.736c-.009 3.443-.73 7.85-3.37 10.267-1.88 1.722-5.178 3.446-7.63 3.646-2.515.205-3.488-2.122-6.57-3.9L17.824 98.496C8.15 92.912.337 79.367.368 68.264L.786 12.53z" transform="translate(108 121.584)"/>
        </g>
        <g transform="translate(105.2 123.184)">
            <mask id="prefix__p" fill="#fff">
                <use xlink:href="#prefix__n"/>
            </mask>
            <path fill="url(#prefix__o)" d="M.79 12.574L.37 68.31C.34 79.413 8.152 92.957 17.826 98.542l120.05 69.898c9.664 5.58 17.539 1.092 17.57-10.012l.416-55.735c.032-11.105-7.792-24.653-17.453-30.233L18.356 2.562C15.534.932 12.866.161 10.502.161 4.762.16.811 4.709.789 12.574" mask="url(#prefix__p)"/>
        </g>
        <g>
            <path fill="#FFF" d="M47.187 28.876c.008-2.962 2.107-4.127 4.688-2.593l78.23 44.372c2.58 1.532 4.667 5.183 4.658 8.147v5.862c-.009 2.963-2.11 4.126-4.69 2.594L51.845 42.886c-2.581-1.534-4.666-5.184-4.658-8.147l.001-5.863zM47.187 50.44c.005-1.75 1.244-2.437 2.769-1.531L96.15 75.11c1.522.905 2.755 3.06 2.75 4.81v3.462c-.005 1.75-1.246 2.437-2.77 1.532L49.938 58.713c-1.525-.906-2.756-3.06-2.751-4.81V50.44zM37.936 31.39l-3.135-1.812c-.59-2.93-1.723-5.976-3.254-8.91l2.05-1.167c-1.16-2.145-2.495-4.23-3.965-6.198l-2.05 1.169c-2.034-2.644-4.362-5.008-6.834-6.865l-.24-3.467c-.86-.62-1.733-1.19-2.616-1.7-.886-.512-1.75-.946-2.592-1.31l.24 3.467c-2.41-.966-4.591-1.209-6.414-.795L6.736.066c-1.308.36-2.453 1.014-3.4 1.94l2.389 3.733c-1.236 1.334-2.023 3.27-2.24 5.734L.35 9.66c-.053.872-.048 1.796.02 2.772.067.976.196 1.974.379 2.983l3.135 1.812c.59 2.93 1.722 5.977 3.254 8.907l-2.05 1.17c1.16 2.144 2.494 4.23 3.965 6.198l2.05-1.17c2.034 2.645 4.362 5.009 6.834 6.866l.24 3.464c.86.622 1.732 1.192 2.619 1.704.883.511 1.747.945 2.589 1.307l-.24-3.465c2.41.966 4.591 1.209 6.413.795l2.39 3.736c1.31-.361 2.453-1.015 3.401-1.94l-2.39-3.736c1.237-1.331 2.024-3.268 2.24-5.731l3.136 1.812c.053-.872.048-1.798-.02-2.774s-.196-1.972-.379-2.98m-17.925 1.656c-4.822-2.788-9.028-9.362-9.396-14.69-.37-5.326 3.238-7.387 8.061-4.6 4.819 2.787 9.028 9.367 9.397 14.692.37 5.328-3.242 7.384-8.062 4.598" transform="translate(114.4 157.984)"/>
            <g transform="translate(114.4 157.984) translate(176 42.4)">
                <mask id="prefix__r" fill="#fff">
                    <use xlink:href="#prefix__q"/>
                </mask>
                <path fill="#C92010" d="M.598 14.546C.634 1.719 9.718-3.471 20.89 2.981L61.849 26.23l.79 72.272-7.858 2.503L20.277 81.42C9.103 74.968.08 59.323.115 46.498l.483-31.952z" mask="url(#prefix__r)"/>
            </g>
            <path fill="#C31808" d="M183.642 55.754c.01-3.874-.891-6.288.783-8.392 1.278-1.605 4.25-2.979 5.804-3.516 3.008-1.04 6.828-.503 10.98 1.895l38.35 21.767c9.66 5.58 17.484 19.128 17.452 30.232l-.416 27.664c-.009 3.442-.73 7.85-3.37 10.267-1.88 1.72-5.178 3.446-7.63 3.645-2.515.205-3.488-2.12-6.57-3.9l-38.346-21.767c-9.674-5.586-17.486-19.13-17.454-30.233l.417-27.662z" transform="translate(114.4 157.984)"/>
        </g>
        <g transform="translate(294.8 202.784)">
            <mask id="prefix__t" fill="#fff">
                <use xlink:href="#prefix__s"/>
            </mask>
            <path fill="#F13624" d="M.445 12.598L.027 40.262c-.031 11.102 7.78 24.646 17.455 30.232l38.346 21.767c9.664 5.579 17.539 1.091 17.57-10.012l.416-27.663c.032-11.104-7.792-24.653-17.454-30.233L18.012 2.587C15.19.957 12.522.185 10.158.185 4.418.185.467 4.734.445 12.598" mask="url(#prefix__t)"/>
        </g>
        <g>
            <path fill="#FFF" d="M123.982 11.81L146.151 35.672 146.135 41.75 123.902 40.028 123.922 32.856 139.457 34.794 123.961 18.951zM120.741 5.139c.4.649.593 1.303.59 2.02-.001.51-.172 1.383-.487 2.583l-6.27 25.678c-.2.858-.398 1.51-.541 1.98-.171.475-.395.764-.733.897-.303.142-.757.044-1.371-.31-1.485-.857-2.238-2.07-2.234-3.542.001-.389.146-1.277.452-2.675l6.245-25.694c.316-1.363.631-2.246.935-2.653.285-.419.872-.366 1.708.117.756.436 1.316.954 1.706 1.599M84.838 6.36L84.855.211 107.097 1.969 107.077 9.203 91.595 7.13 107.038 23.078 107.017 30.249z" transform="translate(215.6 229.984)"/>
            <g transform="translate(215.6 229.984) translate(62.8 52)"/>
            <path fill="#D4D4D4" d="M65.05 56.93c1.38-2.335 5.934-4.182 8.624-4.701 3.138-.606 7.05.24 11.377 2.741 11.356 6.566 21.274 22.07 22.142 34.62.258 3.727-.256 6.805-1.533 9.046-1.191 2.09-6.007 5.176-8.466 5.722-14.499 4.188-36.207-40.557-32.144-47.427" transform="translate(215.6 229.984)"/>
            <path fill="#FFF" d="M84.782 101.873c-11.364-6.57-21.275-22.064-22.144-34.619-.87-12.548 7.632-17.405 18.996-10.836 11.356 6.566 21.274 22.071 22.142 34.62.87 12.555-7.638 17.4-18.994 10.835" transform="translate(215.6 229.984)"/>
            <path fill="#6DD400" d="M90.347 70.197L93.36 71.704 79.981 92.07 68.17 74.555 72.059 76.076 78.297 81.998z" transform="translate(215.6 229.984)"/>
            <g transform="translate(215.6 229.984) translate(0 75.6)">
                <mask id="prefix__x" fill="#fff">
                    <use xlink:href="#prefix__v"/>
                </mask>
                <path fill="url(#prefix__w)" d="M.776 11.772C.806 1.291 8.228-2.95 17.357 2.322l119.701 68.632.01 110.046-7.907 4.45-112.304-64.176C7.726 116.002.352 103.22.382 92.74l.394-80.968z" mask="url(#prefix__x)"/>
            </g>
        </g>
        <g transform="translate(223.6 307.184)">
            <mask id="prefix__A" fill="#fff">
                <use xlink:href="#prefix__y"/>
            </mask>
            <path fill="url(#prefix__z)" d="M7.312.524C5.538 1.09 1.415 2.231.416 4.086c-.926 1.716 1.167 3.888 1.16 6.557l-.354 72.054c-.026 9.38 6.574 20.825 14.749 25.545l139.819 80.696c1.718.992.865 3.033 2.402 3.298 2.186.378 6.647-1.376 8.232-2.336 2.594-1.57 4.198-4.825 4.211-9.422l.352-72.054c.026-9.382-6.584-20.83-14.747-25.545L16.418 2.183C14.034.806 11.78.154 9.782.154c-.876 0-1.703.126-2.47.37" mask="url(#prefix__A)"/>
        </g>
        <path fill="#FFF" d="M221.511 319.15c.027-9.382 6.672-13.18 14.844-8.46l139.82 80.696c8.164 4.715 14.775 16.162 14.748 25.545l-.352 72.054c-.026 9.382-6.68 13.173-14.845 8.46l-139.82-80.697c-8.173-4.72-14.774-16.162-14.748-25.544l.353-72.054z"/>
        <g transform="translate(228 344.384)">
            <mask id="prefix__D" fill="#fff">
                <use xlink:href="#prefix__B"/>
            </mask>
            <path fill="url(#prefix__C)" d="M.027 16.89C-.014 31.911 10.536 50.196 23.61 57.745c13.061 7.54 23.69 1.483 23.733-13.54.043-15.009-10.517-33.301-23.58-40.842C19.947 1.161 16.34.118 13.145.118 5.391.117.06 6.26.027 16.889" mask="url(#prefix__D)"/>
        </g>
        <g>
            <path fill="#FFF" d="M146.393 68.093L146.42 95.266 169.863 97.184z" transform="translate(95.2 286.384)"/>
            <path fill="#44A7F7" d="M184.3 82.07c.004-1.926 1.37-2.682 3.047-1.685l95.253 54.562c1.676.998 3.034 3.37 3.03 5.297l-.002 3.812c-.006 1.926-1.372 2.682-3.048 1.687L187.327 91.18c-1.679-.997-3.034-3.37-3.029-5.297l.002-3.811z" transform="translate(95.2 286.384)"/>
            <path fill="#6D6AFD" d="M184.3 104.273c.004-1.927 1.37-2.683 3.047-1.686l95.253 54.562c1.676.998 3.034 3.37 3.03 5.298l-.002 3.811c-.006 1.927-1.372 2.683-3.048 1.687l-95.253-54.564c-1.679-.997-3.034-3.37-3.029-5.296l.002-3.812zM184.3 125.746c.004-1.928 1.37-2.684 3.047-1.687l95.253 54.563c1.676.997 3.034 3.37 3.03 5.297l-.002 3.812c-.006 1.926-1.372 2.682-3.048 1.687l-95.253-54.564c-1.679-.998-3.034-3.37-3.029-5.297l.002-3.811z" transform="translate(95.2 286.384)"/>
            <g transform="translate(95.2 286.384) translate(46 18)">
                <mask id="prefix__G" fill="#fff">
                    <use xlink:href="#prefix__E"/>
                </mask>
                <path fill="url(#prefix__F)" d="M.194.36l27.291 15.426C37.998 21.858 46.511 36.6 46.477 48.683l-.453 54.29c-.034 12.082-8.603 16.965-19.118 10.894L.194 98.768V.36z" mask="url(#prefix__G)"/>
            </g>
            <path fill="#F2F4FF" d="M.513 12.508c.01-3.873-.89-6.288.783-8.391C2.574 2.512 5.546 1.137 7.1.601c3.007-1.04 6.828-.503 10.98 1.895l51.124 28.897c9.662 5.58 17.485 19.128 17.454 30.233l-.416 47.315c-.01 3.442-.73 7.85-3.37 10.266-1.88 1.72-5.18 3.446-7.63 3.645-2.515.204-3.489-2.121-6.57-3.9L17.55 90.054C7.876 84.468.064 70.925.095 59.822l.418-47.314z" transform="translate(95.2 286.384)"/>
        </g>
        <g transform="translate(92.4 287.984)">
            <mask id="prefix__I" fill="#fff">
                <use xlink:href="#prefix__H"/>
            </mask>
            <path fill="#F0C300" d="M.516 12.553L.097 59.868C.067 70.97 7.88 84.514 17.553 90.1l51.122 28.897c9.663 5.58 17.538 1.092 17.57-10.012l.415-47.313c.032-11.105-7.792-24.654-17.453-30.233L18.083 2.542C15.262.912 12.593.14 10.23.14 4.49.14.538 4.688.516 12.553" mask="url(#prefix__I)"/>
        </g>
        <g>
            <path fill="#FFF" d="M69.322 55.266c1.139 2.458 1.724 4.881 1.718 7.296-.006 1.926-.373 3.582-1.162 4.926-.786 1.348-1.802 2.208-3.14 2.468-1.377.326-3 .068-4.983-.857-1.204-.563-4.141-2.127-8.832-4.838l-12.437-7.179.117-41.84 14.594 8.425c2.898 1.673 5.052 3.071 6.426 4.126 1.449 1.123 2.707 2.396 3.848 3.955 1.085 1.527 2.035 3.263 2.755 5.127.78 1.9 1.138 3.686 1.132 5.482-.006 2.017-.508 3.507-1.408 4.589-.901 1.126-2.164 1.648-3.73 1.512 2.21 2.022 3.904 4.32 5.102 6.808zm-6.874 5.515c.648-.523 1.015-1.497 1.019-3.009.005-1.248-.221-2.414-.77-3.629-.533-1.207-1.313-2.274-2.266-3.239-1.03-1.012-3.185-2.476-6.56-4.424l-5.952-3.436-.032 11.266 6.847 3.952c2.653 1.53 4.332 2.436 5.058 2.632 1.088.43 1.984.4 2.656-.113zM14.283.045L22.1 4.558l14.475 50.266-7.917-4.568L25.5 38.883l-14.612-8.437-3.02 7.806-7.822-4.517L14.283.045zM13.198 24.73l9.976 5.76-5.067-18.404-4.909 12.644zm34.77 1.765l-.028 9.644 4.804 2.772c2.9 1.676 4.637 2.612 5.363 2.898 1.257.598 2.213.664 2.94.251.729-.415 1.093-1.303 1.096-2.617.006-1.314-.299-2.522-.905-3.707-.589-1.174-1.542-2.205-2.742-3.033-.726-.483-2.824-1.76-6.313-3.776l-4.215-2.432z" transform="translate(98.8 315.184)"/>
            <g transform="translate(98.8 315.184) translate(77.6 104.8)">
                <mask id="prefix__L" fill="#fff">
                    <use xlink:href="#prefix__J"/>
                </mask>
                <path fill="url(#prefix__K)" d="M.607 5.19C.619.78 3.742-1.005 7.583 1.213c40.697 23.342 81.31 47.505 122.01 70.85 3.836 2.216 6.943 7.595 6.93 12.005l-.245 74.079c-.013 4.409-3.14 6.19-6.978 3.975-40.698-23.344-81.317-47.51-122.01-70.85C3.45 89.055.347 83.678.36 79.269L.607 5.19z" mask="url(#prefix__L)"/>
            </g>
        </g>
        <g transform="translate(173.6 419.584)">
            <mask id="prefix__O" fill="#fff">
                <use xlink:href="#prefix__M"/>
            </mask>
            <path fill="url(#prefix__N)" d="M5.022.459L.352 2.794 3.04 67.226c-.012 4.167 2.92 9.25 6.55 11.345 38.456 22.058 76.565 47.823 115.028 69.884 1.21-.61 4.616-2.078 5.48-2.855.865-.777 1.387-2.087 1.392-3.828L131.3 79.35c.012-4.166-2.924-9.25-6.549-11.345C86.286 45.943 47.905 23.108 9.444 1.05 8.385.437 7.384.147 6.496.147c-.538 0-1.034.106-1.474.312" mask="url(#prefix__O)"/>
        </g>
        <g transform="translate(171.6 421.984)">
            <mask id="prefix__R" fill="#fff">
                <use xlink:href="#prefix__P"/>
            </mask>
            <path fill="url(#prefix__Q)" d="M.268 4.697l.188 62.419c-.012 4.167 2.92 9.25 6.55 11.346 38.457 22.057 76.844 44.895 115.307 66.956 3.625 2.094 6.581.41 6.593-3.756l-.188-62.42c.011-4.168-2.924-9.251-6.55-11.346C83.704 45.834 45.322 22.999 6.861.939 5.802.328 4.801.04 3.914.04 1.76.038.277 1.745.268 4.696" mask="url(#prefix__R)"/>
        </g>
        <g transform="translate(178.4 431.984)">
            <mask id="prefix__U" fill="#fff">
                <use xlink:href="#prefix__S"/>
            </mask>
            <path fill="url(#prefix__T)" d="M.102 2.157l.078 36.74c-.005 1.726 1.21 3.833 2.714 4.701 36.62 21.006 73.224 39.208 109.846 60.212 1.502.867 2.728.17 2.732-1.557l-.078-33.933c.004-1.727-1.213-3.833-2.715-4.702C76.059 42.614 39.456 21.604 2.834.6 2.395.347 1.98.227 1.612.227.72.227.105.934.102 2.157" mask="url(#prefix__U)"/>
        </g>
        <path fill="#04C6DF" d="M182.644 485.66c.004-1.928 1.369-2.684 3.047-1.687l95.253 54.563c1.677.997 3.034 3.37 3.029 5.297l-.001 3.811c-.006 1.927-1.371 2.683-3.048 1.688l-95.253-54.565c-1.68-.997-3.034-3.37-3.029-5.296l.002-3.812z"/>
        <g transform="translate(311.2 113.984)">
            <mask id="prefix__W" fill="#fff">
                <use xlink:href="#prefix__V"/>
            </mask>
            <path fill="#FFF" d="M1.192 3.815c1.418.788 3.073-.494 2.66-2.064C3.69 1.264 3.454.898 2.989.64L2.05.107C1.995.102 1.939.1 1.885.1-.04.1-.364 3.262 1.192 3.815m8.664 4.281c.163.488.4.854.863 1.111l6.351 3.596c1.418.787 3.073-.495 2.66-2.065-.162-.487-.399-.854-.862-1.11l-6.351-3.596c-.297-.164-.604-.239-.9-.239-1.12 0-2.087 1.062-1.76 2.303m15.877 8.988c.162.487.399.853.863 1.11l6.35 3.595c1.419.788 3.075-.494 2.661-2.064-.162-.488-.399-.854-.862-1.111l-6.352-3.595c-.296-.165-.603-.239-.899-.239-1.12 0-2.087 1.062-1.76 2.304m15.877 8.986c.162.488.399.854.863 1.112l6.351 3.594c1.418.788 3.073-.495 2.66-2.064-.162-.488-.398-.854-.862-1.112l-6.351-3.594c-.297-.165-.604-.24-.9-.24-1.12 0-2.087 1.063-1.76 2.304m15.877 8.987c.163.487.399.853.862 1.11l6.352 3.595c1.418.788 3.073-.495 2.66-2.064-.162-.488-.398-.854-.862-1.112l-6.352-3.594c-.296-.164-.603-.239-.899-.239-1.12 0-2.087 1.062-1.76 2.304m15.877 8.986c.162.487.399.853.862 1.111l6.351 3.594c1.417.788 3.073-.494 2.66-2.064-.162-.487-.398-.854-.862-1.112l-6.35-3.594c-.297-.164-.604-.239-.9-.239-1.12 0-2.088 1.062-1.761 2.304m16.557 10.111c1.94 1.298 3.706 2.805 5.387 4.42 1.406 1.405 3.85-.233 2.884-2.165-.1-.179-.195-.307-.336-.448-1.82-1.758-3.779-3.416-5.884-4.825-.278-.195-.572-.277-.898-.31-.036-.003-.073-.004-.108-.004-1.796 0-2.538 2.278-1.045 3.332M101.97 66.59c1.314 2.115 2.5 3.968 3.63 6.212.255.538.837.936 1.42.994 1.462.154 2.468-1.309 1.842-2.63-1.14-2.252-2.384-4.399-3.79-6.496-.408-.577-.948-.817-1.476-.817-1.24 0-2.41 1.325-1.626 2.737m7.34 15.529c0 .203.01.34.058.535.591 2.268 1.015 4.525 1.21 6.863.206 2.158 3.302 2.259 3.629.085.013-.128.02-.251.008-.381-.222-2.566-.668-5.002-1.317-7.494-.228-.91-.988-1.35-1.752-1.35-.886 0-1.776.595-1.836 1.742m1.371 17.757c-.029.147-.052.267-.052.423l-.054 7.297c0 2.135 3.043 2.55 3.596.45.029-.147.052-.267.052-.423l.055-7.297c0-1.176-.923-1.83-1.845-1.83-.752 0-1.503.436-1.752 1.38m-.136 18.244c-.03.147-.052.268-.052.423l-.055 7.298c0 2.134 3.044 2.55 3.596.45.03-.148.052-.268.052-.423l.055-7.298c0-1.175-.923-1.83-1.844-1.83-.753 0-1.504.436-1.752 1.38m-.136 18.245c-.03.147-.052.267-.052.423l-.055 7.297c0 2.135 3.044 2.55 3.597.45.029-.148.052-.268.052-.423l.054-7.297c0-1.176-.923-1.83-1.844-1.83-.752 0-1.504.436-1.752 1.38m-.136 18.243c-.029.148-.052.267-.052.423l-.054 7.297c0 2.135 3.043 2.55 3.596.45.029-.147.052-.267.052-.423l.054-7.297c0-1.175-.922-1.829-1.844-1.829-.752 0-1.504.436-1.752 1.38m-51.071 11.8l6.306 3.672c1.608.983 3.635-.992 2.322-2.742-.154-.178-.283-.287-.486-.411l-7.42-4.378c-.148-.065-.293-.095-.43-.095-1.364 0-2.152 2.933-.292 3.954m50.55 5.986c-.08.16-.123.28-.166.452-.487 2.175-1.263 4.104-2.618 5.885-1.333 1.742.989 4.033 2.757 2.383l.122-.14c1.684-2.186 2.7-4.648 3.3-7.328.299-1.254-.733-2.226-1.807-2.226-.586 0-1.184.288-1.587.974m-35.271 2.783c.154.177.283.287.486.41l6.307 3.673c1.609.983 3.635-.992 2.322-2.742-.153-.178-.283-.287-.486-.412l-6.307-3.671c-.297-.181-.608-.262-.91-.262-1.333 0-2.483 1.577-1.412 3.004m16.177 9.197c.144.108.27.183.436.253 2.514 1.005 5.078 1.615 7.795 1.615 2.114 0 2.534-3.07.415-3.6-.145-.03-.271-.048-.423-.048-2.236 0-4.34-.523-6.41-1.346-.239-.1-.476-.146-.704-.146-1.503 0-2.585 1.993-1.109 3.272" mask="url(#prefix__W)"/>
        </g>
        <g>
            <path fill="#FFF" d="M6.15 333.95l65.028-37.036c7.09-3.24 17.235-5.818 24.458-2.059 6.581 3.425 17.422 10.435 22.215 13.168 3.641 2.077 16.28 9.649 8.408 13.93-23.157 12.592-46.074 26.754-69.59 39.545-4.446 2.42-10.952 3.294-17.782 2.726-6.8-.565-13.775-2.545-19.26-5.735-3.908-2.273-7.751-4.511-11.532-6.713-5.1-2.97-7.805-6.481-8.072-9.728-.263-3.173 1.776-6.112 6.127-8.099" opacity=".077" transform="translate(0 241.584)"/>
            <g transform="translate(0 241.584) translate(141.2 3.6)">
                <mask id="prefix__Z" fill="#fff">
                    <use xlink:href="#prefix__X"/>
                </mask>
                <path fill="url(#prefix__Y)" d="M.434 48.893l.018-4.597L.292 1.11 2.587.02c13.1 7.574 24.542 25.46 25.543 39.936 1.3 18.75-15.475 19.153-27.696 8.937" mask="url(#prefix__Z)"/>
            </g>
            <path fill="#F2F4FF" d="M123.778 5.072c1.38-2.335 5.935-4.182 8.625-4.701 3.137-.606 7.05.24 11.376 2.74 11.356 6.566 21.274 22.072 22.143 34.62.258 3.727-.257 6.806-1.533 9.046-1.192 2.091-6.007 5.176-8.467 5.723-14.498 4.188-36.207-40.557-32.144-47.428" transform="translate(0 241.584)"/>
            <path fill="#A0D3FB" d="M143.51 50.014c-11.363-6.569-21.274-22.063-22.144-34.618C120.497 2.848 129-2.009 140.362 4.56c11.356 6.566 21.274 22.071 22.143 34.62.87 12.554-7.638 17.4-18.995 10.834" transform="translate(0 241.584)"/>
        </g>
        <g transform="translate(126.8 253.984)">
            <mask id="prefix__ac" fill="#fff">
                <use xlink:href="#prefix__aa"/>
            </mask>
            <path fill="url(#prefix__ab)" d="M11.032.915L9.74 5.846c-.209.786-.953.994-1.874.484L2.244 3.213C.224 2.096-.413 4.485 1.326 6.7l4.815 6.13c.777.99 1.162 2.2.952 3.003l-1.315 4.9c-.358 1.354.912 3.407 2.216 4.128.41.226.822.322 1.19.221l4.271-1.123c.345-.096.766-.004 1.199.235.432.238.875.625 1.264 1.127l4.808 6.143c.413.532.845.904 1.255 1.13 1.301.72 2.357-.045 1.761-1.918l-2.172-6.84c-.36-1.114-.128-1.985.564-2.165l4.282-1.098c1.546-.4.494-3.723-1.535-4.843l-5.631-3.106c-.9-.497-1.738-1.578-2.085-2.67L15.002 3.11C14.611 1.879 13.734.887 12.897.424c-.33-.182-.653-.282-.939-.282-.438 0-.786.236-.926.773" mask="url(#prefix__ac)"/>
        </g>
        <g transform="translate(88.8 197.584)">
            <mask id="prefix__af" fill="#fff">
                <use xlink:href="#prefix__ad"/>
            </mask>
            <path fill="url(#prefix__ae)" d="M20.52 1.373c-.484 1.023-.949 2.055-1.455 3.068L16.98 8.61c-.444-2.044-2.075-2.825-3.33-1.796-.38.312-.763.768-1.016 1.363-.2-.557-1.778-1.814-3.913 1.22-1.331-.145-2.033.419-2.595 1.495-.336.645-.627 1.417-.894 2.185-.38 1.09-.63 2.015-.623 2.962.014 2.011.1 4.19.043 6.593-.062 2.606-3.018 5.906-4.624 7.808l9.677 3.068c1.478-1.858 2.277-3.2 3.766-4.71 1.519-1.539 3.438-1.722 4.887-2.91.81-.665 1.278-1.545 2.654-3.495 1.14-1.616 1.764-3.363 2.852-5.13 1.06-1.83.996-1.426 1.103-3.48.083-1.585.597-3.15.726-4.111-1.987-.991-3.554 1.464-3.54 3.854-1.139.64-1.885 2.21-2.143 2.91-1.58-2.065-.64-2.93 0-5.584 1.004-1.845 1.721-3.467 2.276-5.327.31-.817.617-1.664.949-2.579.45-1.487-.126-2.542-.575-2.835-.096-.063-.23-.101-.39-.101-.465 0-1.149.326-1.75 1.363" mask="url(#prefix__af)"/>
        </g>
        <path fill="#FF8978" d="M97.566 206.918l-.045.063c-.223-.024-.429-.029-.62-.014-.19 1.341-.468 2.172-1.129 3.1 1.023-.999 1.542-1.681 1.794-3.149m3.856-1.188c-.07-.162-.246-.372-.512-.52-.256 1.23-.544 1.806-1.086 2.772.883-.691 1.313-1.44 1.598-2.252m4.538.105l-.18.359c-.11-.507-.293-.938-.526-1.28-.058 1.392-.83 2.39-1.38 3.068 1.25-.56 1.75-1.232 2.086-2.147m7.392 1.214c-1.413.204-2.41 2.152-2.399 4.061-1.065.6-1.788 2.013-2.088 2.766.58-.744 2.059-2.341 2.542-2.532.15-1.838.805-3.346 1.945-4.295"/>
        <g transform="translate(36 221.584)">
            <mask id="prefix__ah" fill="#fff">
                <use xlink:href="#prefix__ag"/>
            </mask>
            <path d="M54.658 3.52c-.49.756-1.823 1.306-2.39 2.024-6.805 8.618-10.618 19.248-15.487 27.733C29.378 40.91 16.11 58.12 11.18 63.235c-2.056 2.133-4.845 4.818-6.854 8.05-3.63 5.838-5.689 12.974-3.207 18.393 7.665 16.732 44.487-36.525 51.237-45.23 4.951-10.824 9.761-19.14 13.115-30.929.373-1.311-.453-4.114-.022-5.425.37-1.125.744-2.256 1.126-3.392C63.888 1.986 59.97.344 56.78.287c-.703 1.056-1.41 2.135-2.122 3.233" mask="url(#prefix__ah)"/>
        </g>
        <g>
            <path fill="#1C236C" d="M16.236 5.49c1.08-.206 5.898-1.565 6.354-1.723 3.079-1.07 7.068-2.675 12.122-3.43 3.546-.532 8.49.51 6.905 5.892-2.123 7.211-8.333 12.471-14.424 15.016-2.16.903-4.875 1.114-7.467 2.411-2.007 1.005-2.448 2.668-3.94 3.784-3.262 2.439-7.023 2.196-9.7 1.278-3.211-1.101-4.386-2.455-5.154-6.34-.704-3.567-.8-10.016.08-12.542l.115.009c.135 2.457 1.493 4.044 4.503 4.622 4.098.786 11.446-3.166 10.765-7.507-.075-.477-.126-.968-.159-1.47" transform="translate(37.2 551.184)"/>
            <path fill="#E5E5E5" d="M41.096 1.896c1.682 1.983.587 5.353-.384 7.457-2.647 5.739-8.306 10.087-13.518 12.265-2.161.903-4.84 1.411-7.43 2.708-2.008 1.006-2.412 2.407-3.904 3.523-3.26 2.44-7.246 2.272-9.922 1.354-3.034-1.04-4.118-2.739-4.875-6.199.769 1.743 1.937 2.79 4.055 3.517 2.678.918 6.662 1.085 9.922-1.353 1.492-1.117 1.896-2.518 3.904-3.523 2.59-1.298 5.642-1.583 7.803-2.486 6.09-2.544 12.672-7.098 14.795-14.308.178-.604.348-1.804-.446-2.955" transform="translate(37.2 551.184)"/>
        </g>
        <g transform="translate(37.6 545.584)">
            <mask id="prefix__ak" fill="#fff">
                <use xlink:href="#prefix__ai"/>
            </mask>
            <path fill="url(#prefix__aj)" d="M.27 4.026c.492 3.834.915 6.13.502 9.989-.35 3.275.9 5.369 4.458 6.052 4.1.786 11.447-3.167 10.765-7.507-.601-3.83.299-8.584.525-12.259L.27 4.026z" mask="url(#prefix__ak)"/>
        </g>
        <g>
            <path fill="#1C236C" d="M18.462 6.72c.696.202 1.78.536 2.817.407C23.246 14.5 7.762 30.35.563 19.756.145 18.011-.07 9.748.666 7.922c.49-1.22 1.394-1.246 2.867-.82 3.134.906 4.099 5.026 6.253 5.447 2.561.5 4.186-1.346 5.126-3.333 1.007-2.135.72-4.53 1.248-5.593.595-1.195 1.704-.47 1.508.089-.24.685-.142 2.284.794 3.007" transform="translate(37.2 551.184)"/>
            <path fill="#E5E5E5" d="M39.782 2.196c.635.146 1.466.63 1.699 1.42.262.885.012 2.833.008 3.483 1.694-3.859-.03-5.883-1.667-6.521-.34-.134-.84-.296-1.437-.24.37.22.367.375.356.562-.034.604.294 1.124 1.041 1.296" transform="translate(37.2 551.184)"/>
        </g>
        <g transform="translate(30.8 362.784)">
            <mask id="prefix__an" fill="#fff">
                <use xlink:href="#prefix__al"/>
            </mask>
            <path fill="url(#prefix__am)" d="M14.128.613C10.906 13.26 6.203 16.666 2.552 25.643c-3.177 7.809-3.833 16.636 2.14 27.931 1.629 15.167 6.084 31.677 4.455 46.822-1.587 14.734-5.625 21.023-6.465 35.632-.548 9.546 2.749 44.242 4.17 54.718 4.44 5.25 14.91 2.116 15.178-4.13.13-6.222 4.73-35.93 5.37-44.87.612-8.53 1.34-19.35 2.397-26.697 1.087-7.545 5.258-15.663 8.43-28.884 5.5-22.926.757-39.255-1.523-58.785C34.966 12.51 30.084.393 17.242.393c-.99 0-2.028.072-3.114.22" mask="url(#prefix__an)"/>
        </g>
        <path fill="#1E2353" d="M66.192 382.98c.574 2.249 1.008 4.654 1.312 7.184 2.23 19.537 7.023 35.86 1.524 58.785-3.173 13.222-7.344 21.34-8.43 28.884-1.058 7.347-1.786 18.169-2.397 26.698-.64 8.94-5.605 39.283-5.733 45.504-.137 3.188-1.882 5.111-5.05 5.902-1.267-20.355-2.266-38.427.196-57.414 1.613-12.442 5.13-25.551 5.89-35.067 1.678-21.016-3.154-37.634-11.844-44.367 4.3 1.635 8.296 1.064 11.703-.726-1.401-12.251 5.721-25.126 12.829-35.383"/>
        <g transform="translate(36.4 545.184)">
            <mask id="prefix__aq" fill="#fff">
                <use xlink:href="#prefix__ao"/>
            </mask>
            <path fill="url(#prefix__ap)" d="M.391 3.413c.2 1.723.7 3.753.86 4.933 4.442 5.25 15.999 2.48 16.268-3.768.018-.905.245-2.588.388-4.364C11.583 8.536 4.253 6.325.391 3.414" mask="url(#prefix__aq)"/>
        </g>
        <g transform="translate(50.8 522.384)">
            <mask id="prefix__at" fill="#fff">
                <use xlink:href="#prefix__ar"/>
            </mask>
            <path fill="url(#prefix__as)" d="M.104 19.6L13.275 32.28c.74-7.158 6.601-20.896 7.988-24.825L7.123.182C4.723 9.202 5.567 15.564.103 19.6" mask="url(#prefix__at)"/>
        </g>
        <g>
            <path fill="#293288" d="M20.657 12.762c-2.453-2.571-.97-4.277-1.907-8.5-.465-2.1-1.792-3.577-3.052-4.025-2.242-.797-2.802.82-4.511 1.954-2.246 1.49-3.53 1.373-5.032 3.5C-.135 7.291-.628 12.92.86 18.566c1.38 5.237 2.865 5.754 2.959 8.51.03.903-.28 1.904-.778 3.597-1.277 4.346 1.561 9.588 3.539 12.253 3.051 4.112 10.56 7.11 16.08 6.603 1.065-.097 1.58-1.08 1.671-2.375.278-3.904-1.344-10.582-1.811-14.922-.183-1.698-.125-4.866.385-8.128.677-4.321 1.874-8.878 1.674-11.068-.223-2.437-.96 2.829-3.922-.275" transform="translate(40.8 537.184)"/>
            <path fill="#FFF" d="M8.147 5.441C-.196 5.857-.713 12.53.859 18.567c1.366 5.242 2.865 5.754 2.96 8.51.031.903-.28 1.904-.777 3.597-1.278 4.346 1.56 9.588 3.538 12.254 3.051 4.111 10.56 7.109 16.08 6.602.563-.052.984-.373 1.291-.864.572-.916-1.055-6.126-1.715-7.382-1.404-2.67-3.166-5.608-4.198-9.688-.765-3.022-.187-7.673-.78-11.198-1.49-8.865-2.713-14.022-9.111-14.957" transform="translate(40.8 537.184)"/>
            <path fill="#EAEAED" d="M.071 13.66c.049 1.59.362 3.272.789 4.907 1.365 5.24 2.865 5.754 2.96 8.51.03.903-.28 1.904-.779 3.597-1.277 4.346 1.561 9.588 3.539 12.253 3.051 4.112 10.56 7.11 16.08 6.603.289-.027.54-.123.757-.279.084-.889-.167-1.92-.778-3.332-2.282-5.266-7.906-12.778-8.51-17.75-.29-2.397.16-4.312.058-6.474-.174-3.726-.936-7.36-3.283-10.52C7.629 6.769-.18 5.464.07 13.66" transform="translate(40.8 537.184)"/>
        </g>
        <g transform="translate(51.2 369.184)">
            <mask id="prefix__aw" fill="#fff">
                <use xlink:href="#prefix__au"/>
            </mask>
            <path fill="url(#prefix__av)" d="M31.286 3.09c-.899 1.995-1.888 3.99-3.027 2.175L6.714 12.481c-8.534 13.955-11.63 34.061 8.63 46.359 4.294 13.274 9.04 26.92 10.702 40.937-3.492 6.727-7.88 10.839-13.287 24.158-2.646 6.516-6.346 23.328-9.055 41.44 4.41-2.172 12.54 3.031 13.083 8.19 6.005-11.994 31.958-62.241 32.718-69.437.101-.508.493-4.17.5-4.731.202-3.102.521-6.335.701-8.434 2.044-23.76.483-41.793-4.762-60.674-2.542-9.155-9.04-24.585-12.36-29.743-.153-.238-.308-.343-.464-.343-.579 0-1.183 1.444-1.834 2.887" mask="url(#prefix__aw)"/>
        </g>
        <g transform="translate(54.8 528.384)">
            <mask id="prefix__az" fill="#fff">
                <use xlink:href="#prefix__ax"/>
            </mask>
            <path fill="url(#prefix__ay)" d="M.509.752C.118 3.095.465 3.762.104 6.174c4.41-2.171 12.54 3.032 13.083 8.192 1.051-2.1 1.914-2.944 3.007-5.109C16.103 4.804 7.814.334 2.764.335 1.898.335 1.127.466.51.752" mask="url(#prefix__az)"/>
        </g>
        <g transform="translate(28 285.984)">
            <use fill="#FF8FD5" xlink:href="#prefix__aA"/>
        </g>
        <path fill="#FF8FD5" d="M89.204 376.5c-.559-1.357-.76-2.662-1.116-4.07-8.463 7.679-25.738 5.149-35.456 1.37-.975-9.538-2.547-13.513-.545-19.414 10.355-4.86 18.941-9.429 24.593-14.62 10.008-9.197 10.81-20.35-4.09-38.541l1.364-3.36c-11.41-6.184-24.608-10.992-31.69-11.792-8.974-1.015-14.082 8.437-14.008 18.117.197 25.876 8.766 28.473 9.853 55.566.085 2.137 1.231 5.32 2.632 8.417.07 1.607.104 4.196.165 5.666 3.662 11.575 47.86 15.257 48.298 2.661"/>
        <g transform="translate(146.8 273.584)">
            <mask id="prefix__aD" fill="#fff">
                <use xlink:href="#prefix__aB"/>
            </mask>
            <path fill="url(#prefix__aC)" d="M17.488.734c-.59.688-.108 6.283-.482 7.112-1.445 1.666-2.135 2.35-3.947 4.335-1.123.64-1.863 1.308-2.407 1.455-.625.169-.97-.267-.99-.816-.025-.614.37-1.7.692-3.3-.006-2.654-.66-4.157-2.078-4.018-.73.072-1.15.46-1.332 1.241-.144.62-.106 1.476-.207 2.561-.313.777-.325 1.227-.43 2.054-.523 1.264-.823 2.24-.996 3.118-.325 1.645-.203 2.943-.252 5.13-.029 1.267.175 1.922.447 3.155-1.283 2.51-3.303 4.053-5.189 6.125l6.11 4.66c2.578-1.7 4.591-3.486 6.81-4.963 1.803-.712 2.436-1.116 2.975-1.679 1.414-1.475 5.581-5.858 5.82-7.58.265-1.913-.244-6.335-.678-8.764C20.436 5.406 18.648.036 17.84.035c-.162 0-.285.218-.352.7" mask="url(#prefix__aD)"/>
        </g>
        <g transform="translate(79.2 296.384)">
            <mask id="prefix__aF" fill="#fff">
                <use xlink:href="#prefix__aE"/>
            </mask>
            <path d="M70.61 3.091c-.453.556-1.933 1.392-2.514 1.805-5.056 3.59-13.252 14.258-19.498 23.16-11.2-5.018-28.618-15.31-37.03-16.608-5.409-.835-8.957 3.631-10.564 8.056-2.506 6.902 2.334 13.047 8.64 16.374 8.944 4.72 28.386 8.108 34.407 9.622 7.154 1.798 10.869 2.77 13.635.99 1.725-1.108 2.62-3.285 5.168-6.998 4.408-6.421 13.863-20.82 15.579-27.051.213-.773.081-2.28.44-2.967.526-1.005 1.045-1.978 1.555-2.91C80.487 4.701 75.91.757 72.75.318c-.69.952-1.407 1.874-2.141 2.773" mask="url(#prefix__aF)"/>
        </g>
        <g transform="translate(44.4 264.384)">
            <mask id="prefix__aI" fill="#fff">
                <use xlink:href="#prefix__aG"/>
            </mask>
            <path fill="url(#prefix__aH)" d="M.357 2.44c1.608 4.738 5.762 8.107 7.839 11.194.552.82.983 2.53 1.088 4.241-.598 3.341-1.867 6.543-3.71 10.647-.994 4.216 14.398 8.768 19.672 6.477l.11-1.021c1.361-6.29 2.697-11.634 3.638-16.052 2.451 1.045 8.47 1.35 9.003.51C25.38 8.36 11.103.326 4.228.326 2.261.326.9.984.358 2.44" mask="url(#prefix__aI)"/>
        </g>
        <g>
            <path fill="#FFA698" d="M39.107 43.31c-1.399.912-11.332-2.391-12.134-2.351-7.728.382-16.044-.246-17.577-2.525-2.077-3.087-6.231-6.456-7.839-11.195-2.57-7.574-2.068-16.118 4.858-22.065 12.042-10.341 30.934-2.762 33.64 8.95 1.108 4.804-.266 5.203-.04 8.42.42 5.928 1.092 3.694.546 13.074-.208 3.575-.527 7.086-1.454 7.691" transform="translate(43.2 239.584)"/>
            <path fill="#FF89DB" d="M8.998 47.67c.424 3.837 11.221 6.542 17.77 5.015.702-.163 1.138-.297 1.389-.742.961.529 3.585 4.315 3.882 6.2C26.38 63.6 8.493 60.402 6.321 54.01c-.52-1.53-.999-4.413 2.677-6.34" transform="translate(43.2 239.584)"/>
        </g>
        <g transform="translate(9.2 235.584)">
            <mask id="prefix__aL" fill="#fff">
                <use xlink:href="#prefix__aJ"/>
            </mask>
            <path fill="url(#prefix__aK)" d="M23.95 11.64c-5.633 9.069-2.574 20.47-10.76 27.316C2.897 47.566-2.902 63.07 1.78 71.866c4.245 7.972 14.6 12.66 11.413 17.707-2.634 4.17-8.832 8.353-1.458 15.088 3.796 3.467 13.069 12.77 31.997 7.95 18.45-4.697 37.81-20.633 22.266-38.059-16.358-18.338-6.789-22.393 2.594-36.814 4.96-7.625 9.395-22.693 5.146-28.298-4.488-5.92-8.049-5.568-11.76-5.217-2.315.22-4.69.439-7.386-.867-4.24-2.053-8.238-2.99-11.922-2.99-7.941 0-14.423 4.354-18.72 11.274" mask="url(#prefix__aL)"/>
        </g>
        <g transform="translate(30 236.384)">
            <mask id="prefix__aO" fill="#fff">
                <use xlink:href="#prefix__aM"/>
            </mask>
            <path fill="url(#prefix__aN)" d="M36.694 5.237c-8.657-5.843-18.94-7.123-27.26-.345-8.517 6.938-11.197 21.28-8.03 34.002 1.498 6.015 14.658 8.224 25.145.8 11.728-8.302 20.343-27.083 10.145-34.457" mask="url(#prefix__aO)"/>
            <g transform="translate(30.4 3.6)">
                <mask id="prefix__aR" fill="#fff">
                    <use xlink:href="#prefix__aP"/>
                </mask>
                <path fill="url(#prefix__aQ)" d="M8.925.274c8.67 15.783.6 27.83-8.709 40.28L2.03 50.17C12.194 38.736 38.403 2.356 8.925.274" mask="url(#prefix__aR)"/>
            </g>
        </g>
    </g>
</svg>
