<?xml version="1.0" encoding="UTF-8"?>
<svg width="469px" height="528px" viewBox="0 0 469 528" version="1.1" xmlns="http://www.w3.org/2000/svg" xmlns:xlink="http://www.w3.org/1999/xlink">
    <!-- Generator: Sketch 63.1 (92452) - https://sketch.com -->
    <title>Group 4</title>
    <desc>Created with Sketch.</desc>
    <defs>
        <path d="M30.3676703,0.426564011 C20.7868866,1.95075005 11.2061028,2.32399356 1.62531906,1.51508254 L0.242887528,71.5275018 C4.03774663,71.5275018 7.83260572,71.5275018 11.6274648,71.5275018 L16.5485569,9.69392725 L20.130134,71.5275018 C24.3294486,71.5275018 28.5287633,71.5275018 32.7280779,71.5275018 L30.3676703,0.426564011" id="path-1"></path>
    </defs>
    <g id="Page-1" stroke="none" stroke-width="1" fill="none" fill-rule="evenodd">
        <g id="home" transform="translate(-1041.000000, -1536.000000)">
            <g id="Group-4" transform="translate(1041.000000, 1536.000000)">
                <g id="Group-2" transform="translate(124.000000, 0.000000)">
                    <path d="M109.564215,290.367064 L109.564215,5.30603985 C109.564215,5.05267185 109.359501,4.84795786 109.106133,4.84795786 C108.852765,4.84795786 108.648051,5.05267185 108.648051,5.30603985 L108.648051,290.367064 C108.648051,290.620432 108.852765,290.826064 109.106133,290.826064 C109.359501,290.826064 109.564215,290.620432 109.564215,290.367064" id="Fill-4" fill="#ABDCEC"></path>
                    <path d="M38.3944309,216.134832 L38.3944309,63.6265782 C38.3944309,63.3732102 38.1887989,63.1684962 37.9363489,63.1684962 C37.6829809,63.1684962 37.4773489,63.3732102 37.4773489,63.6265782 L37.4773489,216.134832 C37.4773489,216.3882 37.6829809,216.592914 37.9363489,216.592914 C38.1887989,216.592914 38.3944309,216.3882 38.3944309,216.134832" id="Fill-5" fill="#ABDCEC"></path>
                    <path d="M125.551184,252.275573 L125.551184,26.0124473 C125.551184,25.7590793 125.34647,25.5534473 125.093102,25.5534473 C124.839734,25.5534473 124.63502,25.7590793 124.63502,26.0124473 L124.63502,252.275573 C124.63502,252.528941 124.839734,252.733655 125.093102,252.733655 C125.34647,252.733655 125.551184,252.528941 125.551184,252.275573" id="Fill-6" fill="#ABDCEC"></path>
                    <path d="M193.552032,252.275573 L193.552032,28.4359672 C193.552032,28.1825992 193.347318,27.9778852 193.09395,27.9778852 C192.8415,27.9778852 192.635868,28.1825992 192.635868,28.4359672 L192.635868,252.275573 C192.635868,252.528941 192.8415,252.733655 193.09395,252.733655 C193.347318,252.733655 193.552032,252.528941 193.552032,252.275573" id="Fill-7" fill="#ABDCEC"></path>
                    <path d="M259.694849,295.672185 L259.694849,33.740171 C259.694849,33.486803 259.490135,33.281171 259.236767,33.281171 C258.983399,33.281171 258.778685,33.486803 258.778685,33.740171 L258.778685,295.672185 C258.778685,295.924635 258.983399,296.130267 259.236767,296.130267 C259.490135,296.130267 259.694849,295.924635 259.694849,295.672185" id="Fill-8" fill="#ABDCEC"></path>
                    <path d="M40.3598688,61.2030582 L39.9017868,61.2030582 C39.8999508,62.2881342 39.0214249,63.1666602 37.9363489,63.1684962 C36.8503549,63.1666602 35.971829,62.2881342 35.969993,61.2030582 C35.971829,60.1170643 36.8503549,59.2385383 37.9363489,59.2367023 C39.0214249,59.2385383 39.8999508,60.1179823 39.9017868,61.2030582 L40.8188688,61.2030582 C40.8179508,59.6112463 39.5281609,58.3205383 37.9363489,58.3205383 C36.343619,58.3205383 35.053829,59.6112463 35.053829,61.2030582 C35.053829,62.7948702 36.343619,64.0846602 37.9363489,64.0846602 C39.5281609,64.0846602 40.8179508,62.7948702 40.8188688,61.2030582 L40.3598688,61.2030582" id="Fill-9" fill="#ABDCEC"></path>
                    <path d="M111.529653,2.88160192 L111.070653,2.88160192 C111.068817,3.96759589 110.191209,4.84612186 109.106133,4.84795786 C108.020139,4.84612186 107.142531,3.96759589 107.140695,2.88160192 C107.142531,1.79652595 108.020139,0.917999974 109.106133,0.916163974 C110.191209,0.917999974 111.068817,1.79652595 111.070653,2.88160192 L111.987735,2.88160192 C111.987735,1.28978996 110.697945,0 109.106133,0 C107.513403,0 106.223613,1.28978996 106.223613,2.88160192 C106.223613,4.47341387 107.513403,5.76412183 109.106133,5.76412183 C110.697945,5.76412183 111.987735,4.47341387 111.987735,2.88160192 L111.529653,2.88160192" id="Fill-10" fill="#ABDCEC"></path>
                    <path d="M127.516622,23.5880093 L127.057622,23.5880093 C127.055786,24.6740033 126.178178,25.5516113 125.093102,25.5534473 C124.007108,25.5516113 123.1295,24.6740033 123.127664,23.5880093 C123.1295,22.5020154 124.007108,21.6244074 125.093102,21.6225714 C126.178178,21.6244074 127.055786,22.5020154 127.057622,23.5880093 L127.974704,23.5880093 C127.974704,21.9961974 126.684914,20.7054894 125.093102,20.7054894 C123.500372,20.7054894 122.210582,21.9961974 122.210582,23.5880093 C122.210582,25.1798213 123.500372,26.4705292 125.093102,26.4705292 C126.684914,26.4705292 127.974704,25.1798213 127.974704,23.5880093 L127.516622,23.5880093" id="Fill-11" fill="#ABDCEC"></path>
                    <path d="M261.661204,30.8604051 L261.202204,30.8604051 C261.200368,31.9454811 260.321842,32.8240071 259.236767,32.8258431 C258.151691,32.8240071 257.273165,31.9454811 257.271329,30.8604051 C257.273165,29.7744111 258.151691,28.8968032 259.236767,28.8940492 C260.321842,28.8968032 261.200368,29.7744111 261.202204,30.8604051 L262.119286,30.8604051 C262.118368,29.2676752 260.828578,27.9778852 259.236767,27.9778852 C257.644955,27.9778852 256.354247,29.2676752 256.354247,30.8604051 C256.355165,32.4522171 257.644955,33.742007 259.236767,33.742007 C260.828578,33.742007 262.118368,32.4522171 262.119286,30.8604051 L261.661204,30.8604051" id="Fill-12" fill="#ABDCEC"></path>
                    <path d="M290.92429,229.458506 L290.92429,51.6009296 C290.92429,51.1438697 290.718658,50.7745785 290.466208,50.7745785 C290.21284,50.7745785 290.007208,51.1438697 290.007208,51.6009296 L290.007208,229.458506 C290.007208,229.915566 290.21284,230.284858 290.466208,230.284858 C290.718658,230.284858 290.92429,229.915566 290.92429,229.458506" id="Fill-13" fill="#ABDCEC"></path>
                    <path d="M292.889728,48.4364326 L292.431646,48.4364326 C292.42981,49.5215086 291.551284,50.4000345 290.466208,50.4018705 C289.380214,50.4000345 288.501688,49.5215086 288.499852,48.4364326 C288.501688,47.3504386 289.380214,46.4728307 290.466208,46.4700767 C291.551284,46.4728307 292.42981,47.3504386 292.431646,48.4364326 L293.34781,48.4364326 C293.34781,46.8437026 292.057102,45.5539127 290.466208,45.5539127 C288.874396,45.5539127 287.583688,46.8437026 287.583688,48.4364326 C287.583688,50.0282446 288.874396,51.3180345 290.466208,51.3189525 C292.057102,51.3180345 293.34781,50.0282446 293.34781,48.4364326 L292.889728,48.4364326" id="Fill-14" fill="#ABDCEC"></path>
                    <path d="M328.827591,252.182855 L328.827591,115.305387 C328.827591,115.052019 328.621959,114.847305 328.369509,114.847305 C328.116141,114.847305 327.910509,115.052019 327.910509,115.305387 L327.910509,252.182855 C327.910509,252.435305 328.116141,252.640937 328.369509,252.640937 C328.621959,252.640937 328.827591,252.435305 328.827591,252.182855" id="Fill-15" fill="#ABDCEC"></path>
                    <path d="M330.793028,112.509159 L330.334946,112.509159 C330.33311,113.594235 329.454585,114.472761 328.369509,114.474597 C327.282597,114.472761 326.404989,113.594235 326.403153,112.509159 C326.404989,111.423165 327.282597,110.545557 328.369509,110.543721 C329.454585,110.545557 330.33311,111.424083 330.334946,112.509159 L331.25111,112.509159 C331.25111,110.917347 329.960402,109.627557 328.369509,109.626639 C326.776779,109.627557 325.486989,110.917347 325.486989,112.509159 C325.486989,114.100971 326.776779,115.390761 328.369509,115.391679 C329.960402,115.390761 331.25111,114.100971 331.25111,112.509159 L330.793028,112.509159" id="Fill-16" fill="#ABDCEC"></path>
                    <path d="M3.3406019,245.683415 L3.3406019,108.806865 C3.3406019,108.553497 3.13588791,108.348783 2.88251992,108.348783 C2.62915192,108.348783 2.42443793,108.553497 2.42443793,108.806865 L2.42443793,245.683415 C2.42443793,245.935865 2.62915192,246.141497 2.88251992,246.141497 C3.13588791,246.141497 3.3406019,245.935865 3.3406019,245.683415" id="Fill-17" fill="#ABDCEC"></path>
                    <path d="M5.30695785,106.010637 L4.84887586,106.010637 C4.84612186,107.095713 3.96851389,107.974239 2.88251992,107.976075 C1.79744395,107.974239 0.918917974,107.095713 0.917081974,106.010637 C0.918917974,104.924643 1.79744395,104.046117 2.88251992,104.044281 C3.96851389,104.046117 4.84612186,104.924643 4.84887586,106.010637 L5.76503983,106.010637 C5.76503983,104.417907 4.47524987,103.128117 2.88251992,103.128117 C1.29070796,103.128117 0.000917999974,104.417907 0,106.010637 C0.000917999974,107.602449 1.29070796,108.892239 2.88251992,108.892239 C4.47524987,108.892239 5.76503983,107.602449 5.76503983,106.010637 L5.30695785,106.010637" id="Fill-18" fill="#ABDCEC"></path>
                    <path d="M195.518388,26.0124473 L195.060306,26.0124473 C195.057552,27.0975232 194.179944,27.9760492 193.09395,27.9778852 C192.008874,27.9760492 191.130348,27.0975232 191.128512,26.0124473 C191.130348,24.9264533 192.008874,24.0479273 193.09395,24.0460913 C194.179944,24.0479273 195.057552,24.9264533 195.060306,26.0124473 L195.97647,26.0124473 C195.97647,24.4197173 194.68668,23.1299273 193.09395,23.1299273 C191.502138,23.1299273 190.212349,24.4197173 190.211431,26.0124473 C190.212349,27.6042592 191.502138,28.8940492 193.09395,28.8940492 C194.68668,28.8940492 195.97647,27.6042592 195.97647,26.0124473 L195.518388,26.0124473" id="Fill-19" fill="#ABDCEC"></path>
                    <path d="M229.665233,188.733451 L229.620251,188.278123 C228.121157,188.425921 226.636751,188.498443 225.16887,188.498443 C213.126546,188.498443 202.228968,183.619273 194.336922,175.727227 C186.444877,167.835181 181.565707,156.937603 181.565707,144.89528 C181.565707,143.427398 181.638229,141.942074 181.786945,140.443898 C183.804709,120.044103 200.31861,103.530201 220.718406,101.513355 C222.216582,101.364639 223.701906,101.292117 225.16887,101.292117 C237.211193,101.293035 248.108771,106.172205 256.000817,114.063333 C263.891944,121.955378 268.771114,132.852956 268.771114,144.89528 C268.771114,146.363162 268.698592,147.847568 268.550794,149.345744 C266.533948,169.745539 250.020047,186.259441 229.620251,188.278123 L229.710215,189.189697 C250.552487,187.122361 267.396868,170.277979 269.462368,149.435708 C269.613838,147.907238 269.688196,146.392538 269.688196,144.89528 C269.687278,120.307569 249.756581,100.375953 225.16887,100.375953 C223.671612,100.375953 222.156912,100.449393 220.628442,100.600863 C199.78617,102.667281 182.942707,119.511663 180.874453,140.353016 C180.722983,141.882404 180.648625,143.397104 180.648625,144.89528 C180.649543,169.482991 200.581158,189.414607 225.16887,189.415525 C226.667045,189.415525 228.181745,189.341167 229.710215,189.189697 L229.665233,188.733451 M313.899075,158.868157 L314.357157,158.868157 L314.357157,130.92332 C314.357157,128.161058 312.213627,125.873402 309.457791,125.693474 L297.072135,124.884716 L297.042759,125.34188 L297.484317,125.221622 C295.800705,119.015025 293.336794,113.134317 290.20825,107.678643 L289.810756,107.907225 L290.155006,108.209247 L298.348155,98.8713511 C299.217501,97.8808292 299.649879,96.6452012 299.648961,95.4159992 C299.649879,94.0729653 299.133045,92.7290133 298.114065,91.7100334 L278.354116,71.9500839 C277.335136,70.931104 275.991184,70.41427 274.64815,70.415188 C273.41803,70.41427 272.182402,70.846648 271.19188,71.7159939 L261.853984,79.9091437 L262.156924,80.2533937 L262.384588,79.8558997 C256.930751,76.7273558 251.049125,74.2634439 244.841609,72.5789139 L244.721351,73.0213899 L245.179433,72.9920139 L244.370675,60.6063583 C244.190747,57.8505223 241.903091,55.7079104 239.140829,55.7079104 L211.195992,55.7079104 C208.434648,55.7079104 206.146992,57.8505223 205.967064,60.6063583 L205.158306,72.9920139 L205.61547,73.0213899 L205.495212,72.5789139 C199.289532,74.2634439 193.406988,76.7273558 187.952233,79.8558997 L188.180815,80.2533937 L188.482837,79.9091437 L179.144941,71.7159939 C178.154419,70.846648 176.918791,70.41427 175.689589,70.415188 C174.345637,70.41427 173.001685,70.931104 171.983623,71.9500839 L152.222756,91.7100334 C151.203776,92.7290133 150.68786,94.0729653 150.68786,95.4159992 C150.68786,96.6452012 151.11932,97.8808292 151.989584,98.8713511 L160.181815,108.209247 L160.526983,107.907225 L160.129489,107.678643 C157.000945,113.134317 154.536116,119.015025 152.852504,125.221622 L153.29498,125.34188 L153.264686,124.884716 L140.87903,125.693474 C138.123194,125.873402 135.980582,128.161058 135.980582,130.92332 L135.980582,158.868157 C135.980582,161.630419 138.123194,163.917157 140.87903,164.098003 L153.264686,164.905843 L153.29498,164.448679 L152.852504,164.568937 C154.536116,170.775535 157.000945,176.657161 160.129489,182.111917 L160.526983,181.884253 L160.181815,181.581313 L151.989584,190.919208 C151.11932,191.90973 150.68786,193.145358 150.68786,194.37456 C150.68786,195.717594 151.203776,197.061546 152.222756,198.081444 L171.983623,217.841394 C173.001685,218.860374 174.345637,219.377208 175.689589,219.37629 C176.918791,219.37629 178.154419,218.94483 179.144941,218.075484 L188.482837,209.882334 L188.180815,209.538084 L187.952233,209.935578 C193.406988,213.063204 199.288614,215.528034 205.495212,217.211646 L205.61547,216.76917 L205.158306,216.799464 L205.967064,229.185119 C206.146992,231.940955 208.434648,234.083567 211.195992,234.083567 L239.140829,234.083567 C241.903091,234.083567 244.190747,231.940955 244.370675,229.185119 L245.179433,216.799464 L244.721351,216.76917 L244.841609,217.211646 C251.049125,215.528034 256.930751,213.063204 262.384588,209.935578 L262.156924,209.538084 L261.853984,209.882334 L271.19188,218.075484 C272.182402,218.94483 273.41803,219.377208 274.647232,219.37629 C275.991184,219.377208 277.335136,218.860374 278.354116,217.841394 L298.114065,198.081444 C299.133045,197.062464 299.649879,195.717594 299.648961,194.37456 C299.649879,193.145358 299.217501,191.90973 298.348155,190.919208 L290.155006,181.581313 L289.810756,181.884253 L290.20825,182.111917 C293.336794,176.657161 295.800705,170.775535 297.484317,164.568937 L297.042759,164.448679 L297.072135,164.905843 L309.457791,164.098003 C312.213627,163.917157 314.357157,161.630419 314.357157,158.868157 L313.440993,158.868157 C313.440993,161.146633 311.672007,163.034959 309.398121,163.182757 L296.685657,164.012629 L296.600283,164.329339 C294.936867,170.457907 292.50325,176.267929 289.413262,181.655671 L289.249858,181.940251 L297.658737,191.52417 C298.377531,192.343026 298.731879,193.358334 298.732797,194.37456 C298.731879,195.48534 298.308681,196.590612 297.465957,197.433336 L277.706008,217.193286 C276.863284,218.035092 275.75893,218.459208 274.647232,218.460126 C273.631006,218.459208 272.615698,218.10486 271.796842,217.386066 L262.212922,208.977186 L261.928342,209.139672 C256.540601,212.22966 250.732415,214.664196 244.602011,216.327612 L244.285301,216.412986 L243.455429,229.125449 C243.307631,231.399335 241.419305,233.167403 239.140829,233.167403 L211.195992,233.167403 C208.917516,233.167403 207.02919,231.399335 206.881392,229.125449 L206.05152,216.412986 L205.735728,216.327612 C199.606242,214.664196 193.79622,212.22966 188.408479,209.139672 L188.124817,208.977186 L178.539979,217.386066 C177.721123,218.10486 176.705815,218.459208 175.689589,218.460126 C174.577891,218.459208 173.473537,218.035092 172.631731,217.193286 L152.870864,197.433336 C152.029058,196.590612 151.604942,195.48534 151.604024,194.37456 C151.604942,193.358334 151.95929,192.343026 152.678084,191.52417 L161.086963,181.940251 L160.924477,181.655671 C157.834489,176.267929 155.399954,170.457907 153.736538,164.329339 L153.651164,164.012629 L140.9387,163.182757 C138.665732,163.034041 136.896746,161.146633 136.897664,158.868157 L136.897664,130.92332 C136.896746,128.643926 138.665732,126.756518 140.9387,126.60872 L153.651164,125.77793 L153.736538,125.462138 C155.399954,119.332653 157.834489,113.523549 160.924477,108.134889 L161.086963,107.850309 L152.678084,98.2673072 C151.95929,97.4475332 151.604942,96.4331432 151.604024,95.4159992 C151.604942,94.3052193 152.029058,93.1999473 152.870864,92.3581413 L172.631731,72.5981919 C173.473537,71.7554679 174.577891,71.3322699 175.689589,71.3313519 C176.705815,71.3322699 177.721123,71.6866179 178.539979,72.4054119 L188.124817,80.8142917 L188.408479,80.6508877 C193.79622,77.5608998 199.606242,75.1272818 205.735728,73.4638659 L206.05152,73.3775739 L206.881392,60.6660283 C207.02919,58.3921423 208.917516,56.6240744 211.195992,56.6240744 L239.140829,56.6240744 C241.419305,56.6240744 243.307631,58.3921423 243.455429,60.6660283 L244.285301,73.3775739 L244.602011,73.4638659 C250.732415,75.1272818 256.540601,77.5608998 261.928342,80.6508877 L262.212922,80.8142917 L271.796842,72.4054119 C272.615698,71.6866179 273.631006,71.3322699 274.64815,71.3313519 C275.75893,71.3322699 276.863284,71.7563859 277.706008,72.5981919 L297.465957,92.3581413 C298.307763,93.1999473 298.731879,94.3052193 298.732797,95.4159992 C298.731879,96.4331432 298.377531,97.4475332 297.658737,98.2673072 L289.249858,107.850309 L289.413262,108.134889 C292.504168,113.523549 294.936867,119.332653 296.600283,125.462138 L296.685657,125.77793 L309.398121,126.60872 C311.672007,126.756518 313.440993,128.643926 313.440993,130.92332 L313.440993,158.868157 L313.899075,158.868157" id="Fill-20" fill="#C3EDFF"></path>
                    <path d="M75.5174318,214.153788 L75.4724498,213.697542 C74.4534699,213.798522 73.4436699,213.848094 72.4467219,213.848094 C64.2618341,213.847176 56.8563284,210.53136 51.4915365,205.168404 C46.1285807,199.803612 42.8127648,192.398106 42.8118468,184.213219 C42.8118468,183.216271 42.8614188,182.206471 42.9623988,181.187491 C44.3329727,167.325691 55.5591944,156.099469 69.421912,154.729814 C70.439974,154.628834 71.4488559,154.579262 72.4467219,154.579262 C80.6316097,154.579262 88.0371155,157.895077 93.4009893,163.258951 C98.7648632,168.622825 102.080679,176.028331 102.080679,184.213219 C102.080679,185.211085 102.032025,186.219967 101.931045,187.238029 C100.560471,201.100746 89.3351674,212.326968 75.4724498,213.697542 L75.5624138,214.610034 C89.8676074,213.189888 101.423391,201.633186 102.842619,187.328911 C102.946353,186.279637 102.997761,185.241379 102.997761,184.213219 C102.996843,167.340379 89.3195614,153.663098 72.4467219,153.663098 C71.4194799,153.663098 70.380304,153.713588 69.33103,153.817322 C55.0267544,155.23655 43.4700527,166.792333 42.0499068,181.097527 C41.9461728,182.145883 41.8956828,183.185977 41.8956828,184.213219 C41.8956828,201.086058 55.5738824,214.764258 72.4467219,214.764258 C73.4739639,214.764258 74.5140579,214.713768 75.5624138,214.610034 L75.5174318,214.153788 M133.046654,193.756746 L133.504736,193.756746 L133.504736,174.670609 C133.504736,172.707925 131.981774,171.083065 130.022762,170.954545 L121.56431,170.401909 L121.534016,170.859073 L121.976492,170.738815 C120.822567,166.487557 119.135283,162.459373 116.992671,158.723113 L116.595177,158.951695 L116.939427,159.253717 L122.534636,152.876372 C123.15245,152.172266 123.45998,151.29374 123.459062,150.420722 C123.45998,149.466002 123.09278,148.510364 122.369396,147.78698 L108.872961,134.291462 C108.149577,133.56716 107.193939,133.19996 106.239219,133.19996 C105.366201,133.19996 104.486757,133.50749 103.783569,134.125304 L97.4062232,139.720514 L97.7082452,140.064764 L97.9359092,139.66727 C94.2005673,137.524658 90.1723834,135.837374 85.9211255,134.683448 L85.8008675,135.125006 L86.2580315,135.09563 L85.7063135,126.637178 C85.5768755,124.678166 83.9520156,123.155204 81.9893316,123.155204 L62.9041122,123.155204 C60.9414282,123.155204 59.3156503,124.678166 59.1871303,126.637178 L58.6344943,135.09563 L59.0925763,135.125006 L58.9723183,134.683448 C54.7210604,135.837374 50.6928765,137.524658 46.9566166,139.66727 L47.1842806,140.064764 L47.4863026,139.720514 L41.1098748,134.125304 C40.4057688,133.50749 39.5263249,133.19996 38.6533069,133.19996 C37.6985869,133.19996 36.7429489,133.56716 36.019565,134.291462 L22.5240474,147.786062 C21.7997454,148.510364 21.4325454,149.466002 21.4334634,150.420722 C21.4325454,151.29374 21.7400754,152.172266 22.3578894,152.876372 L27.9530992,159.253717 L28.2982672,158.951695 L27.9007732,158.723113 C25.7572433,162.459373 24.0699593,166.487557 22.9160333,170.738815 L23.3585093,170.859073 L23.3282153,170.401909 L14.8697636,170.954545 C12.9116696,171.083065 11.3887077,172.707925 11.3887077,174.670609 L11.3887077,193.756746 C11.3887077,195.718512 12.9116696,197.345208 14.8697636,197.47281 L23.3282153,198.025446 L23.3585093,197.568282 L22.9160333,197.687622 C24.0699593,201.93888 25.7572433,205.967064 27.9007732,209.703324 L28.2982672,209.47566 L27.9530992,209.173638 L22.3578894,215.550066 C21.7400754,216.254172 21.4325454,217.132698 21.4334634,218.006634 C21.4325454,218.960436 21.7997454,219.916992 22.5240474,220.640376 L36.019565,234.135893 C36.7438669,234.860195 37.6985869,235.227395 38.6533069,235.227395 C39.5272429,235.227395 40.4057688,234.919865 41.1098748,234.302969 L47.4863026,228.706841 L47.1842806,228.361673 L46.9566166,228.759167 C50.6928765,230.902697 54.7210604,232.589981 58.9723183,233.743907 L59.0925763,233.301431 L58.6344943,233.331725 L59.1871303,241.790177 C59.3147323,243.748271 60.9414282,245.272151 62.9041122,245.272151 L81.9893316,245.272151 C83.9520156,245.272151 85.5768755,243.748271 85.7063135,241.790177 L86.2580315,233.331725 L85.8008675,233.301431 L85.9211255,233.743907 C90.1723834,232.589981 94.2005673,230.902697 97.9359092,228.759167 L97.7082452,228.361673 L97.4062232,228.706841 L103.783569,234.302051 C104.486757,234.919865 105.365283,235.227395 106.239219,235.227395 C107.193939,235.227395 108.149577,234.860195 108.872961,234.135893 L122.369396,220.640376 C123.09278,219.916992 123.45998,218.961354 123.459062,218.006634 C123.45998,217.133616 123.15245,216.254172 122.534636,215.550066 L116.939427,209.173638 L116.595177,209.47566 L116.992671,209.703324 C119.135283,205.967064 120.822567,201.93888 121.976492,197.687622 L121.534016,197.568282 L121.56431,198.025446 L130.022762,197.47281 C131.981774,197.345208 133.504736,195.718512 133.504736,193.756746 L132.588572,193.756746 C132.588572,195.235644 131.440154,196.462092 129.963092,196.558482 L121.177833,197.131314 L121.091541,197.448024 C119.959647,201.62217 118.302657,205.577832 116.197683,209.247996 L116.035197,209.531658 L121.846136,216.155028 C122.31248,216.687468 122.542898,217.346592 122.542898,218.006634 C122.542898,218.728182 122.267498,219.44514 121.721288,219.992268 L108.224853,233.487785 C107.677725,234.034913 106.960767,234.310313 106.239219,234.310313 C105.578259,234.310313 104.920053,234.079895 104.387613,233.613551 L97.7642432,227.801693 L97.4805812,227.964179 C93.8113353,230.069153 89.8556734,231.726143 85.6806095,232.858955 L85.3648175,232.945247 L84.7919856,241.730507 C84.6946776,243.206651 83.4691476,244.355069 81.9893316,244.355069 L62.9041122,244.355069 C61.4242962,244.355069 60.1978483,243.206651 60.1014583,241.730507 L59.5286263,232.945247 L59.2119163,232.858955 C55.0377704,231.726143 51.0821085,230.069153 47.4119446,227.964179 L47.1282826,227.801693 L40.5049128,233.613551 C39.9724728,234.079895 39.3142669,234.310313 38.6533069,234.310313 C37.9317589,234.310313 37.2148009,234.034913 36.6676729,233.487785 L23.1721553,219.992268 C22.6250273,219.44514 22.3496274,218.728182 22.3496274,218.006634 C22.3496274,217.345674 22.5800453,216.687468 23.0463893,216.155028 L28.8582472,209.531658 L28.6957612,209.247996 C26.5907872,205.577832 24.9337973,201.62217 23.8009853,197.448024 L23.7146933,197.131314 L14.9294336,196.558482 C13.4532896,196.462092 12.3048716,195.235644 12.3048716,193.756746 L12.3048716,174.670609 C12.3048716,173.190793 13.4532896,171.965263 14.9294336,171.868873 L23.7146933,171.295123 L23.8009853,170.979331 C24.9337973,166.804267 26.5907872,162.848605 28.6957612,159.179359 L28.8582472,158.894779 L23.0463893,152.27141 C22.5800453,151.739888 22.3496274,151.081682 22.3496274,150.420722 C22.3496274,149.699174 22.6250273,148.982216 23.1721553,148.43417 L36.6676729,134.93957 C37.2148009,134.392442 37.9317589,134.117042 38.6533069,134.117042 C39.3133489,134.117042 39.9724728,134.34746 40.5049128,134.813804 L47.1282826,140.625662 L47.4119446,140.462258 C51.0821085,138.358202 55.0377704,136.701212 59.2119163,135.567482 L59.5286263,135.482108 L60.1014583,126.696848 C60.1978483,125.220704 61.4242962,124.071368 62.9041122,124.072286 L81.9893316,124.072286 C83.4691476,124.071368 84.6946776,125.220704 84.7919856,126.696848 L85.3648175,135.482108 L85.6806095,135.567482 C89.8556734,136.701212 93.8113353,138.358202 97.4805812,140.462258 L97.7642432,140.625662 L104.387613,134.813804 C104.920053,134.34746 105.579177,134.117042 106.239219,134.117042 C106.960767,134.117042 107.677725,134.392442 108.224853,134.93957 L121.721288,148.43417 C122.267498,148.981298 122.542898,149.698256 122.542898,150.420722 C122.542898,151.080764 122.31248,151.739888 121.846136,152.272328 L116.035197,158.894779 L116.197683,159.179359 C118.302657,162.848605 119.959647,166.804267 121.091541,170.978413 L121.177833,171.295123 L129.963092,171.868873 C131.440154,171.965263 132.588572,173.190793 132.588572,174.670609 L132.588572,193.756746 L133.046654,193.756746" id="Fill-21" fill="#C3EDFF"></path>
                    <polyline id="Fill-97" fill="#8BA0C6" points="125.093102 149.826776 124.63502 149.826776 124.63502 89.4370654 125.551184 89.4370654 125.551184 94.8697893 125.093102 94.8697893 125.093102 149.826776"></polyline>
                    <path d="M123.412244,149.826776 L122.479556,149.826776 C122.38592,149.390726 122.18855,148.973954 121.886528,148.615016 L121.886528,147.304112 L122.369396,147.78698 C122.942228,148.359812 123.291986,149.078606 123.412244,149.826776" id="Fill-100" fill="#8299C2"></path>
                    <path d="M193.552032,149.826776 L192.635868,149.826776 L192.635868,115.909431 C192.936054,115.572525 193.241748,115.241127 193.552032,114.913401 L193.552032,149.826776 M192.635868,114.548955 L192.635868,94.8697893 L193.552032,94.8697893 L193.552032,113.596071 C193.241748,113.909109 192.936972,114.226737 192.635868,114.548955" id="Fill-114" fill="#AFD6E8"></path>
                    <g id="Group" transform="translate(20.826665, 112.663383)">
                        <path d="M43.6903727,54.1794404 L10.4899857,54.1794404 C4.69648786,54.1794404 0,49.4829526 0,43.6894547 L0,10.4890677 C0,4.69556986 4.69648786,1.30455643e-14 10.4899857,1.30455643e-14 L43.6903727,1.30455643e-14 C49.4829526,1.30455643e-14 54.1794404,4.69556986 54.1794404,10.4890677 L54.1794404,43.6894547 C54.1794404,49.4829526 49.4829526,54.1794404 43.6903727,54.1794404" id="Fill-129" fill="#44D7B6"></path>
                        <path d="M10.8920697,26.4099412 L13.0392716,26.4099412 C14.1739196,26.4099412 15.3094856,26.0179552 15.3094856,24.6547253 C15.3094856,23.1482873 13.7819336,22.9417373 12.5426336,22.9417373 L10.8920697,22.9417373 L10.8920697,26.4099412 Z M7.67080778,20.2171134 L13.0998596,20.2171134 C16.1347675,20.2171134 18.6528415,21.1874394 18.6528415,24.6547253 C18.6528415,28.0825372 16.3211215,29.1345652 13.2458216,29.1345652 L10.8920697,29.1345652 L10.8920697,34.832591 L7.67080778,34.832591 L7.67080778,20.2171134 L7.67080778,20.2171134 Z" id="Fill-131" fill="#FFFFFF"></path>
                        <polyline id="Fill-132" fill="#FFFFFF" points="20.6751954 20.2171134 23.8964573 20.2171134 23.8964573 25.6663613 30.1526271 25.6663613 30.1526271 20.2171134 33.372053 20.2171134 33.372053 34.832591 30.1526271 34.832591 30.1526271 28.5149152 23.8964573 28.5149152 23.8964573 34.832591 20.6751954 34.832591 20.6751954 20.2171134"></polyline>
                        <path d="M39.5667169,26.4099412 L41.7130008,26.4099412 C42.8485668,26.4099412 43.9832147,26.0179552 43.9832147,24.6547253 C43.9832147,23.1482873 42.4556628,22.9417373 41.2163628,22.9417373 L39.5667169,22.9417373 L39.5667169,26.4099412 Z M36.345455,20.2171134 L41.7735888,20.2171134 C44.8084967,20.2171134 47.3274886,21.1874394 47.3274886,24.6547253 C47.3274886,28.0825372 44.9948507,29.1345652 41.9195508,29.1345652 L39.5667169,29.1345652 L39.5667169,34.832591 L36.345455,34.832591 L36.345455,20.2171134 L36.345455,20.2171134 Z" id="Fill-133" fill="#FFFFFF"></path>
                    </g>
                    <path d="M66.4824761,170.050315 L66.4824761,169.592233 L29.3512132,169.592233 C26.2364392,169.591315 23.4209333,168.330901 21.3793014,166.290187 C19.3385874,164.248555 18.0772555,161.433049 18.0772555,158.319193 L18.0772555,121.187013 C18.0772555,118.073157 19.3385874,115.257651 21.3793014,113.216019 C23.4209333,111.175305 26.2364392,109.913973 29.3512132,109.913973 L66.4824761,109.913973 C69.59725,109.913973 72.4127559,111.175305 74.4543879,113.216019 C76.4951018,115.257651 77.7555158,118.073157 77.7555158,121.187013 L77.7555158,158.319193 C77.7555158,161.433049 76.4951018,164.248555 74.4543879,166.290187 C72.4127559,168.330901 69.59725,169.591315 66.4824761,169.592233 L66.4824761,170.508397 C73.2150879,170.508397 78.6716797,165.051805 78.6725977,158.319193 L78.6725977,121.187013 C78.6716797,114.454401 73.2150879,108.997809 66.4824761,108.996891 L29.3512132,108.996891 C22.6186013,108.997809 17.1610915,114.454401 17.1610915,121.187013 L17.1610915,158.319193 C17.1610915,165.051805 22.6186013,170.508397 29.3512132,170.508397 L66.4824761,170.508397 L66.4824761,170.050315" id="Fill-130" fill="#44D7B6"></path>
                    <path d="M243.690373,170.180358 L210.489986,170.180358 C204.696488,170.180358 200,165.484789 200,159.690373 L200,126.489986 C200,120.696488 204.696488,116 210.489986,116 L243.690373,116 C249.483871,116 254.180358,120.696488 254.180358,126.489986 L254.180358,159.690373 C254.180358,165.484789 249.483871,170.180358 243.690373,170.180358" id="Fill-134" fill="#291865"></path>
                    <path d="M245.594704,173.728671 L245.594704,173.270589 L208.462523,173.270589 C205.347749,173.269671 202.532243,172.009257 200.490611,169.968543 C198.449897,167.926911 197.189483,165.111405 197.188565,161.997549 L197.188565,124.865368 C197.189483,121.750595 198.449897,118.935089 200.490611,116.893457 C202.532243,114.852743 205.347749,113.592329 208.462523,113.591411 L245.594704,113.591411 C248.70856,113.592329 251.524066,114.852743 253.565697,116.893457 C255.606411,118.935089 256.866825,121.750595 256.867743,124.865368 L256.867743,161.997549 C256.866825,165.111405 255.606411,167.926911 253.565697,169.968543 C251.524066,172.009257 248.70856,173.269671 245.594704,173.270589 L245.594704,174.186753 C252.326398,174.186753 257.783907,168.729243 257.783907,161.997549 L257.783907,124.865368 C257.783907,118.132757 252.326398,112.675247 245.594704,112.675247 L208.462523,112.675247 C201.729911,112.675247 196.272401,118.132757 196.272401,124.865368 L196.272401,161.997549 C196.272401,168.729243 201.729911,174.186753 208.462523,174.186753 L245.594704,174.186753 L245.594704,173.728671" id="Fill-135" fill="#749AC4"></path>
                    <path d="M236.737971,92.2999633 L213.200451,92.2999633 C209.093319,92.2999633 205.763733,88.9703774 205.763733,84.8632455 L205.763733,61.3248082 C205.763733,57.2176763 209.093319,53.8880904 213.200451,53.8880904 L236.737971,53.8880904 C240.84602,53.8880904 244.175606,57.2176763 244.175606,61.3248082 L244.175606,84.8632455 C244.175606,88.9703774 240.84602,92.2999633 236.737971,92.2999633" id="Fill-139" fill="#F13624"></path>
                    <path d="M238.132413,94.5747672 L238.132413,94.1166852 L211.806927,94.1166852 C209.634939,94.1157672 207.673173,93.2372412 206.249355,91.8143413 C204.826456,90.3905233 203.94793,88.4287574 203.94793,86.2567694 L203.94793,59.9312842 C203.94793,57.7592963 204.826456,55.7975303 206.249355,54.3737124 C207.673173,52.9508124 209.634939,52.0722864 211.806927,52.0722864 L238.132413,52.0722864 C240.3044,52.0722864 242.266166,52.9508124 243.689984,54.3737124 C245.112884,55.7975303 245.99141,57.7592963 245.99141,59.9312842 L245.99141,86.2567694 C245.99141,88.4287574 245.112884,90.3905233 243.689984,91.8143413 C242.266166,93.2372412 240.3044,94.1157672 238.132413,94.1166852 L238.132413,95.0328492 C242.979452,95.0328492 246.907574,91.1038093 246.908492,86.2567694 L246.908492,59.9312842 C246.907574,55.0842443 242.979452,51.1561224 238.132413,51.1552044 L211.806927,51.1552044 C206.959887,51.1561224 203.031766,55.0842443 203.030848,59.9312842 L203.030848,86.2567694 C203.031766,91.1038093 206.959887,95.0328492 211.806927,95.0328492 L238.132413,95.0328492 L238.132413,94.5747672" id="Fill-140" fill="#F13624"></path>
                    <polyline id="Fill-141" fill="#FFFFFF" points="210.739293 68.7936559 212.513787 68.7936559 212.513787 71.7955159 215.958123 71.7955159 215.958123 68.7936559 217.731699 68.7936559 217.731699 76.8435977 215.958123 76.8435977 215.958123 73.3643778 212.513787 73.3643778 212.513787 76.8435977 210.739293 76.8435977 210.739293 68.7936559"></polyline>
                    <polyline id="Fill-142" fill="#FFFFFF" points="220.930011 70.3625179 218.633175 70.3625179 218.633175 68.7936559 225.000423 68.7936559 225.000423 70.3625179 222.703587 70.3625179 222.703587 76.8435977 220.930011 76.8435977 220.930011 70.3625179"></polyline>
                    <polyline id="Fill-143" fill="#FFFFFF" points="225.900981 68.7936559 228.584295 68.7936559 230.437737 74.0464518 230.459769 74.0464518 232.326063 68.7936559 234.996525 68.7936559 234.996525 76.8435977 233.222949 76.8435977 233.222949 70.6700479 233.200917 70.6700479 231.085845 76.8435977 229.732713 76.8435977 227.698425 70.6700479 227.674557 70.6700479 227.674557 76.8435977 225.900981 76.8435977 225.900981 68.7936559"></polyline>
                    <polyline id="Fill-144" fill="#FFFFFF" points="236.706759 68.7936559 238.480335 68.7936559 238.480335 75.2058858 241.766774 75.2058858 241.766774 76.8435977 236.706759 76.8435977 236.706759 68.7936559"></polyline>
                    <path d="M128.28407,106.536651 L95.0846013,106.536651 C89.2901854,106.536651 84.5946156,101.841081 84.5946156,96.0475832 L84.5946156,62.8471962 C84.5946156,57.0536984 89.2901854,52.3572105 95.0846013,52.3572105 L128.28407,52.3572105 C134.077568,52.3572105 138.773138,57.0536984 138.773138,62.8471962 L138.773138,96.0475832 C138.773138,101.841081 134.077568,106.536651 128.28407,106.536651" id="Fill-145" fill="#5194FA"></path>
                    <path d="M130.249508,109.745061 L130.249508,109.286061 L93.1182453,109.286061 C90.0034714,109.286061 87.1879655,108.025647 85.1463335,105.984015 C83.1056196,103.942383 81.8442876,101.127795 81.8442876,98.0130212 L81.8442876,60.8808402 C81.8442876,57.7669843 83.1056196,54.9514784 85.1463335,52.9098465 C87.1879655,50.8691325 90.0034714,49.6078006 93.1182453,49.6078006 L130.249508,49.6078006 C133.364282,49.6078006 136.179788,50.8691325 138.22142,52.9098465 C140.262134,54.9514784 141.523466,57.7669843 141.523466,60.8808402 L141.523466,98.0130212 C141.523466,101.126877 140.262134,103.942383 138.22142,105.984015 C136.179788,108.025647 133.364282,109.286061 130.249508,109.286061 L130.249508,110.203143 C136.98212,110.202225 142.43963,104.745633 142.440548,98.0130212 L142.440548,60.8808402 C142.43963,54.1482284 136.98212,48.6916366 130.249508,48.6916366 L93.1182453,48.6916366 C86.3847155,48.6916366 80.9281237,54.1491464 80.9272057,60.8808402 L80.9272057,98.0130212 C80.9281237,104.745633 86.3847155,110.202225 93.1182453,110.203143 L130.249508,110.203143 L130.249508,109.745061" id="Fill-146" fill="#5194FA"></path>
                    <path d="M142.479913,170.150903 L117.949118,170.150903 C113.668484,170.150903 110.198444,166.680863 110.198444,162.400229 L110.198444,137.870352 C110.198444,133.589718 113.668484,130.11876 117.949118,130.11876 L142.479913,130.11876 C146.760547,130.11876 150.229669,133.589718 150.229669,137.870352 L150.229669,162.400229 C150.229669,166.680863 146.760547,170.150903 142.479913,170.150903" id="Fill-151" fill="#F1B74E"></path>
                    <path d="M143.932189,172.521179 L143.932189,172.063097 L116.496842,172.063097 C114.228464,172.062179 112.17857,171.144179 110.69141,169.657937 C109.20425,168.170777 108.28625,166.121801 108.28625,163.852505 L108.28625,136.418076 C108.28625,134.14878 109.20425,132.098886 110.69141,130.611726 C112.17857,129.125484 114.228464,128.207484 116.496842,128.207484 L143.932189,128.207484 C146.200567,128.207484 148.250461,129.125484 149.737621,130.611726 C151.223863,132.098886 152.141863,134.14878 152.141863,136.418076 L152.141863,163.852505 C152.141863,166.121801 151.223863,168.170777 149.737621,169.657937 C148.250461,171.144179 146.200567,172.062179 143.932189,172.063097 L143.932189,172.979261 C148.972927,172.979261 153.058027,168.893243 153.058945,163.852505 L153.058945,136.418076 C153.058027,131.37642 148.972927,127.290402 143.932189,127.290402 L116.496842,127.290402 C111.456104,127.290402 107.370086,131.37642 107.370086,136.418076 L107.370086,163.852505 C107.370086,168.893243 111.456104,172.979261 116.496842,172.979261 L143.932189,172.979261 L143.932189,172.521179" id="Fill-152" fill="#F1B74E"></path>
                    <path d="M127.560578,151.763364 C127.560578,154.632114 126.815162,157.349394 122.608886,157.349394 C120.15599,157.349394 118.359464,156.210156 117.855482,153.735228 L120.987698,152.96778 C121.075826,153.713196 121.77626,154.32642 122.522594,154.32642 C124.120832,154.32642 124.142864,152.551926 124.142864,151.390656 L124.142864,141.444126 L127.560578,141.444126 L127.560578,151.763364" id="Fill-153" fill="#FFFFFF"></path>
                    <path d="M138.160724,145.234548 C137.612678,144.534114 136.518422,144.20547 135.685796,144.20547 C134.721896,144.20547 133.385288,144.643356 133.385288,145.803708 C133.385288,148.63023 140.526409,146.81259 140.526409,152.245314 C140.526409,155.706174 137.74487,157.349394 134.54564,157.349394 C132.551744,157.349394 130.8002,156.758202 129.332318,155.399562 L131.7641,152.726346 C132.465452,153.6471 133.60469,154.195146 134.74301,154.195146 C135.860216,154.195146 137.109614,153.669132 137.109614,152.57304 C137.109614,149.726322 129.8363,151.259382 129.8363,146.089206 C129.8363,142.780734 132.705968,141.051222 135.750974,141.051222 C137.503436,141.051222 139.190719,141.51114 140.505295,142.671492 L138.160724,145.234548" id="Fill-154" fill="#FFFFFF"></path>
                    <path d="M300.966291,252.170003 L300.354903,252.170003 C300.353067,253.171541 299.543391,253.981217 298.541853,253.983053 C297.541233,253.981217 296.730639,253.171541 296.728803,252.170003 C296.730639,251.169383 297.541233,250.358789 298.541853,250.356953 C299.542473,250.358789 300.353067,251.169383 300.354903,252.170003 L301.577679,252.170003 C301.576761,250.493735 300.218121,249.135095 298.541853,249.135095 C296.865585,249.135095 295.507863,250.493735 295.506945,252.170003 C295.507863,253.847189 296.866503,255.204911 298.541853,255.204911 C300.218121,255.204911 301.576761,253.847189 301.577679,252.170003 L300.966291,252.170003" id="Fill-155" fill="#84B2D4"></path>
                    <path d="M265.944592,94.8697893 L265.333204,94.8697893 C265.331368,95.8704092 264.520774,96.6810032 263.520154,96.6828392 C262.519534,96.6810032 261.70894,95.8704092 261.707104,94.8697893 C261.70894,93.8691693 262.519534,93.0585753 263.520154,93.0567393 C264.520774,93.0585753 265.331368,93.8691693 265.333204,94.8697893 L266.555062,94.8697893 C266.555062,93.1935213 265.196422,91.8357994 263.520154,91.8348814 C261.843886,91.8357994 260.485246,93.1935213 260.485246,94.8697893 C260.485246,96.5460572 261.843886,97.9046972 263.520154,97.9046972 C265.196422,97.9046972 266.555062,96.5460572 266.555062,94.8697893 L265.944592,94.8697893" id="Fill-156" fill="#84B2D4"></path>
                    <path d="M284.813164,153.91004 C284.813164,154.77755 284.109976,155.480738 283.241548,155.480738 C282.374038,155.480738 281.669932,154.77755 281.669932,153.91004 C281.669932,153.04253 282.374038,152.338424 283.241548,152.338424 C284.109976,152.338424 284.813164,153.04253 284.813164,153.91004" id="Fill-157" fill="#C3EDFF"></path>
                    <path d="M44.6395847,244.813151 C44.6395847,245.681579 43.9363967,246.384767 43.0688868,246.384767 C42.2004588,246.384767 41.4972708,245.681579 41.4972708,244.813151 C41.4972708,243.945641 42.2004588,243.241535 43.0688868,243.241535 C43.9363967,243.241535 44.6395847,243.945641 44.6395847,244.813151" id="Fill-158" fill="#E8855C"></path>
                    <path d="M64.2333761,94.8697893 C64.2333761,95.7382172 63.5301882,96.4414052 62.6626782,96.4414052 C61.7951682,96.4414052 61.0910622,95.7382172 61.0910622,94.8697893 C61.0910622,94.0022793 61.7951682,93.2981733 62.6626782,93.2981733 C63.5301882,93.2981733 64.2333761,94.0022793 64.2333761,94.8697893" id="Fill-159" fill="#F9FBFF"></path>
                    <path d="M274.335112,257.631185 C274.335112,258.499613 273.631924,259.201883 272.763496,259.201883 C271.895986,259.201883 271.19188,258.499613 271.19188,257.631185 C271.19188,256.763675 271.895986,256.059569 272.763496,256.059569 C273.631924,256.059569 274.335112,256.763675 274.335112,257.631185" id="Fill-160" fill="#E8855C"></path>
                    <path d="M105.214731,121.189767 L104.603343,121.189767 C104.601507,122.191304 103.791831,123.00098 102.790293,123.002816 C101.789673,123.00098 100.979079,122.190386 100.977243,121.189767 C100.979079,120.188229 101.789673,119.378553 102.790293,119.376717 C103.791831,119.378553 104.601507,120.188229 104.603343,121.189767 L105.825201,121.189767 C105.825201,119.513499 104.467479,118.154859 102.790293,118.154859 C101.114025,118.154859 99.7553851,119.512581 99.7553851,121.189767 C99.7553851,122.866034 101.114025,124.224674 102.790293,124.224674 C104.467479,124.224674 105.825201,122.866034 105.825201,121.189767 L105.214731,121.189767" id="Fill-161" fill="#84B2D4"></path>
                    <path d="M20.0426934,251.264855 L19.4322234,251.264855 C19.4303874,252.265475 18.6197935,253.076069 17.6191735,253.077905 C16.6185535,253.076069 15.8079595,252.265475 15.8061235,251.264855 C15.8079595,250.264235 16.6185535,249.453641 17.6191735,249.451805 C18.6197935,249.453641 19.4303874,250.264235 19.4322234,251.264855 L20.6540814,251.264855 C20.6540814,249.588587 19.2954414,248.229947 17.6191735,248.229029 C15.9429055,248.229947 14.5842656,249.588587 14.5842656,251.264855 C14.5842656,252.941123 15.9429055,254.298845 17.6191735,254.299763 C19.2954414,254.298845 20.6540814,252.941123 20.6540814,251.264855 L20.0426934,251.264855" id="Fill-162" fill="#84B2D4"></path>
                    <path d="M47.9168446,94.8697893 L47.3054566,94.8697893 C47.3036206,95.8713272 46.4939447,96.6810032 45.4924067,96.6828392 C44.4917867,96.6810032 43.6811927,95.8704092 43.6793567,94.8697893 C43.6811927,93.8691693 44.4917867,93.0585753 45.4924067,93.0567393 C46.4939447,93.0585753 47.3036206,93.8691693 47.3054566,94.8697893 L48.5273146,94.8697893 C48.5273146,93.1935213 47.1695926,91.8348814 45.4924067,91.8348814 C43.8161387,91.8357994 42.4574988,93.1935213 42.4574988,94.8697893 C42.4574988,96.5460572 43.8161387,97.9046972 45.4924067,97.9046972 C47.1695926,97.9046972 48.5273146,96.5460572 48.5273146,94.8697893 L47.9168446,94.8697893" id="Fill-163" fill="#84B2D4"></path>
                </g>
                <g id="Group" transform="translate(0.000000, 186.000000)">
                    <path d="M457.776012,329.170011 L10.4040003,329.170011 C4.65839112,329.170011 0,324.51162 0,318.766011 L0,21.3936733 C0,15.6480641 4.65839112,10.989673 10.4040003,10.989673 L457.776012,10.989673 C463.521621,10.989673 468.180012,15.6480641 468.180012,21.3936733 L468.180012,318.766011 C468.180012,324.51162 463.521621,329.170011 457.776012,329.170011" id="Fill-28" fill="#000000"></path>
                    <path d="M447.834412,317.907681 L20.3456005,317.907681 C14.8553518,317.907681 10.4040003,313.414178 10.4040003,307.871941 L10.4040003,21.0254127 C10.4040003,15.4831754 14.8553518,10.989673 20.3456005,10.989673 L447.834412,10.989673 C453.32466,10.989673 457.776012,15.4831754 457.776012,21.0254127 L457.776012,307.871941 C457.776012,313.414178 453.32466,317.907681 447.834412,317.907681" id="Fill-28-Copy" fill="#FFFFFF"></path>
                    <path d="M448.161415,196.959877 L367.066134,196.959877 C365.090675,196.959877 363.489759,195.358962 363.489759,193.383502 L363.489759,141.364801 C363.489759,139.389342 365.090675,137.788426 367.066134,137.788426 L448.161415,137.788426 C450.136875,137.788426 451.73779,139.389342 451.73779,141.364801 L451.73779,193.383502 C451.73779,195.358962 450.136875,196.959877 448.161415,196.959877" id="Fill-29" fill="#C3EDFF"></path>
                    <path d="M442.261046,187.75884 L372.966503,187.75884 C371.771344,187.75884 370.802471,186.789967 370.802471,185.594807 L370.802471,170.943374 C370.802471,169.748215 371.771344,168.779342 372.966503,168.779342 L442.261046,168.779342 C443.456206,168.779342 444.425078,169.748215 444.425078,170.943374 L444.425078,185.594807 C444.425078,186.789967 443.456206,187.75884 442.261046,187.75884" id="Fill-30" fill="#FFFFFF"></path>
                    <path d="M433.070413,144.132265 C433.930043,144.132265 434.628412,144.829333 434.628412,145.688964 C434.628412,146.548594 433.930043,147.245663 433.070413,147.245663 C432.210782,147.245663 431.513714,146.548594 431.513714,145.688964 C431.513714,144.829333 432.210782,144.132265 433.070413,144.132265" id="Fill-31" fill="#FFFFFF"></path>
                    <path d="M438.748396,144.132265 C439.608026,144.132265 440.305094,144.829333 440.305094,145.688964 C440.305094,146.548594 439.608026,147.245663 438.748396,147.245663 C437.887465,147.245663 437.190397,146.548594 437.190397,145.688964 C437.190397,144.829333 437.887465,144.132265 438.748396,144.132265" id="Fill-32" fill="#FFFFFF"></path>
                    <path d="M444.425078,144.132265 C445.284709,144.132265 445.981777,144.829333 445.981777,145.688964 C445.981777,146.548594 445.284709,147.245663 444.425078,147.245663 C443.565448,147.245663 442.86838,146.548594 442.86838,145.688964 C442.86838,144.829333 443.565448,144.132265 444.425078,144.132265" id="Fill-33" fill="#FFFFFF"></path>
                    <path d="M383.046679,156.537735 C383.046679,159.783783 380.415767,162.415995 377.169719,162.415995 C373.922371,162.415995 371.291459,159.783783 371.291459,156.537735 C371.291459,153.291687 373.922371,150.659475 377.169719,150.659475 C380.415767,150.659475 383.046679,153.291687 383.046679,156.537735" id="Fill-34" fill="#FFFFFF"></path>
                    <path d="M443.068657,160.124514 L389.928925,160.124514 C389.450341,160.124514 389.061492,159.736965 389.061492,159.258381 L389.061492,153.622014 C389.061492,153.14343 389.450341,152.755881 389.928925,152.755881 L443.068657,152.755881 C443.547241,152.755881 443.93609,153.14343 443.93609,153.622014 L443.93609,159.258381 C443.93609,159.736965 443.548541,160.124514 443.068657,160.124514" id="Fill-35" fill="#FFFFFF"></path>
                    <path d="M468.180012,36.9996737 L468.180012,21.3936733 C468.180012,15.6480641 463.521621,10.989673 457.776012,10.989673 L10.4040003,10.989673 C4.65839112,10.989673 0,15.6480641 0,21.3936733 L0,36.9996737 L468.180012,36.9996737" id="Fill-36" fill="#000000"></path>
                    <polygon id="Fill-37" fill="#F9D94F" points="10.4040003 113.218426 457.776012 113.218426 457.776012 37.6184225 10.4040003 37.6184225"></polygon>
                    <path d="M30.1226053,47.8465337 L29.6676075,47.2081264 L23.6186933,51.8273157 L23.5123567,51.9257765 C23.1504035,52.3280896 22.9499999,52.8574489 22.9499999,53.4079825 L22.9499999,61.0307565 C22.9499999,61.9698399 23.6841312,62.7289411 24.5900369,62.7299999 L28.1461767,62.7299999 C29.0531049,62.7289411 29.7862137,61.9698399 29.7872361,61.0307565 L29.7872361,56.1945299 C29.7851912,55.8546812 29.9027749,55.5127151 30.0919313,55.2617988 C30.2831326,55.0098238 30.5234123,54.8552509 30.8045907,54.8129021 L30.9824999,54.8001975 C31.6419911,54.8012562 32.1767413,55.3549661 32.1777637,56.0378396 L32.1777637,61.0307565 C32.1787862,61.9698399 32.911895,62.7289411 33.8188231,62.7299999 L37.3739405,62.7299999 C38.2808687,62.7289411 39.0139774,61.9698399 39.0149999,61.0307565 L39.0149999,53.4079825 C39.0149999,52.8574489 38.8135739,52.3280896 38.4526431,51.9257765 L38.3463066,51.8273157 L32.2973924,47.2081264 L31.8423946,47.8465337 L32.4037289,47.3055285 C32.0223488,46.8809824 31.4988457,46.663945 30.9835224,46.6649999 C30.4681991,46.663945 29.9426511,46.8799236 29.5612709,47.3065872 L30.1226053,47.8465337 L29.6676075,47.2081264 L30.1226053,47.8465337 L30.6839396,48.3875389 C30.7667594,48.2954304 30.8700286,48.2541404 30.9835224,48.2530817 C31.0949713,48.2541404 31.197218,48.2954304 31.2810603,48.3875389 L31.3873968,48.4859998 L37.4352885,53.105189 L37.8902863,52.4667817 L37.328952,53.0067282 C37.4271088,53.1157762 37.4812996,53.2597619 37.4812996,53.4079825 L37.4812996,61.0307565 L37.3739405,61.1419219 L33.8188231,61.1419219 L33.7114641,61.0307565 L33.7114641,56.0378396 C33.7114641,54.4772883 32.4896161,53.2131783 30.9824999,53.2121196 C30.8526466,53.2121196 30.7217709,53.2216481 30.5898726,53.240705 C29.8761907,53.3444594 29.2790701,53.7531248 28.8792855,54.2888364 C28.4784785,54.8256068 28.2545582,55.4947169 28.2535358,56.1945299 L28.2535358,61.0307565 L28.1461767,61.1419219 L24.5900369,61.1419219 L24.4837003,61.0307565 L24.4837003,53.4079825 C24.4837003,53.2587032 24.537891,53.1157762 24.6360479,53.0067282 L24.0736911,52.4667817 L24.5286888,53.105189 L30.577603,48.4859998 L30.6839396,48.3875389 L30.1226053,47.8465337" id="Fill-43" fill="#000000"></path>
                    <path d="M350.159634,95.162175 L118.020378,95.162175 C116.403856,95.162175 115.094253,93.8525715 115.094253,92.2360499 L115.094253,77.2802996 C115.094253,75.6650785 116.403856,74.3541745 118.020378,74.3541745 L350.159634,74.3541745 C351.776156,74.3541745 353.085759,75.6650785 353.085759,77.2802996 L353.085759,92.2360499 C353.085759,93.8525715 351.776156,95.162175 350.159634,95.162175" id="Fill-46" fill="#FFFFFF"></path>
                    <path d="M350.159634,74.3271742 L330.327008,74.3271742 L330.327008,95.027175 L350.159634,95.027175 C351.776156,95.027175 353.085759,93.7243687 353.085759,92.1162374 L353.085759,77.2381118 C353.085759,75.6312742 351.776156,74.3271742 350.159634,74.3271742" id="Fill-47" fill="#F13624"></path>
                    <path d="M346.177503,85.1746407 L345.202128,85.1746407 C345.198226,87.1045828 343.636326,88.6664833 341.706384,88.6690843 C339.776442,88.6664833 338.214541,87.1045828 338.21064,85.1746407 C338.214541,83.2446987 339.776442,81.6827981 341.706384,81.6788966 C343.636326,81.6827981 345.198226,83.2446987 345.202128,85.1746407 L347.151577,85.1746407 C347.151577,82.1665842 344.71444,79.7294471 341.706384,79.7281466 C338.698327,79.7294471 336.26119,82.1665842 336.26119,85.1746407 C336.26119,88.1826973 338.698327,90.6198344 341.706384,90.6198344 C344.71444,90.6198344 347.151577,88.1826973 347.151577,85.1746407 L346.177503,85.1746407" id="Fill-48" fill="#FFFFFF"></path>
                    <path d="M346.792639,89.7068833 L345.302266,87.9759178 C344.951131,87.5675608 344.334694,87.5220433 343.926337,87.8731783 C343.51798,88.2243133 343.472463,88.8407503 343.823598,89.2491073 L345.313971,90.9787724 C345.665106,91.3871294 346.281543,91.4339474 346.6899,91.0815119 C347.098257,90.7303769 347.143774,90.1152404 346.792639,89.7068833" id="Fill-49" fill="#FFFFFF"></path>
                    <path d="M27.1479382,145.688964 C27.1479382,148.935012 24.5170266,151.567224 21.269678,151.567224 C18.02363,151.567224 15.3927184,148.935012 15.3927184,145.688964 C15.3927184,142.442916 18.02363,139.810704 21.269678,139.810704 C24.5170266,139.810704 27.1479382,142.442916 27.1479382,145.688964" id="Fill-50" fill="#F0C300"></path>
                    <path d="M448.161415,312.930667 L367.066134,312.930667 C365.090675,312.930667 363.489759,311.329752 363.489759,309.354292 L363.489759,211.604808 C363.489759,209.629349 365.090675,208.028433 367.066134,208.028433 L448.161415,208.028433 C450.136875,208.028433 451.73779,209.629349 451.73779,211.604808 L451.73779,309.354292 C451.73779,311.329752 450.136875,312.930667 448.161415,312.930667" id="Fill-51" fill="#C3EDFF"></path>
                    <path d="M80.4138186,149.275743 L34.0301844,149.275743 C33.5502999,149.275743 33.1627509,148.888194 33.1627509,148.40961 L33.1627509,142.773243 C33.1627509,142.294659 33.5502999,141.90711 34.0301844,141.90711 L80.4138186,141.90711 C80.8924026,141.90711 81.2812521,142.294659 81.2812521,142.773243 L81.2812521,148.40961 C81.2812521,148.888194 80.8924026,149.275743 80.4138186,149.275743" id="Fill-52" fill="#C3EDFF"></path>
                    <path d="M127.774128,57.9975472 L64.6998767,57.9975472 C64.2212927,57.9975472 63.8324431,57.6099982 63.8324431,57.1301137 L63.8324431,51.495047 C63.8324431,51.016463 64.2212927,50.6276135 64.6998767,50.6276135 L127.774128,50.6276135 C128.252712,50.6276135 128.641562,51.016463 128.641562,51.495047 L128.641562,57.1301137 C128.641562,57.6099982 128.252712,57.9975472 127.774128,57.9975472" id="Fill-53" fill="#F13624"></path>
                    <path d="M27.1479382,162.920589 C27.1479382,166.166637 24.5170266,168.79885 21.269678,168.79885 C18.02363,168.79885 15.3927184,166.166637 15.3927184,162.920589 C15.3927184,159.674541 18.02363,157.042329 21.269678,157.042329 C24.5170266,157.042329 27.1479382,159.674541 27.1479382,162.920589" id="Fill-54" fill="#1DCBA4"></path>
                    <path d="M80.4138186,166.508669 L34.0301844,166.508669 C33.5502999,166.508669 33.1627509,166.119819 33.1627509,165.641235 L33.1627509,160.006169 C33.1627509,159.526284 33.5502999,159.138735 34.0301844,159.138735 L80.4138186,159.138735 C80.8924026,159.138735 81.2812521,159.526284 81.2812521,160.006169 L81.2812521,165.641235 C81.2812521,166.119819 80.8924026,166.508669 80.4138186,166.508669" id="Fill-55" fill="#C3EDFF"></path>
                    <path d="M47.4695517,183.740294 L16.2588514,183.740294 C15.7802674,183.740294 15.3927184,183.351445 15.3927184,182.872861 L15.3927184,180.922111 C15.3927184,180.443527 15.7802674,180.054677 16.2588514,180.054677 L47.4695517,180.054677 C47.9481357,180.054677 48.3369852,180.443527 48.3369852,180.922111 L48.3369852,182.872861 C48.3369852,183.351445 47.9481357,183.740294 47.4695517,183.740294" id="Fill-56" fill="#F577B6"></path>
                    <path d="M27.1479382,197.38384 C27.1479382,200.629888 24.5170266,203.2621 21.269678,203.2621 C18.02363,203.2621 15.3927184,200.629888 15.3927184,197.38384 C15.3927184,194.137792 18.02363,191.50558 21.269678,191.50558 C24.5170266,191.50558 27.1479382,194.137792 27.1479382,197.38384" id="Fill-57" fill="#FFFFFF"></path>
                    <path d="M80.4138186,200.97192 L34.0301844,200.97192 C33.5502999,200.97192 33.1627509,200.58307 33.1627509,200.104486 L33.1627509,194.46942 C33.1627509,193.989535 33.5502999,193.601986 34.0301844,193.601986 L80.4138186,193.601986 C80.8924026,193.601986 81.2812521,193.989535 81.2812521,194.46942 L81.2812521,200.104486 C81.2812521,200.58307 80.8924026,200.97192 80.4138186,200.97192" id="Fill-58" fill="#C3EDFF"></path>
                    <path d="M27.1479382,214.615466 C27.1479382,217.861514 24.5170266,220.493726 21.269678,220.493726 C18.02363,220.493726 15.3927184,217.861514 15.3927184,214.615466 C15.3927184,211.369418 18.02363,208.737206 21.269678,208.737206 C24.5170266,208.737206 27.1479382,211.369418 27.1479382,214.615466" id="Fill-59" fill="#5194FA"></path>
                    <path d="M80.4138186,218.203545 L34.0301844,218.203545 C33.5502999,218.203545 33.1627509,217.814696 33.1627509,217.336112 L33.1627509,211.701045 C33.1627509,211.221161 33.5502999,210.833612 34.0301844,210.833612 L80.4138186,210.833612 C80.8924026,210.833612 81.2812521,211.221161 81.2812521,211.701045 L81.2812521,217.336112 C81.2812521,217.814696 80.8924026,218.203545 80.4138186,218.203545" id="Fill-60" fill="#C3EDFF"></path>
                    <path d="M27.1479382,231.847091 C27.1479382,235.093139 24.5170266,237.725351 21.269678,237.725351 C18.02363,237.725351 15.3927184,235.093139 15.3927184,231.847091 C15.3927184,228.601043 18.02363,225.968831 21.269678,225.968831 C24.5170266,225.968831 27.1479382,228.601043 27.1479382,231.847091" id="Fill-61" fill="#F13624"></path>
                    <path d="M80.4138186,235.435171 L34.0301844,235.435171 C33.5502999,235.435171 33.1627509,235.046321 33.1627509,234.567737 L33.1627509,228.932671 C33.1627509,228.452786 33.5502999,228.065237 34.0301844,228.065237 L80.4138186,228.065237 C80.8924026,228.065237 81.2812521,228.452786 81.2812521,228.932671 L81.2812521,234.567737 C81.2812521,235.046321 80.8924026,235.435171 80.4138186,235.435171" id="Fill-62" fill="#C3EDFF"></path>
                    <path d="M27.1479382,249.078717 C27.1479382,252.324765 24.5170266,254.956977 21.269678,254.956977 C18.02363,254.956977 15.3927184,252.324765 15.3927184,249.078717 C15.3927184,245.832669 18.02363,243.200456 21.269678,243.200456 C24.5170266,243.200456 27.1479382,245.832669 27.1479382,249.078717" id="Fill-63" fill="#FFFFFF"></path>
                    <path d="M80.4138186,252.666796 L34.0301844,252.666796 C33.5502999,252.666796 33.1627509,252.277947 33.1627509,251.799363 L33.1627509,246.164296 C33.1627509,245.684412 33.5502999,245.296863 34.0301844,245.296863 L80.4138186,245.296863 C80.8924026,245.296863 81.2812521,245.684412 81.2812521,246.164296 L81.2812521,251.799363 C81.2812521,252.277947 80.8924026,252.666796 80.4138186,252.666796" id="Fill-64" fill="#C3EDFF"></path>
                    <path d="M47.4695517,269.898422 L16.2588514,269.898422 C15.7802674,269.898422 15.3927184,269.509572 15.3927184,269.030988 L15.3927184,267.080238 C15.3927184,266.601654 15.7802674,266.212805 16.2588514,266.212805 L47.4695517,266.212805 C47.9481357,266.212805 48.3369852,266.601654 48.3369852,267.080238 L48.3369852,269.030988 C48.3369852,269.509572 47.9481357,269.898422 47.4695517,269.898422" id="Fill-65" fill="#F577B6"></path>
                    <path d="M27.1479382,283.541968 C27.1479382,286.788016 24.5170266,289.420228 21.269678,289.420228 C18.02363,289.420228 15.3927184,286.788016 15.3927184,283.541968 C15.3927184,280.295919 18.02363,277.663707 21.269678,277.663707 C24.5170266,277.663707 27.1479382,280.295919 27.1479382,283.541968" id="Fill-66" fill="#00C8C8"></path>
                    <path d="M80.4138186,287.130047 L34.0301844,287.130047 C33.5502999,287.130047 33.1627509,286.741198 33.1627509,286.262614 L33.1627509,280.627547 C33.1627509,280.147662 33.5502999,279.760113 34.0301844,279.760113 L80.4138186,279.760113 C80.8924026,279.760113 81.2812521,280.147662 81.2812521,280.627547 L81.2812521,286.262614 C81.2812521,286.741198 80.8924026,287.130047 80.4138186,287.130047" id="Fill-67" fill="#C3EDFF"></path>
                    <path d="M27.1479382,300.773593 C27.1479382,304.019641 24.5170266,306.651853 21.269678,306.651853 C18.02363,306.651853 15.3927184,304.019641 15.3927184,300.773593 C15.3927184,297.527545 18.02363,294.895333 21.269678,294.895333 C24.5170266,294.895333 27.1479382,297.527545 27.1479382,300.773593" id="Fill-68" fill="#FFFFFF"></path>
                    <path d="M80.4138186,304.361673 L34.0301844,304.361673 C33.5502999,304.361673 33.1627509,303.972823 33.1627509,303.494239 L33.1627509,297.859172 C33.1627509,297.379288 33.5502999,296.991739 34.0301844,296.991739 L80.4138186,296.991739 C80.8924026,296.991739 81.2812521,297.379288 81.2812521,297.859172 L81.2812521,303.494239 C81.2812521,303.972823 80.8924026,304.361673 80.4138186,304.361673" id="Fill-69" fill="#C3EDFF"></path>
                    <path d="M351.460134,220.370178 L99.8133776,220.370178 C97.837918,220.370178 96.2370025,218.769263 96.2370025,216.793803 L96.2370025,141.364801 C96.2370025,139.389342 97.837918,137.788426 99.8133776,137.788426 L351.460134,137.788426 C353.435594,137.788426 355.036509,139.389342 355.036509,141.364801 L355.036509,216.793803 C355.036509,218.769263 353.435594,220.370178 351.460134,220.370178" id="Fill-70" stroke="#C3EDFF" stroke-width="0.764999998" fill="#FFFFFF"></path>
                    <path d="M168.197571,152.96136 L105.123319,152.96136 C104.644735,152.96136 104.257186,152.572511 104.257186,152.093927 L104.257186,146.45886 C104.257186,145.980276 104.644735,145.591426 105.123319,145.591426 L168.197571,145.591426 C168.676155,145.591426 169.065004,145.980276 169.065004,146.45886 L169.065004,152.093927 C169.065004,152.572511 168.676155,152.96136 168.197571,152.96136" id="Fill-71" fill="#C3EDFF"></path>
                    <path d="M345.036964,212.422823 L105.123319,212.422823 C104.644735,212.422823 104.257186,212.033973 104.257186,211.555389 L104.257186,205.920323 C104.257186,205.441739 104.644735,205.052889 105.123319,205.052889 L345.036964,205.052889 C345.515548,205.052889 345.904398,205.441739 345.904398,205.920323 L345.904398,211.555389 C345.904398,212.033973 345.515548,212.422823 345.036964,212.422823" id="Fill-72" fill="#C3EDFF"></path>
                    <path d="M241.025573,152.96136 L177.951321,152.96136 C177.472737,152.96136 177.085188,152.572511 177.085188,152.093927 L177.085188,146.45886 C177.085188,145.980276 177.472737,145.591426 177.951321,145.591426 L241.025573,145.591426 C241.504157,145.591426 241.893006,145.980276 241.893006,146.45886 L241.893006,152.093927 C241.893006,152.572511 241.504157,152.96136 241.025573,152.96136" id="Fill-73" fill="#C3EDFF"></path>
                    <path d="M313.853575,152.96136 L250.779323,152.96136 C250.300739,152.96136 249.91319,152.572511 249.91319,152.093927 L249.91319,146.45886 C249.91319,145.980276 250.300739,145.591426 250.779323,145.591426 L313.853575,145.591426 C314.332159,145.591426 314.721008,145.980276 314.721008,146.45886 L314.721008,152.093927 C314.721008,152.572511 314.332159,152.96136 313.853575,152.96136" id="Fill-74" fill="#C3EDFF"></path>
                    <path d="M313.040762,193.601986 L105.936132,193.601986 C105.008875,193.601986 104.257186,192.850297 104.257186,191.92174 L104.257186,169.053748 C104.257186,168.126491 105.008875,167.374802 105.936132,167.374802 L313.040762,167.374802 C313.969319,167.374802 314.721008,168.126491 314.721008,169.053748 L314.721008,191.92174 C314.721008,192.850297 313.969319,193.601986 313.040762,193.601986" id="Fill-75" fill="#C3EDFF"></path>
                    <path d="M351.460134,312.930667 L99.8133776,312.930667 C97.837918,312.930667 96.2370025,311.329752 96.2370025,309.354292 L96.2370025,233.92529 C96.2370025,231.949831 97.837918,230.348915 99.8133776,230.348915 L351.460134,230.348915 C353.435594,230.348915 355.036509,231.949831 355.036509,233.92529 L355.036509,309.354292 C355.036509,311.329752 353.435594,312.930667 351.460134,312.930667" id="Fill-76" stroke="#9CDBF6" stroke-width="0.764999998" fill="#FFFFFF"></path>
                    <path d="M168.197571,245.521849 L105.123319,245.521849 C104.644735,245.521849 104.257186,245.133 104.257186,244.654416 L104.257186,239.019349 C104.257186,238.540765 104.644735,238.151915 105.123319,238.151915 L168.197571,238.151915 C168.676155,238.151915 169.065004,238.540765 169.065004,239.019349 L169.065004,244.654416 C169.065004,245.133 168.676155,245.521849 168.197571,245.521849" id="Fill-77" fill="#C3EDFF"></path>
                    <path d="M345.036964,304.983312 L105.123319,304.983312 C104.644735,304.983312 104.257186,304.594462 104.257186,304.115878 L104.257186,298.480811 C104.257186,298.002227 104.644735,297.613378 105.123319,297.613378 L345.036964,297.613378 C345.515548,297.613378 345.904398,298.002227 345.904398,298.480811 L345.904398,304.115878 C345.904398,304.594462 345.515548,304.983312 345.036964,304.983312" id="Fill-78" fill="#C3EDFF"></path>
                    <path d="M241.025573,245.521849 L177.951321,245.521849 C177.472737,245.521849 177.085188,245.133 177.085188,244.654416 L177.085188,239.019349 C177.085188,238.540765 177.472737,238.151915 177.951321,238.151915 L241.025573,238.151915 C241.504157,238.151915 241.893006,238.540765 241.893006,239.019349 L241.893006,244.654416 C241.893006,245.133 241.504157,245.521849 241.025573,245.521849" id="Fill-79" fill="#C3EDFF"></path>
                    <path d="M313.853575,245.521849 L250.779323,245.521849 C250.300739,245.521849 249.91319,245.133 249.91319,244.654416 L249.91319,239.019349 C249.91319,238.540765 250.300739,238.151915 250.779323,238.151915 L313.853575,238.151915 C314.332159,238.151915 314.721008,238.540765 314.721008,239.019349 L314.721008,244.654416 C314.721008,245.133 314.332159,245.521849 313.853575,245.521849" id="Fill-80" fill="#C3EDFF"></path>
                    <path d="M313.040762,286.162475 L105.936132,286.162475 C105.008875,286.162475 104.257186,285.410786 104.257186,284.482229 L104.257186,261.614236 C104.257186,260.68698 105.008875,259.935291 105.936132,259.935291 L313.040762,259.935291 C313.969319,259.935291 314.721008,260.68698 314.721008,261.614236 L314.721008,284.482229 C314.721008,285.410786 313.969319,286.162475 313.040762,286.162475" id="Fill-81" fill="#C3EDFF"></path>
                    <path d="M425.465088,218.203545 L444.140269,218.203545 C445.15726,218.203545 445.981777,217.377728 445.981777,216.360737 C445.981777,215.343746 445.15726,214.517928 444.140269,214.517928 L425.465088,214.517928 C424.446797,214.517928 423.62228,215.343746 423.62228,216.360737 C423.62228,217.377728 424.446797,218.203545 425.465088,218.203545" id="Fill-82" fill="#E0E9F8"></path>
                    <path d="M386.425378,233.385583 C386.425378,236.631631 383.793166,239.263843 380.547118,239.263843 C377.30107,239.263843 374.668858,236.631631 374.668858,233.385583 C374.668858,230.139535 377.30107,227.508623 380.547118,227.508623 C383.793166,227.508623 386.425378,230.139535 386.425378,233.385583" id="Fill-83" fill="#FFFFFF"></path>
                    <path d="M439.691258,236.973662 L393.306324,236.973662 C392.82774,236.973662 392.440191,236.584813 392.440191,236.106229 L392.440191,230.471162 C392.440191,229.992578 392.82774,229.603729 393.306324,229.603729 L439.691258,229.603729 C440.169842,229.603729 440.558692,229.992578 440.558692,230.471162 L440.558692,236.106229 C440.558692,236.584813 440.169842,236.973662 439.691258,236.973662" id="Fill-84" fill="#FFFFFF"></path>
                    <path d="M439.691258,254.205288 L375.536291,254.205288 C375.057707,254.205288 374.668858,253.816438 374.668858,253.337854 L374.668858,247.702788 C374.668858,247.224204 375.057707,246.835354 375.536291,246.835354 L439.691258,246.835354 C440.169842,246.835354 440.558692,247.224204 440.558692,247.702788 L440.558692,253.337854 C440.558692,253.816438 440.169842,254.205288 439.691258,254.205288" id="Fill-85" fill="#FFFFFF"></path>
                    <path d="M386.425378,279.658674 C386.425378,282.904722 383.793166,285.536935 380.547118,285.536935 C377.30107,285.536935 374.668858,282.904722 374.668858,279.658674 C374.668858,276.412626 377.30107,273.780414 380.547118,273.780414 C383.793166,273.780414 386.425378,276.412626 386.425378,279.658674" id="Fill-86" fill="#FFFFFF"></path>
                    <path d="M439.691258,283.246754 L393.306324,283.246754 C392.82774,283.246754 392.440191,282.857904 392.440191,282.37932 L392.440191,276.744254 C392.440191,276.264369 392.82774,275.87682 393.306324,275.87682 L439.691258,275.87682 C440.169842,275.87682 440.558692,276.264369 440.558692,276.744254 L440.558692,282.37932 C440.558692,282.857904 440.169842,283.246754 439.691258,283.246754" id="Fill-87" fill="#FFFFFF"></path>
                    <path d="M439.691258,300.478379 L375.536291,300.478379 C375.057707,300.478379 374.668858,300.08953 374.668858,299.610946 L374.668858,293.975879 C374.668858,293.495995 375.057707,293.108446 375.536291,293.108446 L439.691258,293.108446 C440.169842,293.108446 440.558692,293.495995 440.558692,293.975879 L440.558692,299.610946 C440.558692,300.08953 440.169842,300.478379 439.691258,300.478379" id="Fill-88" fill="#FFFFFF"></path>
                    <path d="M408.057895,338.01081 L405.337249,340.343907 C404.81965,340.787378 405.133071,341.636605 405.814533,341.636605 L416.49684,341.636605 C417.985913,341.636605 419.225289,340.492164 419.343635,339.008294 L419.448975,337.676582 C415.654116,337.676582 411.859257,337.676582 408.064398,337.676582 L408.057895,338.01081" id="Fill-90" fill="#001D47"></path>
                    <path d="M427.951645,337.676582 L427.994561,338.413965 L425.837031,340.571495 C425.44428,340.964246 425.722587,341.636605 426.277901,341.636605 L437.730104,341.636605 C439.344025,341.636605 440.636722,340.29969 440.583401,338.68707 L440.549588,337.676582 C436.350274,337.676582 432.150959,337.676582 427.951645,337.676582" id="Fill-91" fill="#001D47"></path>
                    <g id="Group-94" transform="translate(407.821510, 266.149080)">
                        <mask id="mask-2" fill="white">
                            <use xlink:href="#path-1"></use>
                        </mask>
                        <g id="Clip-93"></g>
                        <path d="M30.3676703,0.426564011 C20.7868866,1.95075005 11.2061028,2.32399356 1.62531906,1.51508254 L0.242887528,71.5275018 C4.03774663,71.5275018 7.83260572,71.5275018 11.6274648,71.5275018 L16.5485569,9.69392725 L20.130134,71.5275018 C24.3294486,71.5275018 28.5287633,71.5275018 32.7280779,71.5275018 L30.3676703,0.426564011" id="Fill-92" fill="#242425" mask="url(#mask-2)"></path>
                    </g>
                    <path d="M387.734981,192.72805 C387.048317,191.285796 385.448702,190.5159 383.892004,190.878739 C381.923047,191.337816 380.78641,193.40301 381.450965,195.312144 L384.539653,204.184155 C387.109441,203.424663 389.68053,202.401169 392.251618,202.199592 L387.734981,192.72805" id="Fill-95" fill="#FFBCA8"></path>
                    <path d="M419.615439,213.244739 L421.428336,204.869518 C422.148813,201.538938 425.526212,199.502355 428.808674,200.419207 C431.915569,201.287941 433.755776,204.48457 432.946865,207.607071 L430.798439,215.90166 C429.984326,219.046269 426.727874,220.892979 423.611876,219.976127 C420.722165,219.1256 418.978194,216.189071 419.615439,213.244739" id="Fill-96" fill="#FFBCA8"></path>
                    <path d="M422.691122,207.921792 L422.187828,207.790442 C422.094192,208.154582 421.923827,208.460199 421.746959,208.651373 C421.56879,208.849049 421.399725,208.910172 421.328198,208.90497 L421.280079,208.899768 C421.228059,208.885463 421.160433,208.845147 421.081103,208.702092 C421.006974,208.561638 420.948452,208.334051 420.949752,208.064847 C420.949752,207.886679 420.973161,207.690303 421.025181,207.490026 C421.118817,207.127187 421.289183,206.821569 421.466051,206.629095 C421.644219,206.431419 421.811984,206.371596 421.884812,206.375498 L421.93163,206.382 C421.98495,206.396306 422.052576,206.435321 422.131907,206.579676 C422.206035,206.71883 422.264558,206.947718 422.263257,207.216921 C422.263257,207.39509 422.239848,207.590165 422.187828,207.791742 L422.691122,207.921792 L423.194415,208.051842 C423.268544,207.768333 423.303657,207.486125 423.303657,207.216921 C423.302357,206.808564 423.225627,206.426217 423.052661,206.09459 C422.882295,205.768164 422.590983,205.476852 422.19303,205.374113 L421.884812,205.335097 C421.404927,205.340299 421.005674,205.592597 420.697455,205.926825 C420.387936,206.267556 420.152546,206.714928 420.018594,207.229926 C419.944466,207.513435 419.909352,207.794343 419.909352,208.064847 C419.910653,208.471904 419.987382,208.855551 420.160349,209.185878 C420.330714,209.513604 420.622026,209.804916 421.019979,209.906355 L421.328198,209.94537 C421.808082,209.941469 422.207336,209.689172 422.515554,209.353643 C422.825073,209.012912 423.060464,208.56684 423.194415,208.051842 L422.691122,207.921792" id="Fill-97" fill="#7736F6"></path>
                    <path d="M422.636501,208.438091 C422.637801,208.439391 423.533846,208.533027 424.487112,208.681284 C424.963095,208.755413 425.453384,208.842546 425.838332,208.933581 C426.030806,208.979099 426.19857,209.025917 426.316916,209.068833 L426.449567,209.122154 L426.474276,209.136459 L426.526296,209.054528 L426.462572,209.127356 L426.474276,209.136459 L426.526296,209.054528 L426.462572,209.127356 C426.492483,209.142962 426.548405,209.258706 426.545804,209.458983 C426.547104,209.596836 426.522395,209.750295 426.496385,209.863439 L426.462572,209.998691 L426.452168,210.032504 L426.450867,210.037706 C426.358532,210.30951 426.504188,210.604724 426.775992,210.69836 C427.047797,210.790695 427.34301,210.645039 427.435346,210.373235 C427.443149,210.343323 427.583603,209.951873 427.586204,209.458983 C427.584903,209.126055 427.522479,208.686486 427.153137,208.348356 C426.987974,208.209203 426.841017,208.154582 426.66545,208.088256 C426.06852,207.878876 425.121756,207.721515 424.282934,207.599268 C423.449313,207.478322 422.749644,207.404193 422.745743,207.404193 C422.459633,207.374282 422.203434,207.581061 422.173523,207.867171 C422.143611,208.151981 422.350391,208.408179 422.636501,208.438091" id="Fill-98" fill="#7736F6"></path>
                    <path d="M451.709179,251.393607 C451.873042,248.375146 451.326832,245.360587 450.113466,242.591822 L442.241539,224.622813 C440.282986,219.779751 435.862586,216.372441 430.680094,215.711787 L413.793101,213.55946 L398.587654,212.335689 C397.620082,212.25896 396.766954,211.671134 396.349494,210.794597 L392.251618,202.199592 C389.68053,202.401169 387.109441,203.424663 384.539653,204.184155 L388.697351,216.130548 C389.49976,218.435034 391.363377,220.212818 393.702976,220.907285 L410.273948,225.819274 L409.44683,267.664163 C419.027613,268.473074 428.608397,268.09983 438.189181,266.575644 L437.258023,238.530361 L443.098568,248.129352 L443.83205,259.64658 C446.308202,259.64658 448.784355,259.64658 451.260507,259.64658 L451.709179,251.393607" id="Fill-99" fill="#D14648"></path>
                    <path d="M443.83205,259.64658 L444.583739,271.456421 C444.539522,272.914281 445.543508,274.195274 446.968856,274.500891 C448.684216,274.867632 450.351457,273.699783 450.59205,271.962315 L451.260507,259.64658 C448.784355,259.64658 446.308202,259.64658 443.83205,259.64658" id="Fill-100" fill="#FFBCA8"></path>
                    <path d="M123.118338,21.2090023 C120.440609,22.9477708 117.466365,24.3197983 114.498624,25.5487709 L117.824003,32.4245146 L111.532183,46.6077679 C110.607528,48.6898685 111.592006,51.123104 113.702718,51.9788331 C115.697685,52.7877441 117.976161,51.8864976 118.877408,49.9305455 L125.304479,35.9891851 C126.759738,32.8315711 126.766241,29.1940725 125.321385,26.0312564 L123.118338,21.2090023" id="Fill-101" fill="#FFBCA8"></path>
                    <path d="M70.0826463,23.7046618 L69.5143278,27.9390899 C69.0162363,31.653318 70.2894258,35.3844526 72.9528499,38.0179652 L86.4520402,51.362396 C87.6537023,52.5497526 89.5407278,52.6889061 90.9036518,51.6914225 L90.9036518,51.690122 C92.4837594,50.5339775 92.7802734,48.2919155 91.5552024,46.7638279 L79.7830761,31.013472 L81.2006211,25.8101714 C77.309525,25.8491864 73.6408144,24.9973589 70.0826463,23.7046618" id="Fill-102" fill="#FFBCA8"></path>
                    <path d="M119.603087,13.5152441 C116.846027,7.47962341 111.251275,3.2243873 104.698056,2.18008578 L92.4707544,0.231936726 C84.8407207,-0.985331305 77.257505,2.66517229 73.4470399,9.38745696 C72.1985599,11.590504 71.3844468,14.0120351 71.0463168,16.5206996 L70.0826463,23.7046618 C73.6408144,24.9973589 77.309525,25.8491864 81.2006211,25.8101714 L81.4828296,24.7749734 C82.4204901,21.3325498 85.4415517,18.8668017 89.0010203,18.6379137 L104.882727,17.6170212 C108.27183,17.3998377 111.455454,19.2556512 112.934122,22.3131268 L114.498624,25.5487709 C117.466365,24.3197983 120.440609,22.9477708 123.118338,21.2090023 L119.603087,13.5152441" id="Fill-103" fill="#32C5FF"></path>
                    <path d="M91.3549253,17.4388527 L92.0884074,11.3707195 C92.4837594,8.10906543 95.343559,5.71484487 98.62342,5.90211687 C102.168583,6.10239388 104.828106,9.22359396 104.465266,12.755752 L103.839726,18.8511957 C103.448275,22.6499563 99.7639586,25.2054389 96.0705385,24.2404678 L95.962597,24.2118568 C92.9493384,23.4250543 90.9803813,20.5314417 91.3549253,17.4388527" id="Fill-104" fill="#FFBCA8"></path>
                    <path d="M91.7398734,14.2591301 C91.7398734,14.2591301 88.3533713,7.1870109 91.3094078,4.64973534 C94.3291689,2.05913927 95.759719,4.61852334 100.226937,1.46741176 C107.291253,-3.51480387 117.610721,7.0218474 104.465266,12.755752 C104.465266,12.755752 98.8145935,14.7546206 95.5633435,10.8531205 C95.5633435,10.8531205 94.8727779,13.6530971 91.7398734,14.2591301" id="Fill-160" fill="#3427F6"></path>
                </g>
                <path d="M341.535,152 L341.535,144.089 L343.965,144.089 C344.973,144.089 345.9405,144.017 346.8675,143.873 C347.7945,143.729 348.609,143.4545 349.311,143.0495 C350.013,142.6445 350.571,142.073 350.985,141.335 C351.399,140.597 351.606,139.625 351.606,138.419 C351.606,137.357 351.4125,136.4705 351.0255,135.7595 C350.6385,135.0485 350.121,134.4815 349.473,134.0585 C348.825,133.6355 348.0735,133.334 347.2185,133.154 C346.3635,132.974 345.477,132.884 344.559,132.884 L344.559,132.884 L338.133,132.884 L338.133,152 L341.535,152 Z M343.587,141.173 L341.535,141.173 L341.535,135.8 L343.965,135.8 C344.415,135.8 344.883,135.827 345.369,135.881 C345.855,135.935 346.296,136.0565 346.692,136.2455 C347.088,136.4345 347.412,136.7045 347.664,137.0555 C347.916,137.4065 348.042,137.879 348.042,138.473 C348.042,139.121 347.9025,139.625 347.6235,139.985 C347.3445,140.345 346.9845,140.615 346.5435,140.795 C346.1025,140.975 345.621,141.083 345.099,141.119 C344.577,141.155 344.073,141.173 343.587,141.173 L343.587,141.173 Z M355.359,158.48 C356.079,158.48 356.6955,158.4035 357.2085,158.2505 C357.7215,158.0975 358.167,157.8635 358.545,157.5485 C358.923,157.2335 359.2515,156.8465 359.5305,156.3875 C359.8095,155.9285 360.066,155.393 360.3,154.781 L360.3,154.781 L366.429,139.04 L363.054,139.04 L359.814,148.031 L359.76,148.031 L356.142,139.04 L352.578,139.04 L358.113,152.108 L357.492,153.647 C357.348,153.989 357.213,154.2815 357.087,154.5245 C356.961,154.7675 356.8035,154.9655 356.6145,155.1185 C356.4255,155.2715 356.196,155.384 355.926,155.456 C355.656,155.528 355.323,155.564 354.927,155.564 C354.639,155.564 354.3555,155.5325 354.0765,155.4695 C353.7975,155.4065 353.532,155.33 353.28,155.24 L353.28,155.24 L352.875,158.156 C353.685,158.372 354.513,158.48 355.359,158.48 Z" id="Py" fill="#FFFFFF" fill-rule="nonzero"></path>
                <path d="M215.7972,87.1134 C216.213,87.1134 216.56895,86.9685 216.86505,86.6787 C217.16115,86.3889 217.3092,86.0424 217.3092,85.6392 C217.3092,85.236 217.158,84.8958 216.8556,84.6186 C216.5532,84.3414 216.2004,84.2028 215.7972,84.2028 C215.3814,84.2028 215.02545,84.3477 214.72935,84.6375 C214.43325,84.9273 214.2852,85.2738 214.2852,85.677 C214.2852,85.8786 214.32615,86.0676 214.40805,86.244 C214.48995,86.4204 214.6002,86.5716 214.7388,86.6976 C214.8774,86.8236 215.03805,86.9244 215.22075,87 C215.40345,87.0756 215.5956,87.1134 215.7972,87.1134 Z M222.4689,87 L222.4689,76.7373002 L222.5067,76.7373002 L229.1217,87 L232.1457,87 L232.1457,73.6188002 L229.7643,73.6188002 L229.7643,83.5602001 L229.7265,83.5602001 L223.2438,73.6188002 L220.0875,73.6188002 L220.0875,87 L222.4689,87 Z M244.336199,87 L244.336199,84.8454 L237.5133,84.8454 L237.5133,81.2166001 L243.655799,81.2166001 L243.655799,79.0620001 L237.5133,79.0620001 L237.5133,75.7734002 L243.995999,75.7734002 L243.995999,73.6188002 L235.1319,73.6188002 L235.1319,87 L244.336199,87 Z M251.801699,87 L251.801699,75.7734002 L255.902999,75.7734002 L255.902999,73.6188002 L245.318999,73.6188002 L245.318999,75.7734002 L249.420299,75.7734002 L249.420299,87 L251.801699,87 Z" id=".NET" fill="#FFFFFF" fill-rule="nonzero"></path>
            </g>
        </g>
    </g>
</svg>